<svg xmlns="http://www.w3.org/2000/svg" viewBox="0 0 192.85 59.9"><defs><style>.cls-1{fill:#8bbf5e;}</style></defs><title>cilantro</title><g id="Layer_2" data-name="Layer 2"><g id="Layer_12" data-name="Layer 12"><path class="cls-1" d="M192.33,27.64c-1.82,2-3.72,5.15-5.44,5.91-9.39,4.14-18.75,4-28.09,12.41-11.16,10.1-20.07,3.92-30.4,8.35-11.21,4.81-21.66.12-32.47-.24Q74.6,53.38,53.21,53c-9.57-.15-19.12-.5-28.81.34-4.59.4-9.49,3-14.3,5.25-4.5,2.1-9.33,2.85-10-7.3C-.45,42.09,1,29.66,2.68,18.74,4,10,7.43,5,11.21,4.77,38.4,3.17,65.8.13,92.79,0c12.62-.06,24.38,5.89,36.7,8.08,13.54,2.41,27.22,4.09,41,5.19a41.9,41.9,0,0,1,22.39,8Z"/></g></g></svg>