<svg xmlns="http://www.w3.org/2000/svg" viewBox="0 0 224.2 66.9"><defs><style>.cls-1{fill:#c26536;}</style></defs><title>cinnamon</title><g id="Layer_2" data-name="Layer 2"><g id="Layer_12" data-name="Layer 12"><path class="cls-1" d="M224.2,21.13c-2.34,9.6-5.39,11.13-11.18,11.26-13.55.3-12.32,4-25.91,6.15-3.4.53,15.58,5.68,9.94,8.77l21.89,2.15c-3.94,8.34-8.79,9.17-14.14,9-14.58-.48-29.16-1.29-43.78-.87-20.21.58-40.45,2.05-60.68,3.37-9.88.64-19.81,2.62-29.63,2.49-11.78-.15-23.62,6.29-35.35,2-5.82-2.14-11.85-4.17-17.9-4.28S5.27,65.8,0,59.44C1.77,40.77,10.89,26.65,23.16,23.69c29.49-7.11,59-14.74,88.51-20.93C123.84.21,136.2.73,148.47.08c2.32-.12,5.4-.34,6.8,1.48,8.89,11.5,20.89,7.37,31.47,10.17C198.76,14.91,210.84,17.79,224.2,21.13Z"/></g></g></svg>