<svg xmlns="http://www.w3.org/2000/svg" viewBox="0 0 204.9 58.36"><defs><style>.cls-1{fill:#483d4c;}</style></defs><title>clove</title><g id="Layer_2" data-name="Layer 2"><g id="Layer_12" data-name="Layer 12"><path class="cls-1" d="M204.9,6.65c-2.85,4.08-3.9,6.38-5.27,7.41C187,23.6,174.53,34.45,161.53,41.78c-10,5.65-20.75,8-31.13,9.67-20,3.27-40.18,6.56-60,6.89-12.79.21-25.09-5.14-37.71-7.4-7-1.24-14.18-.77-21.15-1.94C3.36,47.65,0,41.75,0,31c.05-11.28,5.14-19,12.56-19.7C38.85,9,65.18,6.07,91.43,4.36c13.52-.88,26.87.84,40.37.5,16.76-.42,33.58-1.63,50.39-2.76,4-.27,8.21-2.6,12-2C197.63.63,200.62,3.89,204.9,6.65Z"/></g></g></svg>