<svg xmlns="http://www.w3.org/2000/svg" viewBox="0 0 143.12 61.89"><defs><style>.cls-1{fill:#b3843b;}</style></defs><title>Cumin</title><g id="Layer_2" data-name="Layer 2"><g id="Layer_12" data-name="Layer 12"><path class="cls-1" d="M131.26,35.82c3.7,7.63,3.7,7.63,11.86,10.53-1.21,3-1.95,6.58-3.14,7.49-2.88,2.21-6,4.29-9,4.49-12,.78-24,.65-36,1.24-3.63.18-7.27,2.66-10.87,2.28-12.87-1.34-25.77-2.53-38.56-5.61-8.36-2-17,.94-25.06-9.95-4-5.46-10.34-5-15.43,1.85a2.71,2.71,0,0,1-4.46-.71c-.81-1.94-.83-7-.2-9.71C2.35,29.56,5,23.25,9.84,21.7,21.77,17.88,33.58,12,45.56,9.15,62,5.26,78.58,3.34,95.1.79A110,110,0,0,1,107.76.07c.82,0,1.94-.34,2.43.61,6.21,11.9,14.14,8.45,21.39,10.76,2.6.83,5,.74,5.69,7.9.63,7-1.15,9.56-3.79,11.66C132.58,31.72,132,34.17,131.26,35.82Z"/></g></g></svg>