<svg xmlns="http://www.w3.org/2000/svg" viewBox="0 0 207.97 65.42"><defs><style>.cls-1{fill:#f79662;}</style></defs><title>fenugreek</title><g id="Layer_2" data-name="Layer 2"><g id="Layer_12" data-name="Layer 12"><path class="cls-1" d="M3.72,47.92l10.05-12.4c-3.83-9.83-9-2.82-13.77-5.75C4.76,16.38,12.89,14.41,19.74,11.52,32,6.34,44.67,3.76,57.25,1.26A81.94,81.94,0,0,1,80,.4c12.58,1.05,25.13,4.33,37.7,4.53,17.91.29,35.85-.85,53.75-2.35,13.15-1.1,38.66,17.63,36.32,28.77-.92,4.39-5.51,17.45-8.21,17.09-19.29-2.58-37.83,7.71-56.87,9.24-20,1.62-40-3.07-60-.1C66.94,59.92,51.22,63.82,35.44,65c-6.57.5-13.86,2.06-19.82-7.92C12.91,52.56,8.42,51.37,3.72,47.92Z"/></g></g></svg>