<svg xmlns="http://www.w3.org/2000/svg" viewBox="0 0 163.89 59.64"><defs><style>.cls-1{fill:#b2a2b1;}</style></defs><title>garlic</title><g id="Layer_2" data-name="Layer 2"><g id="Layer_12" data-name="Layer 12"><path class="cls-1" d="M24.74,55.87c2-5.32,1.37-3.06,4.32-11C17.42,49.06,9.85,46.48,0,50,1.44,31.84,4.14,17,10.26,9.14,11.75,7.22,13.43,5.5,15,5.44,37.32,4.67,59.54-4,81.89,2.25,108,9.54,134.24,6.4,160.42,8.62a25.66,25.66,0,0,1,3.47.94c-6.68,15.92-14.13,17.56-21.43,19-16.88,3.45-11.71,9.84-28.59,13.25-1.94.39-5.52-3-5.22,9.63,0,1.24-24.78.14-26.26.33-6.47.82-13,.39-19.43,1.41-11.5,1.81-23,4.42-34.49,6.4C27.52,59.79,26.53,57.74,24.74,55.87Z"/></g></g></svg>