<svg xmlns="http://www.w3.org/2000/svg" viewBox="0 0 175.02 67.98"><defs><style>.cls-1{fill:#ead778;}</style></defs><title>ginger</title><g id="Layer_2" data-name="Layer 2"><g id="Layer_12" data-name="Layer 12"><path class="cls-1" d="M.58,35.37C7.84,30.84,17.13,38.89,22.27,21L9.55,8.72c3.08-3.34,4.3-5.76,5.54-5.84C35.76,1.66,56.44-.49,77.11.1c17.07.48,34.12,4.56,51.19,6.46,7.33.81,14.7.14,22.12.14,4.69,19.35,5.23,19.5,15.43,14.61,2.84-1.36,6,.43,9.17.79-2.37,22.45-6.41,31.26-14.58,33-20.59,4.37-41.15,9.81-61.79,12.33C84.9,69.1,71,66.55,57.19,65.77a3.15,3.15,0,0,1-2.73-1.85c-5.17-11.37-11.88-9-18.25-10.11C26.59,52.15,16.95,50.53,7.36,48,4.81,47.33,2.45,43.42,0,41Z"/></g></g></svg>