<svg xmlns="http://www.w3.org/2000/svg" viewBox="0 0 179.31 58.66"><defs><style>.cls-1{fill:#566637;}</style></defs><title>oregano</title><g id="Layer_2" data-name="Layer 2"><g id="Layer_12" data-name="Layer 12"><path class="cls-1" d="M0,52.68C2.35,48.41,3.16,36,4.35,34.91c11.05-10.49,12.43-12.07,24-20.42C37.22,8.06,47,4.83,56.54,2.27c18.39-5,36.86.07,55.29-2C123.69-1,135.52,3.21,147.41,4.35c6.55.63,13.23-.47,19.79.09,7.67.65,11.27,6.17,12,16.75C180,32.31,175.84,40.42,169,41.7c-24.26,4.54-48.52,9.73-72.79,13.68-12.5,2-25,1.49-37.55,3C43.11,60.22,37,52.66,21.44,55.21c-3.69.61-7.44,3.28-11,3C7.2,58,4.18,55,0,52.68Z"/></g></g></svg>