<svg xmlns="http://www.w3.org/2000/svg" viewBox="0 0 194.4 49.01"><defs><style>.cls-1{fill:#ba3424;}</style></defs><title>paprika</title><g id="Layer_2" data-name="Layer 2"><g id="Layer_12" data-name="Layer 12"><path class="cls-1" d="M15,15.15,0,6.29C3.62,3.88,5,2.14,6.51,2.08,30.8,1.2,55.1-.35,79.38.07c20.06.35,40.08,3.29,60.13,4.66,8.61.59,17.27.1,26,.1,5.51,14,6.14,14.06,18.13,10.53,3.34-1,7.05.31,10.78.57-2.78,16.18-7.53,22.54-17.12,23.79-24.18,3.15-48.34,7.07-72.59,8.89C88.52,49.82,72.22,48,56,47.43a4.25,4.25,0,0,1-3.21-1.33c-6.07-8.2-14-6.49-21.44-7.29C20,37.6,8.91,28,15,15.15Z"/></g></g></svg>