
<!----------------------- 
-------------------------
--------Animated---------
------------------------- 
------------------------>
<?xml version="1.0" encoding="UTF-8"?>
<svg viewBox="0 0 395 300" xmlns="http://www.w3.org/2000/svg">
    <g fill="none" stroke-linecap="round">
        <path class="d-lines d-six" d="m86.9 86.4c39.5-13.6 130-6.1 139.7 8.9 9.9 15.4-32.7 29.6-47.5 44.4s-2.9 41.9 28.4 45c30.8 3.1 82-6.6 80.8-25.9-1.8-30.2-129.5-11.7-133.2 11.7-2.9 18.6 66.6 51.2 56.7 69.1s-122.5 37.1-153.5 0c-25.3-30.2-43.8-69.5 11.1-77.7 61.7-9.2 110.4 98.7 181.9 90 28.8-3.5 166.5-97.4 91.9-117.2s-267.6 26.5-289.2 6.8c-21-19-6.6-41.5 32.9-55.1z" stroke="${en.color[0]}"
            opacity=".6" />
        <path class="d-lines d-five" d="m86.9 77.4c39.5-13.6 130-6.1 139.7 8.9 9.9 15.4-32.7 29.6-47.5 44.4s-2.9 41.9 28.4 45c30.8 3.1 82-6.6 80.8-25.9-1.8-30.2-129.5-11.7-133.2 11.7-2.9 18.6 66.6 51.2 56.7 69.1s-122.5 37.1-153.5 0c-25.3-30.2-43.8-69.5 11.1-77.7 61.7-9.2 110.4 98.7 181.9 90 28.8-3.5 166.5-97.4 91.9-117.2s-267.6 26.5-289.2 6.8c-21-19-6.6-41.5 32.9-55.1z" stroke="${en.color[1]}"
            opacity=".9" />
        <path class="d-lines d-four" d="m86.9 68.8c39.5-13.6 130-6.1 139.7 8.9 9.9 15.4-32.7 29.6-47.5 44.4s-2.9 41.9 28.4 45c30.8 3.1 82-6.6 80.8-25.9-1.9-30.2-129.6-11.7-133.3 11.8-2.9 18.6 66.6 51.2 56.7 69.1s-122.5 37.1-153.5 0c-25.3-30.2-43.8-69.5 11.1-77.7 61.7-9.2 110.4 98.7 181.9 90 28.8-3.5 166.5-97.4 91.9-117.2s-267.6 26.5-289.2 6.8c-20.9-19.1-6.5-41.6 33-55.2z" stroke="${en.color[2]}"
            opacity=".6" />
        <path class="d-lines d-three" d="m86.9 59.4c39.5-13.6 130-6.1 139.7 8.9 9.9 15.4-32.7 29.6-47.5 44.4s-2.9 41.9 28.4 45c30.8 3.1 82-6.6 80.8-25.9-1.8-30.2-129.5-11.7-133.2 11.7-2.9 18.6 66.6 51.2 56.7 69.1s-122.5 37.1-153.5 0c-25.3-30.2-43.8-69.5 11.1-77.7 61.7-9.2 110.4 98.7 181.9 90 28.8-3.5 166.5-97.4 91.9-117.2s-267.6 26.5-289.2 6.8c-21-19-6.6-41.6 32.9-55.1z" stroke="${en.color[0]}"
            opacity=".9" />
        <path class="d-lines d-two" d="m86.9 50.4c39.5-13.6 130-6.1 139.7 8.9 9.9 15.4-32.7 29.6-47.5 44.4s-2.9 41.9 28.4 45c30.8 3.1 82-6.6 80.8-25.9-1.8-30.2-129.5-11.7-133.2 11.7-2.9 18.6 66.6 51.2 56.7 69.1s-122.5 37.1-153.5 0c-25.3-30.2-43.8-69.5 11.1-77.7 61.7-9.2 110.4 98.7 181.9 90 28.8-3.5 166.5-97.4 91.9-117.2s-267.6 26.5-289.2 6.8c-21-19-6.6-41.6 32.9-55.1z" stroke="${en.color[1]}"
            opacity=".6" />
        <path class="d-lines d-one" d="m86.9 40.6c39.5-13.6 130-6.1 139.7 8.9 9.9 15.4-32.7 29.6-47.5 44.4s-2.9 41.9 28.4 45c30.8 3.1 82-6.6 80.8-25.9-1.8-30.2-129.5-11.7-133.2 11.7-2.9 18.6 66.6 51.2 56.7 69.1s-122.5 37.1-153.5 0c-25.3-30.2-43.8-69.5 11.1-77.7 61.7-9.2 110.4 98.7 181.9 90 28.8-3.5 166.5-97.4 91.9-117.2s-267.7 26.7-289.3 6.9c-20.9-19.1-6.5-41.6 33-55.2z" stroke="${en.color[2]}"
            opacity=".9" />
    </g>
</svg>
<!----------------------- 
-------------------------
---------Static----------
------------------------- 
------------------------>
<?xml version="1.0" encoding="UTF-8"?>
<svg viewBox="0 0 395 300" xmlns="http://www.w3.org/2000/svg">
    <g fill="none" stroke-linecap="round">
        <path class="d-six" d="m86.9 86.4c39.5-13.6 130-6.1 139.7 8.9 9.9 15.4-32.7 29.6-47.5 44.4s-2.9 41.9 28.4 45c30.8 3.1 82-6.6 80.8-25.9-1.8-30.2-129.5-11.7-133.2 11.7-2.9 18.6 66.6 51.2 56.7 69.1s-122.5 37.1-153.5 0c-25.3-30.2-43.8-69.5 11.1-77.7 61.7-9.2 110.4 98.7 181.9 90 28.8-3.5 166.5-97.4 91.9-117.2s-267.6 26.5-289.2 6.8c-21-19-6.6-41.5 32.9-55.1z" stroke="${en.color[0]}"
            opacity=".6" />
        <path class="d-five" d="m86.9 77.4c39.5-13.6 130-6.1 139.7 8.9 9.9 15.4-32.7 29.6-47.5 44.4s-2.9 41.9 28.4 45c30.8 3.1 82-6.6 80.8-25.9-1.8-30.2-129.5-11.7-133.2 11.7-2.9 18.6 66.6 51.2 56.7 69.1s-122.5 37.1-153.5 0c-25.3-30.2-43.8-69.5 11.1-77.7 61.7-9.2 110.4 98.7 181.9 90 28.8-3.5 166.5-97.4 91.9-117.2s-267.6 26.5-289.2 6.8c-21-19-6.6-41.5 32.9-55.1z" stroke="${en.color[1]}"
            opacity=".9" />
        <path class="d-four" d="m86.9 68.8c39.5-13.6 130-6.1 139.7 8.9 9.9 15.4-32.7 29.6-47.5 44.4s-2.9 41.9 28.4 45c30.8 3.1 82-6.6 80.8-25.9-1.9-30.2-129.6-11.7-133.3 11.8-2.9 18.6 66.6 51.2 56.7 69.1s-122.5 37.1-153.5 0c-25.3-30.2-43.8-69.5 11.1-77.7 61.7-9.2 110.4 98.7 181.9 90 28.8-3.5 166.5-97.4 91.9-117.2s-267.6 26.5-289.2 6.8c-20.9-19.1-6.5-41.6 33-55.2z" stroke="${en.color[2]}"
            opacity=".6" />
        <path class="d-three" d="m86.9 59.4c39.5-13.6 130-6.1 139.7 8.9 9.9 15.4-32.7 29.6-47.5 44.4s-2.9 41.9 28.4 45c30.8 3.1 82-6.6 80.8-25.9-1.8-30.2-129.5-11.7-133.2 11.7-2.9 18.6 66.6 51.2 56.7 69.1s-122.5 37.1-153.5 0c-25.3-30.2-43.8-69.5 11.1-77.7 61.7-9.2 110.4 98.7 181.9 90 28.8-3.5 166.5-97.4 91.9-117.2s-267.6 26.5-289.2 6.8c-21-19-6.6-41.6 32.9-55.1z" stroke="${en.color[0]}"
            opacity=".9" />
        <path class="d-two" d="m86.9 50.4c39.5-13.6 130-6.1 139.7 8.9 9.9 15.4-32.7 29.6-47.5 44.4s-2.9 41.9 28.4 45c30.8 3.1 82-6.6 80.8-25.9-1.8-30.2-129.5-11.7-133.2 11.7-2.9 18.6 66.6 51.2 56.7 69.1s-122.5 37.1-153.5 0c-25.3-30.2-43.8-69.5 11.1-77.7 61.7-9.2 110.4 98.7 181.9 90 28.8-3.5 166.5-97.4 91.9-117.2s-267.6 26.5-289.2 6.8c-21-19-6.6-41.6 32.9-55.1z" stroke="${en.color[1]}"
            opacity=".6" />
        <path class="d-one" d="m86.9 40.6c39.5-13.6 130-6.1 139.7 8.9 9.9 15.4-32.7 29.6-47.5 44.4s-2.9 41.9 28.4 45c30.8 3.1 82-6.6 80.8-25.9-1.8-30.2-129.5-11.7-133.2 11.7-2.9 18.6 66.6 51.2 56.7 69.1s-122.5 37.1-153.5 0c-25.3-30.2-43.8-69.5 11.1-77.7 61.7-9.2 110.4 98.7 181.9 90 28.8-3.5 166.5-97.4 91.9-117.2s-267.7 26.7-289.3 6.9c-20.9-19.1-6.5-41.6 33-55.2z" stroke="${en.color[2]}"
            opacity=".9" />
    </g>
</svg>