<svg xmlns="http://www.w3.org/2000/svg" viewBox="0 0 220.77 62.32"><defs><style>.cls-1{fill:#583a28;}</style></defs><title>Allspice</title><g id="Layer_2" data-name="Layer 2"><g id="Layer_12" data-name="Layer 12"><path class="cls-1" d="M33.49,54.16l3.94-7.39C24.8,34.64,13.25,54.3,0,49.86,2.75,34.27,8.09,25.34,17.44,22,38.73,14.44,60,6.33,82,5c29.42-1.81,58.83-3.79,88.26-5,5.43-.22,10.92,3,16.38,4.66,5.86,1.78,11.69,3.84,17.58,5.3,6.67,1.65,11.27,7.18,16.6,16.94-13.23,4.89-27-5.19-35.32,12.27l14.91,6-.14,3.18c-2.42.87-4.82,2.1-7.28,2.55-11.19,2-22.37,4.55-33.61,5.61-13.5,1.27-27,1.18-40.58,1.77S91.7,59.85,78.17,60.23c-7.88.22-15.77-.56-23.66-.44a38,38,0,0,0-10,2C39.59,63.22,35.56,62.18,33.49,54.16Z"/></g></g></svg>