<svg xmlns="http://www.w3.org/2000/svg" viewBox="0 0 243.67 68.37"><defs><style>.cls-1{fill:#c1bf39;}</style></defs><title>Cardamom</title><g id="Layer_2" data-name="Layer 2"><g id="Layer_12" data-name="Layer 12"><path class="cls-1" d="M0,41.59C3,31.2,6.38,29.67,12.63,29.81c14.62.31,9.19-16-11.54-18.94,4.67-8.93,16-9.61,21.73-9.17,15.7,1.21,31.38,2.79,47.16,3,21.82.32,43.71-.34,65.59-.82,10.68-.24,21.49-1.93,32.07-1.33,12.7.72,25.79-5.76,38.22-.48,6.16,2.62,12.56,5.12,19.08,5.52,6.36.39,13.37-4.53,18.73,2.68-2.86,20.33-13.41,35.34-26.79,38-32.16,6.38-64.32,13.33-96.49,18.7-13.25,2.21-26.56,1.06-39.82,1.2-2.51,0-5.84.11-7.26-1.94-9-13-22.15-9-33.41-12.61C27.1,49.59,14.23,45.87,0,41.59Z"/></g></g></svg>