<svg xmlns="http://www.w3.org/2000/svg" viewBox="0 0 196.05 63.45"><defs><style>.cls-1{fill:#c11724;}</style></defs><title>chili</title><g id="Layer_2" data-name="Layer 2"><g id="Layer_12" data-name="Layer 12"><path class="cls-1" d="M196,8.36c-3.09,3.27-6,8.25-9.29,9.49-8.06,3-16.28,4.38-24.44,6.36-19.93,4.84-39.88,9.46-59.79,14.69-2.63.69-5.05,4.42-7.57,6.74l.52,4.53c9.34-1.67,18.71-2.87,28-5.12q22.69-5.49,45.3-12.24c4.36-1.31,7.29-.69,8.2,11.82-5.68,1.27-11.21,1.12-16.33,3.92C143.27,58,125.42,60.89,107.6,63c-12.19,1.44-24.48-.9-36.73-1.15-8.19-.17-16.38.57-24.58.49a18.85,18.85,0,0,1-8.84-2c-5.35-2.86-10.5-1.4-15.91-3.56-2.15-.86-4.83,2.46-7.13,4.47S10,61,7.55,62.28C2.92,64.69-.53,57.92.07,48.62,1.59,24.69,11.43,10,23.59,11.27c10.74,1.15,21.53.14,32.3.11s21.52.54,32.26-.23c10.09-.73,20.14-3.45,30.23-4.26,17.39-1.41,34.8-1.79,52.2-3.12,5.58-.43,11.11-2.83,16.68-3.67,2.68-.4,5.43.72,8.15,1.16Z"/></g></g></svg>