<svg xmlns="http://www.w3.org/2000/svg" viewBox="0 0 168.34 67.81"><defs><style>.cls-1{fill:#f7d390;}</style></defs><title>onion</title><g id="Layer_2" data-name="Layer 2"><g id="Layer_12" data-name="Layer 12"><path class="cls-1" d="M165.4,17.27l-8,12.24c3,9.69,7.12,2.78,10.92,5.67-3.78,13.2-10.22,15.15-15.65,18-9.74,5.11-19.78,7.66-29.75,10.12a52.45,52.45,0,0,1-18.08.85c-10-1-19.93-4.27-29.9-4.47-14.21-.28-28.43.84-42.63,2.31C21.89,63.08,11.5,65.68,0,67.81c1.06-11.17,1.66-23.2,3.52-34.2.73-4.34,4.37-9.29,6.51-8.94,15.3,2.54,30-7.6,45.1-9.12C71,14,86.89,10.66,102.75,7.73c12.5-2.31,25-6.15,37.49-7.34,5.21-.5,11-2,15.72,7.82C158.11,12.69,161.67,13.86,165.4,17.27Z"/></g></g></svg>