<svg xmlns="http://www.w3.org/2000/svg" viewBox="0 0 166.11 88.44"><defs><style>.cls-1{fill:#6e7230;}</style></defs><title>thyme</title><g id="Layer_2" data-name="Layer 2"><g id="Layer_12" data-name="Layer 12"><path class="cls-1" d="M3,64.78c3.14-6.55.86-20.58-3-24.54C3.8,22.15,10.29,19.48,15.76,15.57c9.8-7,19.92-10.49,30-13.86,6-2,12.15-2,18.21-1.16C74,2,84,6.39,94.05,6.66c14.31.39,28.63-1.15,42.93-3.17C147.49,2,167.86,27.33,166,42.39c-.74,5.94-4.4,12.73-6.56,12.25C144,51.15,129.22,65,114,67.12c-16,2.18-32,6.71-48,10.72C53.47,81,40.92,86.27,28.31,87.9c-5.25.68-11.07,2.79-15.83-10.71C10.31,71,6.72,69.45,3,64.78Z"/></g></g></svg>