<svg xmlns="http://www.w3.org/2000/svg" viewBox="0 0 203.31 60.38"><defs><style>.cls-1{fill:#f4be36;}</style></defs><title>Tumeric</title><g id="Layer_2" data-name="Layer 2"><g id="Layer_12" data-name="Layer 12"><path class="cls-1" d="M203.31,10.25c-3.15,5.36-4.41,19.22-6.15,20.23-10.1,5.84-2.2,11.35-12.44,16.3A87.17,87.17,0,0,1,167.33,53c-15.75,3.84-31.55-1.07-47.3,2.76a157.08,157.08,0,0,1-53.81,3.84c-17.65-1.84-35.33-3.08-53-3.49-5.76-.13-8.81-4.4-11.32-13C-2.27,28.73.55,13.44,9.27,14.93c27.31,4.65,53.86-2.76,80.62-8.2A330,330,0,0,1,170.76.33c12.9.58,7.72,2.84,20.59,4.82C194.73,5.66,198,7.94,203.31,10.25Z"/></g></g></svg>