<svg xmlns="http://www.w3.org/2000/svg" xmlns:xlink="http://www.w3.org/1999/xlink" viewBox="0 0 93.77 36.49"><defs><style>.cls-1,.cls-2{fill:none;}.cls-2{stroke:#1b2b3c;stroke-miterlimit:10;stroke-width:0.25px;}.cls-3{fill:#9aaf87;}.cls-4{fill:url(#New_Pattern_7);}.cls-5{fill:#f0eceb;}</style><pattern id="New_Pattern_7" data-name="New Pattern 7" width="55.27" height="45.7" patternTransform="translate(-57.79 -24.09)" patternUnits="userSpaceOnUse" viewBox="0 0 55.27 45.7"><rect class="cls-1" width="55.27" height="45.7"/><polyline class="cls-2" points="0.08 42.5 8.87 34.45 19.49 42.5 27.73 34.45 37.43 42.5 46.22 34.45 55.19 42.5"/><polyline class="cls-2" points="0.08 48.91 8.87 40.85 19.49 48.91 27.73 40.85 37.43 48.91 46.22 40.85 55.19 48.91"/><polyline class="cls-2" points="0.08 19.65 8.87 11.6 19.49 19.65 27.73 11.6 37.43 19.65 46.22 11.6 55.19 19.65"/><polyline class="cls-2" points="0.08 26.06 8.87 18 19.49 26.06 27.73 18 37.43 26.06 46.22 18 55.19 26.06"/><polyline class="cls-2" points="0.08 34.11 8.87 26.06 19.49 34.11 27.73 26.06 37.43 34.11 46.22 26.06 55.19 34.11"/><polyline class="cls-2" points="0.08 3.21 8.87 -4.85 19.49 3.21 27.73 -4.85 37.43 3.21 46.22 -4.85 55.19 3.21"/><polyline class="cls-2" points="0.08 11.26 8.87 3.21 19.49 11.26 27.73 3.21 37.43 11.26 46.22 3.21 55.19 11.26"/></pattern></defs><title>Add_Button_1</title><g id="Layer_2" data-name="Layer 2"><g id="Layer_2-2" data-name="Layer 2"><rect class="cls-3" x="0.78" width="92.98" height="36.49" rx="18.24" ry="18.24"/><path class="cls-4" d="M18.24,0h.83a0,0,0,0,1,0,0V36.49a0,0,0,0,1,0,0h-.83A18.24,18.24,0,0,1,0,18.24v0A18.24,18.24,0,0,1,18.24,0Z"/><path class="cls-5" d="M43.37,21H39.49l-.66,1.63h-2l3.65-8.4h2l3.59,8.4H44Zm-.61-1.52-1.32-3.26-1.33,3.26Z"/><path class="cls-5" d="M55.52,18.39A4.16,4.16,0,0,1,51,22.59H47.54v-8.4H51.1A4.12,4.12,0,0,1,55.52,18.39Zm-1.93,0a2.48,2.48,0,0,0-2.52-2.61H49.44V21h1.71A2.42,2.42,0,0,0,53.59,18.4Z"/><path class="cls-5" d="M65.35,18.39a4.16,4.16,0,0,1-4.49,4.2H57.37v-8.4h3.56A4.12,4.12,0,0,1,65.35,18.39Zm-1.93,0a2.48,2.48,0,0,0-2.52-2.61H59.26V21H61A2.42,2.42,0,0,0,63.41,18.4Z"/></g></g></svg>