<svg xmlns="http://www.w3.org/2000/svg" xmlns:xlink="http://www.w3.org/1999/xlink" viewBox="0 0 521.94 226"><defs><style>.cls-1{opacity:0.29;}.cls-2{clip-path:url(#clip-path);}.cls-3,.cls-6{fill:none;}.cls-4{fill:#231f20;fill-rule:evenodd;}.cls-5{clip-path:url(#clip-path-4);}.cls-6{stroke:#f2f2eb;stroke-miterlimit:10;stroke-width:0.25px;}.cls-7{mask:url(#mask);}.cls-8{fill:#1b2b3c;}.cls-9{fill:url(#New_Pattern_2);}.cls-10{filter:url(#luminosity-noclip);}</style><clipPath id="clip-path"><rect class="cls-3" x="65.17" y="-12.58" width="356.37" height="283.4"/></clipPath><clipPath id="clip-path-4"><rect class="cls-3" x="-233.25" y="-30.07" width="356.37" height="283.4"/></clipPath><filter id="luminosity-noclip" x="-233.25" y="-30.07" width="755.19" height="300.88" filterUnits="userSpaceOnUse" color-interpolation-filters="sRGB"><feFlood flood-color="#fff" result="bg"/><feBlend in="SourceGraphic" in2="bg"/></filter><mask id="mask" x="-233.25" y="-30.07" width="755.19" height="300.88" maskUnits="userSpaceOnUse"><g class="cls-10"><g class="cls-1"><g class="cls-2"><path class="cls-4" d="M250.13-12.58h.19a.6.6,0,0,1,0,.66c-.16-.11-.1-.46-.19-.66Z"/><path class="cls-4" d="M362.67-12.58h.86v.11c0,.51-.14-.12-.38,0,0,.27.15.34.29.44-.08.34-1-.22-.77.44-.36,0-.27-.12-.57,0,.06-.23.15-.41.48-.33l-.29-.33c.07-.38.29-.07.48,0a.56.56,0,0,0-.1-.33Z"/><path class="cls-4" d="M248.78-12.37c.11-.29.51,0,.38.33-.37.17-.2-.28-.38-.33Z"/></g><path class="cls-4" d="M249.93-11.82c-.06.36-.36.16-.58.11.08-.39.24,0,.58-.11Z"/><path class="cls-4" d="M296.19-11.71h.38c0,.17,0,.42.1.44-.13.24-.41-.25-.48-.44Z"/><path class="cls-4" d="M257.69-11.27c0-.15.24-.09.38-.11-.15.08,0,.54-.29.44,0-.16,0-.31-.1-.33Z"/><path class="cls-4" d="M263.53-11.16c.26-.08.19.22.38.22-.06.33-.2-.1-.38,0,0,.09,0,.1.1.11-.16.38-.28-.26-.1-.33Z"/><path class="cls-4" d="M299.55-11.05a.49.49,0,0,0,.38.11,1,1,0,0,0-.1.66.42.42,0,0,0-.29-.11c.19-.2,0-.4,0-.66Z"/><path class="cls-4" d="M217.56-10.62H218c-.11.16-.1.27.1.33-.19.31-.57-.07-.57-.33Z"/><path class="cls-4" d="M123.31-10.51h.29c.07.33-.1.4-.1.66-.24,0-.19-.37-.19-.66Z"/><path class="cls-4" d="M140.36-10.29c.24,0,.3.17.48.22-.08.25-.59.11-.48-.22Z"/><path class="cls-4" d="M237.87-9.09c-.13.16-.43.29-.57.11a.56.56,0,0,0,.1-.33c.29-.08.18.3.48.22Z"/><path class="cls-4" d="M418.12-9.09c.18.16.42.24.38.66h-.38a.6.6,0,0,1,0-.66Z"/><path class="cls-4" d="M298.78-8.21c.2.19.19-.08.38.11-.27.49.28.12.19.66-.29-.14-.68-.17-.57-.77Z"/><path class="cls-4" d="M186.91-8c.33-.09.37.16.67.11,0,.36-.72.27-.67-.11Z"/><path class="cls-4" d="M232.31-7.23c.24,0,.19.37.19.66-.14-.16-.35-.47-.19-.66Z"/><path class="cls-4" d="M299.83-6.68c.16.14.38.23.38.55-.28,0-.46-.14-.38-.55Z"/><path class="cls-4" d="M232.5-5.92c.27,0,.28.27.29.55a.34.34,0,0,1-.29-.55Z"/><path class="cls-4" d="M374.54-4.82a1.15,1.15,0,0,1,.29.66c-.3,0-.29-.33-.29-.66Z"/><path class="cls-4" d="M383.26-4.49c.27-.09.25.15.48.11a.25.25,0,1,1-.48-.11Z"/><path class="cls-4" d="M250.8-4.06c.43.22.53.41,1,.22.21.33-.16.74.38.77-.17.29-.57-.07-.48-.44-.15.14-.39.14-.19-.11-.3.16-.62,0-.67-.44Z"/><path class="cls-4" d="M342.65-3.07c.15.2.66,0,.58.44h-.58v-.44Z"/><path class="cls-4" d="M251.75-2.31c.22,0,.45.07.38.44-.12-.15-.51,0-.38-.44Z"/><path class="cls-4" d="M343.41-2.09c.39,0,.29.47.58.55-.3.36-1.16.69-1.34,0a1.67,1.67,0,0,0,1,0c0-.29-.13-.36-.38-.33,0-.12.19-.07.19-.22Z"/><path class="cls-4" d="M217.85.43a.76.76,0,0,0,.57.33c-.17.14-.25.37-.57.33.1-.41-.36-.17-.29-.55.14,0,.27,0,.29-.11Z"/><path class="cls-4" d="M279.43,1c-.07.22-.29.45-.48.22.08-.22.33-.39.48-.22Z"/><path class="cls-4" d="M217.08,1.08c0-.13.17-.09.29-.11s0,.1-.1.11c0,.26.44-.06.29.33-.4-.1-.47.05-.86-.11,0-.45.64.06.38-.22Z"/><path class="cls-4" d="M371,1.3c.26.4.82.45.86,1.09-.63.1-.63-.51-1.15-.55,0-.31.29-.25.29-.55Z"/><path class="cls-4" d="M141,2c.36,0,.34.34.58.44-.06.38-.74.11-.58-.44Z"/><path class="cls-4" d="M348,5.46c0,.29-.13.36-.38.33,0-.29.13-.36.38-.33Z"/><path class="cls-4" d="M163.92,5.78c.21,0,0,.39.1.55a.42.42,0,0,0-.29-.11c-.07-.3.19-.22.19-.44Z"/><path class="cls-4" d="M273.78,6.22c.29.14.31.32.1.55-.32-.1,0-.2-.1-.55Z"/><path class="cls-4" d="M275,6.66c.16.14.38.23.38.55-.27,0-.41-.19-.38-.55Z"/><path class="cls-4" d="M414.2,11.47c.23,0,.21.2.48.11v1.09c-.1-.47-.35-.77-.48-1.2Z"/><path class="cls-4" d="M413.72,11.8h.38c-.06.13,0,.81.38.77-.08.57-.43.35-.77.22.32-.31.16-.64,0-1Z"/><path class="cls-4" d="M197.06,12c.14.35-.55.53-.48.11.23,0,.21-.2.48-.11Z"/><path class="cls-4" d="M228.38,14.2c.4-.05.25.51.38.77-.34.09-.13.73.1,1-1-.13-.15-1-.48-1.75Z"/><path class="cls-4" d="M227.9,14.53c.18,0,.41,0,.38.33-.25,0-.48,0-.38-.33Z"/><path class="cls-4" d="M223,19.23c0,.35-.44.3-.67.44a.67.67,0,0,1,.67-.44Z"/><path class="cls-4" d="M87.78,22.18c.14.06.24.16.38.22.07.3-.19.22-.19.44-.16-.11-.1-.46-.19-.66Z"/><path class="cls-4" d="M89.89,22.18c.17,0,.22.19.19.44-.17,0-.2.13-.38.11-.07-.34.33-.13.19-.55Z"/><path class="cls-4" d="M89.31,22.73c.17.35.59.09.77.22,0,.2.12.23.1.44-.43.25-1,.1-.86-.66Z"/><path class="cls-4" d="M368,22.84c.26-.33.6.19.48.66-.26.08-.19-.22-.38-.22.26-.15.14-.31-.1-.44Z"/><path class="cls-4" d="M172.73,24.81c-.29-.08-.28.19-.57.11-.07-.42.61-.66.57-.11Z"/><path class="cls-4" d="M267.08,25.68c.23.06.49.09.48.44-.36.08-.47-.12-.48-.44Z"/><path class="cls-4" d="M388.91,26.67c.27.06.81-.2.67.33-.07-.08-.47-.27-.38.11-.14-.09-.3-.16-.29-.44Z"/><path class="cls-4" d="M241.7,28.31c.64-.24.17-.81.29-1.31a1.37,1.37,0,0,1,.77,1.09c-.52-.26-.48.28-1.05.22Z"/><path class="cls-4" d="M390.06,27c.08.09.26.06.29.22a.28.28,0,0,1-.48.22c-.12-.35.31-.08.19-.44Z"/><path class="cls-4" d="M384.89,28.09q.37,0,.38.44-.45.08-.38-.44Z"/><path class="cls-4" d="M242.18,28.2c.08.07.17.13.19,0,.21,0,0,.46.1.66-.17,0-.2.1-.1.11-.56.33,0-.6-.19-.77Z"/><path class="cls-4" d="M243.71,29.4c.11-.29.5,0,.67,0,0,.09,0,.1-.1.11v.22c-.29,0-.33-.28-.57-.33Z"/><path class="cls-4" d="M245.14,29.84a.79.79,0,0,0-.1.55c-.23,0-.28.19-.57.11.22-.38.33-.44.1-.87.56-.41.06.57.57.22Z"/><path class="cls-4" d="M368.51,32.46c.44-.06.53.27.86.33a1.18,1.18,0,0,1-.77.22.8.8,0,0,1-.1-.55Z"/><path class="cls-4" d="M251.47,32.68c.29.11.19.66.29,1-.29-.11-.19-.66-.29-1Z"/><path class="cls-4" d="M93.33,35.19c0,.24-.51.09-.57,0,.13-.46.31,0,.57,0Z"/><path class="cls-4" d="M118.52,36.73c.14.16.35.47.19.66a.42.42,0,0,0-.29-.11.79.79,0,0,1,.1-.55Z"/><path class="cls-4" d="M246.39,38.8c.31-.2.76.37.86.77-.4-.13-.53-.56-.86-.77Z"/><path class="cls-4" d="M214.78,43c.43.07.19.59.48,1-.33-.13-.41-.55-.48-1Z"/><path class="cls-4" d="M213.54,44.27c.2.29,0,.38-.1.77-.21,0,0-.46-.1-.66.11,0,.17,0,.19-.11Z"/><path class="cls-4" d="M116.22,45.25c-.19.18-.74.16-.67-.11.22-.25.31.2.67.11Z"/><path class="cls-4" d="M97.74,45.36a.48.48,0,0,1,.1.66c-.19-.21-.16-.38-.1-.66Z"/><path class="cls-4" d="M115.94,45.58c.27-.09.25.15.48.11,0,.33-.57.29-.48-.11Z"/><path class="cls-4" d="M115.75,45.8c.17,0,.22.19.19.44h-.29c0-.23.07-.29.1-.44Z"/><path class="cls-4" d="M137.2,46.35c.14-.32.37.14.67,0-.07.41-.46.07-.67,0Z"/><path class="cls-4" d="M115.84,46.57a.3.3,0,0,1,.19.33c-.29-.08-.28.19-.58.11v-.33c.15,0,.17.1.29.11s.07-.13.1-.22Z"/><path class="cls-4" d="M114.88,46.78c.25,0,.24.3.38.44-.22.38-.38-.21-.38-.44Z"/><path class="cls-4" d="M117.57,47.33c0,.31-.4.2-.67.22,0-.31.4-.2.67-.22Z"/><path class="cls-4" d="M139.12,48a1.28,1.28,0,0,1,.67.33c-.15.48-.65,0-.67-.33Z"/><path class="cls-4" d="M137.3,49.19h.29c0,.29,0,.47.29.44-.12.19-.2.43-.48.44.07-.41-.16-.47-.1-.87Z"/><path class="cls-4" d="M138,50.83c.25,0,.32.29.38.55a.53.53,0,0,1-.38-.55Z"/><path class="cls-4" d="M306.35,51.7l.57.33c-.17.29-.63,0-.57-.33Z"/><path class="cls-4" d="M304.24,52.36c.14-.33.42.09.67,0-.21.27-.44.17-.67,0Z"/><path class="cls-4" d="M233.36,53.67c0,.86-.81.83-1.44,1,.25-.54.82-1.22,1.44-1Z"/><path class="cls-4" d="M238.15,54.11a.72.72,0,0,1-.77.33c.09-.3.48-.25.77-.33Z"/><path class="cls-4" d="M236.24,54.44c.41.39-1,.57-1.53.55.4-.31,1.11-.26,1.53-.55Z"/><path class="cls-4" d="M294.38,58.26c.19.11.15.48.48.44-.07.38-.29.07-.48,0v-.44Z"/><path class="cls-4" d="M275.12,60.56c.35-.07.38.23.38.55-.3,0-.33-.28-.38-.55Z"/><path class="cls-4" d="M251.27,61.33c.2.15-.09.38.1.66-.52.12-.23-.56-.1-.66Z"/><path class="cls-4" d="M330.48,66.68H331c.08.45-.15.56-.48.55v-.55Z"/><path class="cls-4" d="M348.78,67.23c.21,0,0,.46.1.66a1.32,1.32,0,0,0-.77-.44c0-.47.5.16.67-.22Z"/><path class="cls-4" d="M272.06,67.67c.14.1.3.16.29.44-.23,0-.21-.2-.48-.11,0-.14.17-.17.19-.33Z"/><path class="cls-4" d="M148.69,69.42a.86.86,0,0,1-.67-.66c.25-.18.58.31.67.66Z"/><path class="cls-4" d="M267.75,69c.12.46-.32.29-.38.55-.26-.2.06-.65.38-.55Z"/><path class="cls-4" d="M167.66,70.4c1.67-.62,4.06-.39,6.13-.87.11,0,.24.19.1.22a48.75,48.75,0,0,1-6.23.66Z"/><path class="cls-4" d="M321.86,70.62h.29c0,.31-.17.47-.48.44-.12-.35.31-.08.19-.44Z"/><path class="cls-4" d="M233.65,70.73c.39,0,.69.16.67.66-.3-.14-.72-.13-.67-.66Z"/><path class="cls-4" d="M254.72,72.26c.15-.27.43.23.67.22,0,.24-.34,0-.48.11s-.06-.3-.19-.33Z"/><path class="cls-4" d="M279.24,72.48c.22,0,.45.07.38.44a.56.56,0,0,1-.48-.11.56.56,0,0,0,.1-.33Z"/><path class="cls-4" d="M237,72.7c.41-.25,1,.27,1.34.44-.43.27-.95-.3-1.34-.44Z"/><path class="cls-4" d="M258.46,72.7c.13,0,.15.19.29.22-.15.2-.57.31-.57-.11.14,0,.27,0,.29-.11Z"/><path class="cls-4" d="M385.08,74.56V75h-.38c-.07-.37.16-.4.38-.44Z"/><path class="cls-4" d="M385.37,75c.1,0,.06.22.19.22a.79.79,0,0,1-.67.22c0-.33.48-.11.48-.44Z"/><path class="cls-4" d="M161.53,75.65c.14.06.24.16.38.22a.45.45,0,0,1-.48.22c0-.23.07-.29.1-.44Z"/><path class="cls-4" d="M411.8,75.87c.48.27-.1.93-.38.44.22-.37.61.12.38-.44Z"/><path class="cls-4" d="M322.73,76H323c0,.41.11.31,0,.66-.13,0-.08-.27-.1-.44-.16,0-.18-.08-.19-.22Z"/><path class="cls-4" d="M381.82,76.41c.31,0,.46.45.29.66-.2-.1-.29-.32-.29-.66Z"/><path class="cls-4" d="M234.32,77.29c.27,0,.52,0,.48.33-.27,0-.52,0-.48-.33Z"/><path class="cls-4" d="M251.27,78.38c-.6.79-1.78-.19-2.2-.66.63-.08,1.38.6,2.2.66Z"/><path class="cls-4" d="M251.27,78.71a5.91,5.91,0,0,1,2.68.77c-.77.44-2.09-.29-2.68-.77Z"/><path class="cls-4" d="M239.21,79.26a2,2,0,0,1,.77.66c-.21.16-.83-.14-.77-.66Z"/><path class="cls-4" d="M259.13,81.66c-1.52-.19-3.23-1.13-4.79-1.64.09-.33.6-.43.67,0a16.32,16.32,0,0,1,4.12,1.64Z"/><path class="cls-4" d="M277.23,81.66c.22,0,.11.32.29.33-.15.35-.58-.14-.29-.33Z"/><path class="cls-4" d="M260.09,82A166.88,166.88,0,0,0,287,90.52c-9.77-1.34-18.44-4.9-26.72-8.31-.16,0-.18-.09-.19-.22Z"/><path class="cls-4" d="M296.67,82.43c.15,0,.17.1.29.11,0,.29-.13.36-.38.33,0-.23.07-.29.1-.44Z"/><path class="cls-4" d="M327.71,84.4c.2.26.49-.22.48.33-.42-.16-.44.37-.67.11,0-.17.3-.09.19-.44Z"/><path class="cls-4" d="M328.47,84.5c.15-.27.43.23.67.22-.24.37-.54-.1-.67-.22Z"/><path class="cls-4" d="M413.14,85.27c.29.07.32.44.29.87-.19,0-.12-.3-.38-.22,0-.39.26-.27.1-.66Z"/><path class="cls-4" d="M367.36,89.21c0,.22-.26.14-.19.44-.14-.1-.37-.09-.29-.44a.33.33,0,0,1,.48,0Z"/><path class="cls-4" d="M270,91c.31-.09.3.17.48.22,0,.34-.14.43-.19.66-.42-.05-.48.15-.77,0,.12-.57.54-.25.48-.87Z"/><path class="cls-4" d="M351.08,91.28h.29c0,.17,0,.42.1.44-.12.27-.46-.12-.38-.44Z"/><path class="cls-4" d="M366.59,91.39c.27.17.75.54.58.87-.2-.28-.49-.46-.58-.87Z"/><path class="cls-4" d="M314.39,92.16a1,1,0,0,1,.57,1.2,1.11,1.11,0,0,0-1.15-.66c.21-.24.88,0,.57-.55Z"/><path class="cls-4" d="M367.26,92.92a1.69,1.69,0,0,1,.77,1c-.18,0-.08.42-.38.33.19-.41-.22-1-.38-1.31Z"/><path class="cls-4" d="M260.76,93.8H261c-.23.15.17.33-.1.44h-.19V93.8Z"/><path class="cls-4" d="M352.61,94.24c-.16,0-.18.08-.19.22-.32-.1,0-.2-.1-.55.21,0,.3.09.29.33Z"/><path class="cls-4" d="M366.21,94.89a.42.42,0,0,0,.29.11c-.16.22,0,.14,0,.44-.28-.15-.42.06-.86,0a.56.56,0,0,0,.1-.33.28.28,0,0,0,.48-.22Z"/><path class="cls-4" d="M220.53,95.66c.31.08.15.71.48.77a.29.29,0,0,1-.48.11,1.2,1.2,0,0,0,0-.87Z"/><path class="cls-4" d="M251.75,96.2c-.33.26-.42.16-1,.22.14-.3.46-.14,1-.22Z"/><path class="cls-4" d="M220,96.31h.19c0,.09,0,.1.1.11v.22c-.08,0-.09,0-.1.11H220c0-.09,0-.1-.1-.11v-.22c.08,0,.09,0,.1-.11Z"/><path class="cls-4" d="M170.15,96.64c.24.12.28.48.29.87-.23-.14-.18-.59-.29-.87Z"/><path class="cls-4" d="M376.65,96.64c.29,0,.33.28.57.33,0,.21-.32.08-.29.33a1.15,1.15,0,0,1-.29-.66Z"/><path class="cls-4" d="M220.53,97c.31-.47.39.81-.1.66-.07-.27.42-.45.1-.66Z"/><path class="cls-4" d="M220.15,97.41c-.19.32,0,.35-.29.55-.25,0-.25-.23-.29-.44.11-.13.34-.12.57-.11Z"/><path class="cls-4" d="M161.34,97.52a1.89,1.89,0,0,1-1.15.33c.18-.34.74-.25,1.15-.33Z"/><path class="cls-4" d="M255.39,97.73c.27-.09.25.15.48.11,0,.45-.13.43,0,.77-.43,0-.23-.69-.48-.87Z"/><path class="cls-4" d="M232.21,99.27c.2,0,.19.3.38.33,0,.26-.44-.06-.29.33-.2,0-.25-.07-.38-.11-.21.16.1.31-.19.44,0,.36.29.47.48.66-.88.12-.67-1.56,0-1.64Z"/><path class="cls-4" d="M287.67,100.8c.2,0,.25.07.38.11,0,.14-.17.17-.19.33a.5.5,0,0,1-.19-.44Z"/><path class="cls-4" d="M342.17,100.8c.25,0,.48,0,.38.33-.25,0-.41,0-.38-.33Z"/><path class="cls-4" d="M256.54,100.9c0,.13,0,.19.1.22-.2.25-.49-.15-.57.33-.1,0-.07-.22-.19-.22.09-.27.39-.29.67-.33Z"/><path class="cls-4" d="M256.16,101.56c.29-.08.35.11.58.11-.27.12-.35.3-.19.66-.16.18-.56.09-.86.11,0-.2.12-.23.1-.44.2.29.17.32.57.22,0-.34-.29-.25-.19-.66Z"/><path class="cls-4" d="M258.55,101.67c.07.38-.34.39-.48.22.08-.16.31-.16.48-.22Z"/><path class="cls-4" d="M258.65,102.11c.26.17.51-.09.77.22-.11,0-.84.37-.77-.22Z"/><path class="cls-4" d="M266.6,103.75c.22.07.48.33.29.55a.47.47,0,0,1-.29-.55Z"/><path class="cls-4" d="M304.14,103.86c.1,0,.06.22.19.22-.33.28-.4.86-.77,1.09,0-.39.25-.58.19-1.09.22,0,.45.27.38-.22Z"/><path class="cls-4" d="M232.31,105.06c.15,0,.17.1.29.11-.08.16-.08.42-.38.33,0-.23.07-.29.1-.44Z"/><path class="cls-4" d="M378.37,105.72c-.35-.17-1.21.56-1.34-.11.54.08,1.09-.57,1.34.11Z"/><path class="cls-4" d="M336.9,105.61c.24,0,.3.17.48.22,0,.32-.58.21-.48-.22Z"/><path class="cls-4" d="M376.65,105.72c.1.07.1.25.29.22,0,.15-.49.22-.19.33-.27.37-.19-.4-.1-.55Z"/><path class="cls-4" d="M338.43,106c0,.87-.65.16-.86,0,.2-.48.42.34.86,0Z"/><path class="cls-4" d="M336.61,106.59c.24-.22.36.07.86,0-.07.34.26.21.19.55-.09,0-.17.1-.19.22-.21,0,0-.39-.1-.55-.06.15-.37,0-.38.22-.15,0-.08-.34-.38-.22.06-.1.12-.2,0-.22Z"/><path class="cls-4" d="M271.29,106.92c.17.27.65.2.67.66-.12-.15-.47-.17-.48.11-.17-.13-.08-.57-.19-.77Z"/><path class="cls-4" d="M338.15,108.12c.14.27.45.36.48.77-.33-.12-.73-.28-.48-.77Z"/><path class="cls-4" d="M276.37,109.21c.14.13.43.09.38.44a.41.41,0,0,0-.38.22c-.21,0-.08-.58,0-.66Z"/><path class="cls-4" d="M404.43,112.49c.24,0,.19.37.19.66-.16-.14-.38-.23-.38-.55.11,0,.17,0,.19-.11Z"/><path class="cls-4" d="M81.55,113.26c-.38.22,0,.41.29.44-.1.36-.29,0-.57.22-.18-.22-.14-.8.29-.66Z"/><path class="cls-4" d="M403.85,113.48h.29c-.07.33.1.4.1.66-.3,0-.3-.39-.38-.66Z"/><path class="cls-4" d="M355.87,115.12c.31.21,0,.5.19.87-.24-.12-.22-.56-.38-.77.11,0,.17,0,.19-.11Z"/><path class="cls-4" d="M111.92,115.34c.27.12.35.83.29,1a.42.42,0,0,0-.29-.11c.09-.43-.21-.63,0-.87Z"/><path class="cls-4" d="M267.46,115.56c.15,0,.08.34.38.22.36.22-.46,0-.38.22-.11,0-.08-.2-.1-.33s.09,0,.1-.11Z"/><path class="cls-4" d="M266.6,116c.25,0,.41,0,.38.33-.25,0-.41,0-.38-.33Z"/><path class="cls-4" d="M355.77,116.32c.34,0,.32.37.57.44-.2.3-.57-.14-.57-.44Z"/><path class="cls-4" d="M357.59,116.76c.18.12.2.42.38.55-.17.29-.43-.23-.57-.33,0-.12.19-.07.19-.22Z"/><path class="cls-4" d="M112.3,117.52c.31-.15.24.65.1.66-.35.1-.17-.58-.1-.66Z"/><path class="cls-4" d="M279.43,119.71c-.08.11-.69.46-.67,0,.28-.15.25,0,.67,0Z"/><path class="cls-4" d="M283.26,120.26c.14.17.49.1.77.11,0,.37-.78.24-.77-.11Z"/><path class="cls-4" d="M280.3,121.13c0-.54.2-.54.57-.44-.14.21-.21.48-.57.44Z"/><path class="cls-4" d="M366.78,120.69c.35.1.06.32.1.66-.24-.15-.17-.38-.1-.66Z"/><path class="cls-4" d="M280.49,121.57a.56.56,0,0,1-.48-.11.68.68,0,0,0,.1-.44,1,1,0,0,1,.38.55Z"/><path class="cls-4" d="M407.11,123.32c.37,0,0,.55.19.55,0,.09,0,.1-.1.11H407c.14-.33,0-.43.1-.66Z"/><path class="cls-4" d="M387.09,123.65c.35,0,.14.64.58.55-.29.39-.81-.31-.58-.55Z"/><path class="cls-4" d="M200.89,125.4c-.06,0-.11,0-.1-.11h.29v-.44c-.23,0-.21.2-.48.11,0,.2.2.7.29.44Zm.38-.87a2.75,2.75,0,0,1,.19.66c.15,0,.08-.34.38-.22v.44c-.28,0-.49,0-.57-.22-.24.13-.17.47,0,.66-.08-.45.52-.42.48.22a.41.41,0,0,0-.38.22c-.25-.41-.91-.34-1-1a.49.49,0,0,1-.38.11c.23-.25.19-.4-.19-.44.07-.09.15-.3,0-.33.41-.53.74-.07,1.44-.11Z"/><path class="cls-4" d="M283.17,125.72c.26.14.56.23.48.77h-.48c-.13-.35,0-.37,0-.77Z"/><path class="cls-4" d="M202.62,125.94c0,.4-.35.33-.57.44v-.33c.25.29.29-.13.57-.11Z"/><path class="cls-4" d="M285.66,126.6c.23,0,.28.19.57.11-.08.31.13.28.1.55a.4.4,0,0,1-.67-.22c-.13.18.05.61-.48.55.12-.37.34-.63.48-1Z"/><path class="cls-4" d="M313.72,127.58c.14-.26.48.17.48.44-.27,0-.26-.36-.48-.44Z"/><path class="cls-4" d="M401.07,127.47c.26.1-.22.44.29.33,0,.24-.47,0-.67.11-.1-.41.32-.21.38-.44Z"/><path class="cls-4" d="M400.4,128.46c.24,0,.19.37.19.66-.36,0-.27-.39-.19-.66Z"/><path class="cls-4" d="M400.88,128.46h.48c.1.37-.3.17-.48.22v-.22Z"/><path class="cls-4" d="M291.12,128.89c0-.13.17-.09.29-.11,0,.23.07.29.1.44.13-.13.15,0,.29,0-.27.37-.55-.16-.67-.33Z"/><path class="cls-4" d="M294.76,129.22c-.17.17-.41.27-.58.44-.2-.17.27-.49.58-.44Z"/><path class="cls-4" d="M294.66,130.1c-.13,0-.08-.27-.1-.44.13.11.35.11.48.22,0,.43-.3-.08-.38.22Z"/><path class="cls-4" d="M290.26,130.86c.16-.32.08.56.1.77.15,0,.16-.1.29-.11-.06-.36-.28-.37-.1-.76H291c-.33.28-.09.61,0,1-.45.11-.29.24-.77.33-.12-.19.07-.73,0-1.2Z"/><path class="cls-4" d="M318.42,130.75c.19,0,.17.77-.19.55,0-.27.15-.34.19-.55Z"/><path class="cls-4" d="M291,131.08c.52,0,.67.47,1,.77.17-.1.24-.31.57-.22,0,.3,0,.7.58.66,0,.23-.42,0-.38.33-.24-.09-.24-.45-.38-.66-.55.19-1-.53-1.34-.87Z"/><path class="cls-4" d="M291.12,131.63c.2.06.27.27.57.22-.16.22,0,.14,0,.44h-.48a1,1,0,0,1-.1-.66Z"/><path class="cls-4" d="M323.3,132.5c-.3-.23-1.11-.2-.38-.44.11.16.4.13.38.44Z"/><path class="cls-4" d="M290,132.5c.12.15.45.07.58.22-.35.28-.57,0-.86.33,0-.13,0-.19-.1-.22,0-.23.42,0,.38-.33Z"/><path class="cls-4" d="M352.8,133.38c.2.24.27-.05.58,0,.14.34-.71.34-.58,0Z"/><path class="cls-4" d="M333.26,135.24c.23-.4.17.45.38.44-.25.42-.25-.36-.38-.44Z"/><path class="cls-4" d="M393.7,137.64c.08.31-.13.28-.1.55-.3.05-.25-.29-.48-.33.1-.18.41-.12.57-.22Z"/><path class="cls-4" d="M317.36,138.08c.49-.65.77.64,0,0Z"/><path class="cls-4" d="M242.46,138.84a1.44,1.44,0,0,1-1.44.55c.42-.37.89-.28,1.44-.55Z"/><path class="cls-4" d="M255.68,139.06c.25,0,.46.56.57.33.29.54-.61.12-.57-.33Z"/><path class="cls-4" d="M238.82,139.83c-.07.53-1.1.46-1.34.44a2.39,2.39,0,0,1-1.63.44,12.43,12.43,0,0,1,3-.87Z"/><path class="cls-4" d="M282.5,140.16c.2.42-.84.35-1.15.55.13-.47.88-.24,1.15-.55Z"/><path class="cls-4" d="M234.51,141.25c-.1.47-.79.27-1.15.44a1.08,1.08,0,0,1,1.15-.44Z"/><path class="cls-4" d="M269.66,142.34c-.21.31-.83.15-1.15.33.13-.4.71-.29,1.15-.33Z"/><path class="cls-4" d="M267.94,142.67c-.41.22-1.51.92-1.72.33.71,0,1-.34,1.72-.33Z"/><path class="cls-4" d="M265.07,143.55a17,17,0,0,1-3.74.87,9.89,9.89,0,0,1,3.74-.87Z"/><path class="cls-4" d="M261,144.42a13.78,13.78,0,0,1-3,.44,10,10,0,0,1,3-.44Z"/><path class="cls-4" d="M283.07,144.31c.27,0,.28.27.29.55-.2-.07-.36-.17-.29-.55Z"/><path class="cls-4" d="M379.43,144.42c.25,0,.41,0,.38.33-.25,0-.41,0-.38-.33Z"/><path class="cls-4" d="M257.31,145a1.77,1.77,0,0,1-1.44.11,1.83,1.83,0,0,1,1.44-.11Z"/><path class="cls-4" d="M200.7,145.08c.15-.32.64.16.38.33s-.13-.36-.38-.33Z"/><path class="cls-4" d="M253.57,145.51a5.05,5.05,0,0,0-1.15-.11c-.05,0,1.18-.48,1.15.11Z"/><path class="cls-4" d="M203.1,145.29c-.09.19-.18.38-.48.33,0-.31.23-.32.48-.33Z"/><path class="cls-4" d="M283.74,146.5c.23.15-.17.33.1.44-.13.28-.59,0-.77,0,.13-.26.43-.31.67-.44Z"/><path class="cls-4" d="M229.92,146.72c.56.24-.39.51-.58.22,0-.31.59.09.58-.22Z"/><path class="cls-4" d="M354.43,150.43a.79.79,0,0,0-.1.55c-.27-.11-.43-.65.1-.55Z"/><path class="cls-4" d="M384.5,151.42c.14-.32.39.13.29.44-.38.18,0-.47-.29-.44Z"/><path class="cls-4" d="M304.14,152.62c.08,0,.1.11.19.11v.22c-.28-.32-.17.27-.48.22,0-.34.26-.29.29-.55Z"/><path class="cls-4" d="M355.1,153.28c.37,0,.49.67.38.87-.15-.27-.38-.45-.38-.87Z"/><path class="cls-4" d="M320,153.39q.45-.08.38.44c-.08-.08-.26-.17-.29,0-.13,0-.08-.27-.1-.44Z"/><path class="cls-4" d="M375.4,155.13c.43,0,.26.65.38,1-.51-.13-.12-.63-.38-1Z"/><path class="cls-4" d="M374.93,155.24h.29c0,.66.37.81.48,1.31-.27.17-.39,0-.77.11,0-.16,0-.31-.1-.33,0-.27.32,0,.38,0a2,2,0,0,0-.1-.77c-.29-.08-.12.38-.48.22-.18-.5.38-.15.29-.55Z"/><path class="cls-4" d="M230.78,157.76a1.74,1.74,0,0,1,.48,1.09c-.16-.36-.56-.46-.48-1.09Z"/><path class="cls-4" d="M265.64,158.52c.2,0,.25.22.38.33,0,.23-.36.1-.38.33-.33-.23,0-.32,0-.66Z"/><path class="cls-4" d="M265.64,159.4c-.13.16-.43.29-.58.11.06-.36.36-.16.58-.11Z"/><path class="cls-4" d="M167.37,159.73a4.3,4.3,0,0,1-1.25,1.09,3.21,3.21,0,0,1,1.25-1.09Z"/><path class="cls-4" d="M247.35,160.6c.18-.36.26-.09.67-.11a.38.38,0,0,1-.67.11Z"/><path class="cls-4" d="M381.82,160.49h.29c-.07.33.17.32.1.66-.31,0-.42-.25-.38-.66Z"/><path class="cls-4" d="M247.44,160.71c-.12.34-.2.06-.48.22a.28.28,0,0,1,.48-.22Z"/><path class="cls-4" d="M341.21,162.13c.27.13.29.54.38.87-.27-.12-.66-.48-.38-.87Z"/><path class="cls-4" d="M364.29,162.46v.44c-.25,0-.41,0-.38-.33a.49.49,0,0,1,.38-.11Z"/><path class="cls-4" d="M264.4,162.68c.19-.31.6,0,.86,0-.19.31-.6,0-.86,0Z"/><path class="cls-4" d="M171.2,162.79c.32-.11.15.34.19.55-.33.08-.34-.38-.19-.55Z"/><path class="cls-4" d="M268.23,163.23a6,6,0,0,1-2.49-.33c-.85-.19.25-.11.29-.11.29,0,1.62.41,2.2.44Z"/><path class="cls-4" d="M340.83,162.9c.16.07.06.25-.1.22a.77.77,0,0,1,0,.55c-.25-.14-.29-.36-.19-.66.14,0,.27,0,.29-.11Z"/><path class="cls-4" d="M280.39,166.72a116.37,116.37,0,0,0-11.49-3.17c-1.25-.29.68-.09,1.15,0a51.55,51.55,0,0,1,10.34,3.17Z"/><path class="cls-4" d="M317,169.24c.21,0,.21.28.19.55-.39,0-.25-.28-.19-.55Z"/><path class="cls-4" d="M317.55,170.66c.19.18.12,0,.38,0,.1.28-.32.49-.38.22v-.22Z"/><path class="cls-4" d="M283.07,172.41c-.28.31-.68-.17-1.05-.11.17-.46.63.19,1.05.11Z"/><path class="cls-4" d="M85.1,175c-.21.33-.54-.11-.86,0,.17-.37.62-.14.86,0Z"/><path class="cls-4" d="M415.54,175.91c.08.09.26.06.29.22.09,0,.07-.13.1-.22s.09,0,.1.11v.22c-.25,0-.6.1-.48-.33Z"/><path class="cls-4" d="M321.67,178.2c1.25-.3,2.61.23,3.83.33a21.62,21.62,0,0,1-3.83-.33Z"/><path class="cls-4" d="M134.81,179.52a1.12,1.12,0,0,1,.19,1.09c-.2,0-.19-.3-.38-.33,0-.34.3-.31.19-.77Z"/><path class="cls-4" d="M314.49,179.52c.38.16-.11.78-.1,1.2-.39-.28.05-.78.1-1.2Z"/><path class="cls-4" d="M134.33,180.28c-.21,0-.21-.28-.19-.55.33-.18.54.06.38.44-.25-.15-.3-.35-.19.11Z"/><path class="cls-4" d="M315,179.84c.17.13.08.57.19.76-.22-.08-.21-.42-.48-.44,0-.26.44.06.29-.33Z"/><path class="cls-4" d="M319,180.06c.08.31-.13.28-.1.55-.14-.09-.3-.16-.29-.44a.49.49,0,0,1,.38-.11Z"/><path class="cls-4" d="M320.24,180.5c.21,0,0,.46.1.66-.38-.18-.2-.29-.1-.66Z"/><path class="cls-4" d="M315,180.72c.42,0,0,.66,0,.87a.42.42,0,0,0-.29-.11.78.78,0,0,0,.29-.77Z"/><path class="cls-4" d="M319.18,180.72a2.34,2.34,0,0,0,.77.33c-.2.26-.81.06-.77-.33Z"/><path class="cls-4" d="M129.63,181.16c0,.21-.32.08-.29.33-.45-.12,0-.69.29-.33Z"/><path class="cls-4" d="M320.52,182c.36.08.12.59-.19.55,0-.21.21-.27.19-.55Z"/><path class="cls-4" d="M84.81,182.47c-.22,0-.36-.17-.67-.11,0-.29.66-.2.67.11Z"/><path class="cls-4" d="M303.19,182.25q.45-.08.38.44-.45.08-.38-.44Z"/><path class="cls-4" d="M315.45,182.58c.22,0,.22.29.1.44s-.31-.09-.29-.33c.08,0,.09,0,.1.11s.07-.13.1-.22Z"/><path class="cls-4" d="M317.27,183.78c.29-.08.18.3.48.22,0,.36-.51.12-.48-.22Z"/><path class="cls-4" d="M261.62,184c.37-.06.08.63.38.66-.21.3-.49-.24-.38-.66Z"/><path class="cls-4" d="M131.36,185.86c.56,0-.06.61.48.55-.07.34-.26.14-.48.11v-.66Z"/><path class="cls-4" d="M132,186.08a.49.49,0,0,0,.38.11c.31.19-.5,0-.38.33-.24,0,0-.37,0-.44Z"/><path class="cls-4" d="M371.86,186.08c0,.25-.06.51-.38.44q0-.42.38-.44Z"/><path class="cls-4" d="M272.92,187c.21.21.22.55.57.33-.05.27-.08.56-.38.55a1.89,1.89,0,0,1-.19-.87Z"/><path class="cls-4" d="M372.44,187.39c.14-.32.39.13.29.44-.2.08-.38.34-.57.11.2-.09.77-.32.29-.55Z"/><path class="cls-4" d="M373.59,187.28c.11,0,.08.2.1.33H373c.06-.49.51.16.57-.33Z"/><path class="cls-4" d="M348.4,189.25a.41.41,0,0,0,.29.11c0,.29-.13.36-.38.33a.68.68,0,0,0,.1-.44Z"/><g class="cls-2"><path class="cls-4" d="M292.27,193.51c0,.13,0,.19-.1.22s.17.09.29.11c-.09.64-.73-.3-.19-.33Z"/><path class="cls-4" d="M421.28,194.93h.29c0,.26-.17.24-.1.55a.57.57,0,0,1-.19-.55Z"/></g><path class="cls-4" d="M313.82,195.48c0-.13.17-.09.29-.11,2.79,2.24,6.41,3.54,9.29,5.69a75.17,75.17,0,0,1-9.58-5.58Z"/><path class="cls-4" d="M307.31,203.79c-.07.22-.29.45-.48.22,0-.24.24-.23.48-.22Z"/><path class="cls-4" d="M306.16,204q.45-.08.38.44c-.11-.16-.4-.13-.38-.44Z"/><path class="cls-4" d="M296.19,204.12c.36,0,.45.29.48.66a2,2,0,0,1-.48-.66Z"/><path class="cls-4" d="M295.91,204.23c.16.09.06.79-.19.77a4.56,4.56,0,0,1,.19-.77Z"/><path class="cls-4" d="M119,204.45c.17.1.37.24.19.44s-.34-.28-.19-.44Z"/><path class="cls-4" d="M283.36,205c.38.27.16.5.67.22.07.34-.54.47-.19.77-.47.25-.35-.45-.48-1Z"/><path class="cls-4" d="M282.79,205.1c.25.08.33.35.29.77-.23-.1-.25-.44-.29-.77Z"/><path class="cls-4" d="M136.34,206.63c.13-.28.59,0,.77,0-.11.45-.47,0-.77,0Z"/><path class="cls-4" d="M91.71,207.07c.27.05.28.42.38.66-.32,0-.37-.31-.38-.66Z"/><path class="cls-4" d="M93,207.83h.38v.44c0-.25-.42-.1-.38-.44Z"/><path class="cls-4" d="M92.66,209.69c.37.45-.89.43-1,.11.48-.28.5,0,1-.11Z"/><path class="cls-4" d="M403.09,212.21c.3,0,.29.33.29.66-.19-.13-.52-.37-.29-.66Z"/><path class="cls-4" d="M65.27,213a1.07,1.07,0,0,1,.57.87c-.39,0-.32-.51-.67-.55a.56.56,0,0,0,.1-.33Z"/><path class="cls-4" d="M261.91,217.78c.23.16.39.78.57.11.33.31-.19.58-.38.66a.6.6,0,0,1-.19-.77Z"/><path class="cls-4" d="M298.4,217.89c-.24.19-.1.14-.1.55-.33.08-.16-.4-.38-.44,0-.28.36-.26.48-.11Z"/><path class="cls-4" d="M166.8,221.5c-.88.21-1.95-.33-2.78-.55.63-.35,1.93.41,2.78.55Z"/><path class="cls-4" d="M359.22,221.61c.21,0,0,.46.1.66-.23-.21-.91.1-.86-.44.25.11.76.23.77-.22Z"/><path class="cls-4" d="M377.61,221.61a2.18,2.18,0,0,1,.38.77c-.23-.23-.2-.16-.57-.11,0-.34.14-.43.19-.66Z"/><path class="cls-4" d="M268.71,221.72H269c-.22.08.09.76-.29.66v-.66Z"/><path class="cls-4" d="M377.51,222.38c.25,0,.31.15.29.44-.25,0-.31-.15-.29-.44Z"/><path class="cls-4" d="M359,222.7c.33,0,.42.33.48.66-.16-.22-.44-.3-.48-.66Z"/><path class="cls-4" d="M187.29,226.09c.34.21,1.12,0,1.63.22-.22.35-1.48.22-1.63-.22Z"/><path class="cls-4" d="M327.42,230.14c-.16.08-.68-.19-.86-.44.24-.16.75.11.86.44Z"/><path class="cls-4" d="M326.17,230.14c-.12.3-.52.28-.86.33,0-.2.12-.23.1-.44.45,0,.54-.19.77.11Z"/><path class="cls-4" d="M326.56,230.36c-.15.14-.36.47-.58.22.2-.09.4-.41.58-.22Z"/><path class="cls-4" d="M315.45,230.79c.16.19.6,0,.57.44-.36,0-.56-.09-.57-.44Z"/><path class="cls-4" d="M153.67,234.4c-.15.41-1.08.51-1.34.44.18-.45.82-.37,1.34-.44Z"/><path class="cls-4" d="M316,235.28c.32,0,.11.58-.19.55,0-.27.15-.34.19-.55Z"/><path class="cls-4" d="M148,235.71a8.17,8.17,0,0,1-2.68,1,9.16,9.16,0,0,1,2.68-1Z"/><path class="cls-4" d="M99.56,237.79c.39-.09.49.17.86.11a5.31,5.31,0,0,1-1.25.55c-.15-.8.68,0,.38-.66Z"/><path class="cls-4" d="M362.86,239c.29-.23.46.48.19.76-.29-.22.18-.64-.19-.76Z"/><path class="cls-4" d="M324.64,240.42c-.53.19,0,1-.38,1.2-.08-.17-.11-1.68.38-1.2Z"/><path class="cls-4" d="M325.12,241.07c.32.1,0,.2.1.55-.15,0-.16-.1-.29-.11v-.22c.16,0,.18-.09.19-.22Z"/><path class="cls-4" d="M264.78,242.6c.23.33.63.45.67,1-.45,0-.34-.56-.86-.44-.07-.34.26-.21.19-.55Z"/><path class="cls-4" d="M267.56,243.7a.79.79,0,0,1,.38.77.79.79,0,0,1-.38-.77Z"/><path class="cls-4" d="M265.74,244.24c.4-.27.8.4.67,1.09-.23,0-.21-.2-.48-.11,0,.28.18.38.29.55s-.24.09-.38.11a2,2,0,0,1,.1.76c-.53-.06,0-1.36-.67-1.2.25-.52-.19-.73,0-1.09.36,0,.5.66.86.33a.94.94,0,0,0-.38-.44Z"/><path class="cls-4" d="M384.6,244.57c-.1.15-.26.21-.29.44-.08,0-.1-.11-.19-.11v-.22c.23,0,.21-.2.48-.11Z"/><path class="cls-4" d="M258.55,245.23c.25-.32.41.4.38.77-.48-.08,0-.61-.38-.77Z"/><path class="cls-4" d="M382.11,245.12c.43,0-.08,1.11.48,1,0,.26-.44-.06-.29.33-.36-.1-.12-.88-.19-1.31Z"/><path class="cls-4" d="M270.62,245.45c0-.15.24-.09.38-.11a.54.54,0,0,1-.1.66c-.3.05-.07-.5-.29-.55Z"/><path class="cls-4" d="M383.45,246.43c-.1.18-.41.12-.58.22-.12-.27.21-.53,0-.55.21,0,.52-.2,1,.11.05.44-.69,0-.38.22Z"/><path class="cls-4" d="M382.49,247c-.08,0-.09,0-.1-.11s-.05.11,0,.11c-.11.42-.37-.42-.48,0-.21,0,0-.39-.1-.55.26,0,.33.17.19.33.27,0,.19-.37.57-.22,0,.2-.12.23-.1.44Z"/><path class="cls-4" d="M386.23,246.65c-.11.11-.36.6-.1.77-.09.21-.58-.05-.57-.33.35.07.27-.33.67-.44Z"/><path class="cls-4" d="M264.2,249.93c.24-.13.3-.46.48-.66a1.68,1.68,0,0,0-.38-.33c.31-.08.34-.42.19-.77.21-.24.32.19.57.22a4.42,4.42,0,0,0-.19,1.42c-.35-.08-.37.45-.67.11Z"/><path class="cls-4" d="M264.3,250c.17.18-.09.37,0,.77-.27.09-.25-.15-.48-.11.16-.22.14-.64.48-.66Z"/><path class="cls-4" d="M379.91,250.15c.38,0,.5.38.67.66a1,1,0,0,1-.67-.66Z"/><path class="cls-4" d="M177.81,250.37c.22-.5.53.75.1.66.16-.17,0-.51-.1-.66Z"/><path class="cls-4" d="M382.59,251.57H383c.08.42-.46.42-.38,0Z"/><path class="cls-4" d="M319.47,253.54c.24-.43.49.59,0,.44,0-.07.24-.42,0-.44Z"/><path class="cls-4" d="M161.43,255.61a.3.3,0,0,1,.19.22v2.08c.07.51-.16.51-.1,0v-1a5.21,5.21,0,0,1-.1-1.31Z"/><path class="cls-4" d="M401.17,255.72c0,.11-.69.3-.67.76-.29-.41.15-.92.67-.76Z"/><path class="cls-4" d="M254.05,262c-.1.27-.42-.21-.38.33-.27,0-.12-.52-.48-.44.29-.44.5,0,.86.11Z"/><path class="cls-4" d="M189.4,265c.11.56.46.87.57,1.42-.33-.09-.37.16-.67.11a.27.27,0,0,1,.29-.22c0-.14-.17-.17-.19-.33-.3-.05-.07.5-.29.55s-.31-.37-.48-.55a1,1,0,0,0,0-1.09c.22-.24.32.28.77.11Z"/><path class="cls-4" d="M141.22,265.45a11.65,11.65,0,0,1,.1,2.51,11.65,11.65,0,0,1-.1-2.51Z"/><path class="cls-4" d="M161.62,267.53c.22.11.2.5.19.87-.34-.17,0-.47-.19-.87Z"/><path class="cls-4" d="M112.3,268.84a9.2,9.2,0,0,1,4.88.87c-1.5,0-3.2-.71-4.88-.87Z"/><g class="cls-2"><path class="cls-4" d="M141.32,270.81h-.19c.07-.65,0-.95,0-1.75.34.43,0,1.16.19,1.75Z"/><path class="cls-4" d="M264.3-12.58c0,.11-.12.08-.19.11,0,.27.15.34.29.44-.16.38-.19-.27-.38-.22s.2.57-.1.77c-.19-.44-.78-.42-1.15-.66,0,0,.59-.06.1-.22.11-.25.37.15.48-.22Z"/></g><path class="cls-4" d="M248.59-12.37c.23.24-.36.91-.57.66.21-.2.47-.33.57-.66Z"/><path class="cls-4" d="M297.15-10a4.79,4.79,0,0,1-.29-.66c.32-.41.47.06,1,0a1.08,1.08,0,0,0,.77,1c-.33.14-.21.28-.29.55,0-.6-.66-.49-.67-1.09-.1.07-.1.25-.29.22-.07.34.26.21.19.55-.46.39-.66-.29-1.05-.33.48,0,.1-.39.67-.22Z"/><path class="cls-4" d="M296.29-7.45c.31.43.32,0,.67-.11-.12.13-.08.45.19.44a.8.8,0,0,1-.1.55c-.07-.11-.54-.54-.38-.22-.12.2-.43-.31-.38-.66Z"/><path class="cls-4" d="M298-6.9c.86.49-.42.65-.67.55,0-.53.56,0,.48-.44.11,0,.08.2.1.33.24-.07.17-.36.1-.44Z"/><path class="cls-4" d="M385.75-5.7c-.2-.36.68.74,0,.66,0-.11.12-.08.19-.11s-.17-.09-.29-.11c.05-.22.29-.21.1-.44Z"/><path class="cls-4" d="M383.55-5.37c0-.11-.12-.08-.19-.11.08-.39.49.28.57-.11.32.2-.38.71-.19.77-.08.33-.41-.53-.19-.55Z"/><path class="cls-4" d="M251.56-4.28s.78-.39.67.22a3.23,3.23,0,0,1-.67-.22Z"/><path class="cls-4" d="M124.27-1.76A7.43,7.43,0,0,1,126,.43c-.55-.76-1.38-1.19-1.72-2.19Z"/><path class="cls-4" d="M342-1.32c0-.23.14-.21.29-.22s0-.1-.1-.11c.22-.42.14.41.38.33,0,.21-.32-.13-.57,0Z"/><path class="cls-4" d="M220,1.08c.15.18.36,0,.58.22-.06.23-.59.1-.67,0,0-.25.06-.51.38-.44a.27.27,0,0,1-.29.22Z"/><path class="cls-4" d="M233.94,1.08c.16.07.06.25-.1.22,0,.13,0,.19.1.22s0,.1-.1.11h-.19V1.3a.27.27,0,0,0,.29-.22Z"/><path class="cls-4" d="M218.61,2.72c-.44-.21.19-.06.19-.55q.51,0,.48.55a1.34,1.34,0,0,1-.77.22c0-.13,0-.19.1-.22Z"/><path class="cls-4" d="M164.79,4.47c0-.13,0-.19-.1-.22a3.06,3.06,0,0,1,1.72-.55c-.17.28-.62.25-.86.44,1.16.69.13.17-.77.33Z"/><path class="cls-4" d="M88.74,22c-.27.21-.12.21-.57,0v-.87c.88-.24.25,1.25,1.05,1.09,0,.34-.26.29-.29.55.11.71.61,1,1.15,1.2a1.92,1.92,0,0,1-1.82-1.31c0-.26.36,0,.38.11a.72.72,0,0,0,.1-.77Z"/><path class="cls-4" d="M242.94,29.29a1.15,1.15,0,0,1,.67,0c0,.37.17.47.29.66-.05.25-.15-.13-.29.11,0,.44.77,0,.77.44-.12.27-.19.58-.57.55a1,1,0,0,0-.67-1c.16-.36,0-.55-.19-.77Z"/><path class="cls-4" d="M243.32,31.7a4.85,4.85,0,0,1,.86-.11c-.05.34-.36.39-.67.44-.08-.09-.06-.3-.19-.33Z"/><path class="cls-4" d="M115.84,33c-.26-.08-.18.23-.29.33s-.22-.19-.19-.44c.25,0,.56-.06.57.22.28.12-.15.12-.1-.11Z"/><path class="cls-4" d="M245.24,35.52c0-.45.14-1.09.67-1.2-.09.54.26.58.29,1-.39.07-.9.44-1.25.22.07-.19.17,0,.29,0Z"/><path class="cls-4" d="M236.24,37.82c-.31-.21-.24.07-.19.44-.3,0-.33-.28-.38-.55.08,0,.1.11.19.11.12-.2.36-.53.38,0Z"/><path class="cls-4" d="M181.45,40.88c.08,0,.09,0,.1.11s.18,0,.48.11a.41.41,0,0,1-.38.22c0-.22-.26-.14-.19-.44Z"/><path class="cls-4" d="M180.59,41c.32.11,0,.43.38.55-.13.42-.46-.4-.48-.11-.28-.09.22-.16.1-.44Z"/><path class="cls-4" d="M180,41.86c.13-.21.58.14.57.44-.27-.06-.31-.38-.57-.44Z"/><path class="cls-4" d="M215.17,43c.48,0,.06.32.29.55,0,.18-.34-.26-.29-.55Z"/><path class="cls-4" d="M117.47,43.72c.36,0,.45.22.67.33,0,.07-.78.1-.67-.33Z"/><path class="cls-4" d="M137,46.78h.38c0,.23-.14.21-.29.22s0,.1.1.11c0,.27-.27-.1-.19-.33Z"/><path class="cls-4" d="M116.22,47.11c.08-.16.58.13.57.44-.36,0-.34-.34-.57-.44Z"/><path class="cls-4" d="M412.57,47.66c.37,0,.37.37.67.44,0,.42-.57-.24-.67-.44Z"/><path class="cls-4" d="M140.36,49.08c0,.22-.36.1-.38.33-.32-.1,0-.2-.1-.55.19.21.15.4.48.22Z"/><path class="cls-4" d="M140.65,49.3c.11.14-.38.51-.19,1.09-.11-.16-.28-.27-.29-.55.29,0,.21-.49.48-.55Z"/><path class="cls-4" d="M139.12,49.08c.36.19.07.54.67.33a3.79,3.79,0,0,1,.19,1.2c-.3-.13-.23.17-.38.22.35.35.28.56.38,1.09-.77-.46-.7-1.82-.86-2.84Z"/><path class="cls-4" d="M304.72,52.8c0,.2.12.23.1.44-.47-.12-.75.27-.86-.55.6.74.32,0,1.05-.11-.17.56,1-.06,1.25.55-.08.32-.24-.14-.48,0-.09,0-.17.1-.19.22-.13.47.46.14.38.55-.54-.26-.15,0-.67.11.21-.25.08-.29.19-.55-.08-.32-.31.07-.48,0,0-.13,0-.19-.1-.22s.12-.08.19-.11c-.08-.16-.14-.35-.38-.33Z"/><path class="cls-4" d="M308.17,55.09h.29c0,.34-.26.49.19.44q.07.51-.38.44c-.26-.44.25-.53-.1-.87Z"/><path class="cls-4" d="M215.93,57.28a25,25,0,0,1-4.12,2.62,24.12,24.12,0,0,1,4.12-2.62Z"/><path class="cls-4" d="M210.38,60.89a2.17,2.17,0,0,1-1,.77c.19-.4.6-.56,1-.77Z"/><path class="cls-4" d="M251.94,61.65h.29c0,.32-.13.41,0,.55,0,.12-.1.06-.1,0s-.09,0-.1.11c-.06-.18.13-.29-.1-.66Z"/><path class="cls-4" d="M231.83,66c1.8,1.45,3.55,3.89,5.46,5.58-2-1.23-3.71-3.7-5.46-5.58Z"/><path class="cls-4" d="M330.2,66.9c0,.4,0,.79,0,1.42-.61-.07-.32-1.18,0-1.42Z"/><path class="cls-4" d="M257.12,69.85c-.19-.18.75,0,.58.55-.35,0-.37-.38-.58-.55Z"/><path class="cls-4" d="M256,69.85c.26.23-1,.92-.86.11.28,0,.77.33.86-.11Z"/><path class="cls-4" d="M264,70.4c.29.08.28-.19.57-.11-.2.24-.57.37-.48.66-.08.23-.06-.21-.1-.55Z"/><path class="cls-4" d="M229.34,70.51c.41-.18.59.85,1.05,1-.55.13-.61-.83-1.05-1Z"/><path class="cls-4" d="M264.87,70.73c.11.1,0,.2.1.55-.31.13-.07-.35-.38-.22,0-.25.28-.12.29-.33Z"/><path class="cls-4" d="M235.09,71.49c.39-.26.63.59,1.25.44-.24.43-1.1-.06-1.25-.44Z"/><path class="cls-4" d="M231.74,73.35c.17-.19.56.3.77.44-.27.3-.53-.34-.77-.44Z"/><path class="cls-4" d="M241.31,75.54A8.32,8.32,0,0,1,243,77.07a5.34,5.34,0,0,1-1.72-1.53Z"/><path class="cls-4" d="M252.71,87c.27-.23.65.34.86.55a4.42,4.42,0,0,1-.86-.55Z"/><path class="cls-4" d="M291.79,90.52v-.33c.3-.05.27.28.38.44s-.13-.23-.38-.11Z"/><path class="cls-4" d="M403.09,91.5c.4,0,.43.53.67.77,0-.06-.76-.22-.67-.77Z"/><path class="cls-4" d="M351.75,91.83c.27-.15.62.52.86.77,0,.37-.54-.34-.29,0,0,.16-.29,0-.29.22,0-.29.11-.72-.29-1Z"/><path class="cls-4" d="M365.92,92.81c0-.14.34-.39.29-.77.46.24,0,.8,0,1.2-.13,0-.15-.19-.29-.22.08-.19.32-.42,0-.22Z"/><path class="cls-4" d="M349.16,92.16c.4-.05-.13.34.38.22v.33c-.3,0-.33-.28-.38-.55Z"/><path class="cls-4" d="M352.32,92.92c.14-.14.21.19.57,0-.5.47.33.13.29.66-.46.08-.43-.39-.86-.33,0-.19.16-.28,0-.33Z"/><path class="cls-4" d="M375.6,96.09c.16-.28.67,0,.77.11-.09.2-.48-.17-.77-.11Z"/><path class="cls-4" d="M259.8,96.86c.54,0,1.05,1,1.63,1.31-.53,0-1-1-1.63-1.31Z"/><path class="cls-4" d="M377.42,97.3c.2-.55.4.1.48.33-.18.33-.14-.48-.48-.33Z"/><path class="cls-4" d="M160.09,97.84a9.07,9.07,0,0,1-2.3.77,9.37,9.37,0,0,1,2.3-.77Z"/><path class="cls-4" d="M261.52,98.5c.4-.05.86.76,1.25,1.09-.35,0-.77-.87-1.25-1.09Z"/><path class="cls-4" d="M220.43,99c.08.08,0,.52.48.44a.45.45,0,0,1-.48.22c.08-.38-.18-.46,0-.66Z"/><path class="cls-4" d="M257.12,101.23c.24-.32.64.1.86-.11v1c-.32,0-.34-.41-.77-.33-.05-.16.11-.57-.1-.55Z"/><path class="cls-4" d="M303.47,102.65a.38.38,0,0,1,.1.55c-.18.1-.32-.33-.38,0-.26-.1.17-.31.38-.22a.56.56,0,0,1-.1-.33Z"/><path class="cls-4" d="M302.71,104.51c.07-.52.6-.4.48-.87.17,0,.2.13.38.11-.45.26-.1.33,0,.77-.3.08-.18-.3-.48-.22-.08,0-.1.11-.19.11,0,.24.08.35.29.33-.2.4-.31-.22-.48-.22Z"/><path class="cls-4" d="M377.7,103.75c.16-.25.52.2.77.22-.17.25-1-.42-.48.22.15.27-.38-.37-.29-.44Z"/><path class="cls-4" d="M303.19,105.5a1.23,1.23,0,0,0,.57.77c.69-.44.33-.82,1.15-1,0,.25,0,.41-.19.44.27.17.59.28.67.66-.34-.09-.46.25-.67,0,.1-.15.16,0,.29-.22-.16-.17-.39.08-.38-.44-.22.11-.2.5-.19.87a5.6,5.6,0,0,0-1.34-.44c.18-.38-.26-.58.19-.87.21-.06.14.21.29.22,0,.28-.17-.15-.38,0Z"/><path class="cls-4" d="M272.63,106.81c-.26.1.29.24,0,.44h-.48c.06-.19-.12-.64.1-.66-.47,0-.32-1-.86-.66.11-.56.89-.32,1.25-.11,0,.13-.17.09-.29.11.27.38.91.15,1.15.77-.22,0-.36,0-.38-.22-.21,0,0,.39-.1.55.31-.06.45.07.67.11-.28.2-.22.27-.29.55-.18-.27-.3-.68-.77-.87Z"/><path class="cls-4" d="M278.09,111.4c-.17,0-.57-.4-.38-.11,0,.11-.12.08-.19.11s0-.1-.1-.11c.07-.25.74-.38.67.11Z"/><path class="cls-4" d="M403.37,112.82c0,.19-.17.25-.38.22.06.1.12.2,0,.22.63,0,.07.38.57.77,0,.12-.1.06-.1,0-.16,0-.18.09-.19.22-.42-.15,0-.53-.57-.55,0-.26.17-.32.1-.66.28,0,.29-.25.58-.22Z"/><path class="cls-4" d="M143,114.35c-.43.06-.25-.5-.1-.66,0-.19-.59-.58-.58-.11-.48-.41.56-.57.67-.11.1-.55-.1.56,0,.87Z"/><path class="cls-4" d="M332.11,116.54c.46.28,1.13.32,1.34.87-.31-.31-.85-.05-1.15-.55-.05.17-.44.84-.48.33-.08,0-.09.11-.19.11a.3.3,0,0,0,.19.33c.43-.56.81.17,1.15,0,0,.37-.29.33-.38.55a2.28,2.28,0,0,0-1.34-.55c.07-.61.79-.49.86-1.09Z"/><path class="cls-4" d="M365.54,118c.22.32-.55.28-.67.33,0,.14.17.17.19.33.1-.07.1-.25.29-.22.17.63-.15.66,0,1.31-.19-.08-.39-.33-.19-.55-.45.5-.09,1.28.1,1.64-.74.34-.5-1.2-.86-1.64,0-.26.3-.24.38-.44-.12-.22-.46-.2-.38-.66.54.2.8-.52,1.05,0,.08,0,.09,0,.1-.11Z"/><path class="cls-4" d="M330.77,118.73c-.31-.19.11-.44.19-.55s.22.19.19.44c.24-.09.45-.55.77-.22-.13.6-.88.07-1.15.33Z"/><path class="cls-4" d="M366.59,118.18c.17.09-.06.12-.19.11a.3.3,0,0,0,.19.33c0,.23-.42,0-.38.33.15-.35-.39-.19-.48-.55.49.24.43-.15.86-.22Z"/><path class="cls-4" d="M366.11,119.6c-.24,0-.3-.21-.38.11.08.23-.12-.13,0-.55a3.22,3.22,0,0,1,.67.77c0,.16-.12,0-.29,0v-.33Z"/><path class="cls-4" d="M280.2,122.33c0-.31-.36-.31-.58-.44-.06.44.25.44.58.44ZM282,121c-.07,0-.19,0-.19.11.42-.06.67-.33.67-.87-.54-.23-.34.27-.67.11.1.06,0,.42.19.66Zm-1,.11c0-.37-.37.29-.29-.22.22-.26.26.17.48.22.4-.4-.31-.44-.29-.76.33-.06,1-.74,1.63-.22.14.49,0,.64,0,1.2-.11,0-.17,0-.19.11-.44.1-.46-.27-.86-.22,0,.55-.54.11-.19.87.17,0,.22-.19.19-.44.21,0,.21.28.19.55-.33.13-.91.43-1.25.22-.19,0-.14.5.1.33-.26.07-.27.42-.57.44.16-.28-.11-.38.1-.55-.14-.24-.57-.15-.77-.33.05-.34.33-.42.38-.77.21.2.51.29.67.55a8.94,8.94,0,0,1,.86-.77c0-.34-.48-.18-.38.22-.36-.1-.11-.48.19-.44Z"/><path class="cls-4" d="M278.76,121.68c.12-.34.12.31,0,.33.24,0,.3-.21.48,0a.79.79,0,0,1-.67.22v-.33c.16,0,.18-.09.19-.22Z"/><path class="cls-4" d="M283.46,123.54c-.29.08-.35-.11-.57-.11.47,1-1.12.11-1,.87-.94,0-.59-.84-1.34-1.09.12-.33.37.08.48.11s.14-.5-.1-.33c.21-.37.44.14.67.11.16-.36.24-.82.67-.87.32.48-.13.87.19,1.09.29-.21.38-.33.67-.33,0-.51-.31-.14-.67-.33,0-.75.55.11.77-.22a.87.87,0,0,1-.38-.55.49.49,0,0,1,.67.11c-.38-.07-.08,1-.1,1.53Z"/><path class="cls-4" d="M387.47,123.21c0-.28.16.15.38,0,0,.42.1.39-.1.66-.17-.15.08-.54-.29-.66Z"/><path class="cls-4" d="M324.26,125.29c-.28-.31.44.25.48-.11.3.36-.33.35-.48.11Z"/><path class="cls-4" d="M294.95,126.6c.08,0,.09,0,.1.11s0,.1.1.11a.67.67,0,0,1-.29.22c.08.16.14.35.38.33-.08.32-.24-.14-.48,0a2,2,0,0,1,.19-.77Z"/><path class="cls-4" d="M293.9,127.25c-.22.09-.3.63-.58.33.06-.26.36-.24.58-.33Z"/><path class="cls-4" d="M199.94,128.46c.11-.13.34-.12.57-.11-.06-.11-.22-.11-.19-.33.51-.13.64,0,1.05.22,0,.24-.41,0-.58.11,0,.13.17.09.29.11-.25.28-.47.27-.67.77a.42.42,0,0,0-.29-.11c0-.21.44,0,.29-.44-.31.05-.57.4-.77,0-.2,0,.14.29-.1.44a.42.42,0,0,1,.29-.11c0,.29-.27.28-.38.44a19.41,19.41,0,0,0-.86-2c.54.2,1.52.31,1.34,1Z"/><path class="cls-4" d="M292.65,128.57a.67.67,0,0,1,.67-.44c-.19.25-.19.29,0,.55s-.32-.28-.67-.11Z"/><path class="cls-4" d="M293.9,129.11c-.27-.09-.33-.43-.48-.66.17-.22.53.35.77-.11a.5.5,0,0,1,.19.44c-.24,0-.34.2-.48.33Z"/><path class="cls-4" d="M289.11,132.39c0-.12.1-.06.1,0,.17,0,.2-.13.38-.11a.27.27,0,0,1-.29.22v.33c-.28-.1,0-.4-.19-.44Z"/><path class="cls-4" d="M200.8,135.35c.35,0,1,.58,1.34.87-.37.06-.85-.7-1.34-.87Z"/><path class="cls-4" d="M299.26,138.08c-.38-.4-.89-1.56-.67-1-.1-.26-.35.61-.29-.22,0-.11.42-.33.19-.87.49.1.52.72,1,.87a3.45,3.45,0,0,0,0,1.09c-.17.34-.4.18-.57.33-.34-.19.19-.28.38-.22Z"/><path class="cls-4" d="M239.49,137.2a5.54,5.54,0,0,1-.86.44c.14-.31.5-.38.86-.44Z"/><path class="cls-4" d="M203.58,137.42c.38-.07.93.61,1.34.87-.39.08-.88-.67-1.34-.87Z"/><path class="cls-4" d="M299.07,138.63c.17-.1.35.15.77,0-.16.35-.56.17-.77,0Z"/><path class="cls-4" d="M99,142c.29-.29.88,0,1.15.11-.28.28-.62-.31-1.15-.11Z"/><path class="cls-4" d="M235.57,143.22c.45-.16,2.32.38.57.22-.09,0-.6,0-.57-.22Z"/><path class="cls-4" d="M201.09,146c-.33.36-1,.36-1.44.55-.4,0,1-.49,1.44-.55Z"/><path class="cls-4" d="M285.56,146.28c-.21-.24.47,0,.58.11,0,.51.23.72-.29.87.16-.39.23-.37.1-.87-.15,0-.17.1-.29.11.21.28-.09.62.1.77,0,.09,0,.1-.1.11h-.29c.08-.4.39-1,.19-1.09Z"/><path class="cls-4" d="M304.91,151.42c.3-.3.53.41.57.76-.22.15-.36-.28-.38,0-.15-.1.36-.74-.19-.76Z"/><path class="cls-4" d="M304.43,152.51c.21-.1.64-.24.77-.11s-.17.24-.1.55c-.17-.16-.51-.23-.38,0-.09.26-.29-.24-.29-.44Z"/><path class="cls-4" d="M304.82,153.39c.08-.28.5-.15.67-.33,0-.22-.26-.14-.19-.44.16,0,.18-.08.19-.22.24.06.34.27.48.44-.24.13-.35.4-.29.87-.33-.06-.42-.39-.86-.33Z"/><path class="cls-4" d="M69.58,153.06a1.09,1.09,0,0,1-.67,1,7.44,7.44,0,0,0,.67-1Z"/><path class="cls-4" d="M354.43,153.93c.26,0-.25-.42.19-.33.08.35-.15.34-.19.55-.47,0-.73-.27-1,.22-.15,0,.06-.41-.19-.55,0-.29.54.1.38-.33.24.29.53,0,.77.44Z"/><path class="cls-4" d="M242.27,155.57c.48-.25.72.71,1.15.87-.28,0-.78-.64-1.15-.87Z"/><path class="cls-4" d="M263.92,159.18a.71.71,0,0,1-.86-.44c0-.42.32-.51.29-1,.29.17-.08.48,0,.77s.17.17.19.33c.13,0,.08-.27.1-.44.35.1.57.67.29.87-.11,0-.05-.11,0-.11Z"/><path class="cls-4" d="M249.74,159.73c.1-.24.64-.09.57.22-.24.14-.4-.32-.48,0-.15,0,.08-.19-.1-.22Z"/><path class="cls-4" d="M244.57,160.71c-.43-.21-.43.14-.67,0,0-.18.71-.44.67,0Z"/><path class="cls-4" d="M252.71,160.6c0-.17.17.1.19-.11,2.89,1.78,6.52,3.52,9.29,5.79-3-1.71-6.47-3.68-9.48-5.69Z"/><path class="cls-4" d="M283.74,160.93v-.22a.42.42,0,0,1,.29-.11c0,.25,0,.41.19.44-.07.27-.26-.2-.48-.11Z"/><path class="cls-4" d="M267.84,164.87c.86.07,1.9.89,2.87,1.2-.88,0-1.91-.88-2.87-1.2Z"/><path class="cls-4" d="M280.49,166.72c.21-.24.62.23,1,.22-.16.18-.76-.08-1-.22Z"/><path class="cls-4" d="M167.85,167.6c.24.32-.39.57-.58.77s.47-.51.58-.77Z"/><path class="cls-4" d="M302.61,168.58c.28.06-.15.17-.1.33.31,0,.2-.42.48-.44-.34.07,0-.56.48-.55a6.72,6.72,0,0,1-1.44,1.75c0-.18.42-.76.58-1.09Z"/><path class="cls-4" d="M265.45,168.15a21.14,21.14,0,0,1,5.27,3c.13.13,0,0-.1,0-1.77-.93-3.47-1.95-5.17-3Z"/><path class="cls-4" d="M275.32,168.58c0-.3.71.24,1,.33-.32.32-.56-.38-1-.33Z"/><path class="cls-4" d="M166.89,168.58c-.09.59-1.12,1-1.53,1.64.09-.59,1.1-1.08,1.53-1.64Z"/><path class="cls-4" d="M319.18,169.89c-.36-.23-.25.16-.67.11.06.11.22.11.19.33-.34,0-.35.33-.67.33,0-.23.64-.35.29-.66.38-.18.8-.33.77-1a.49.49,0,0,0,.38.11v.44c-.31-.09-.06.16-.29.33Z"/><path class="cls-4" d="M277.42,169.79c.52,0,1.31.69,1.92,1-.6.07-1.31-.69-1.92-1Z"/><path class="cls-4" d="M316.21,170.11c.11-.31.74-.5.67.11,0-.14-.58-.14-.29,0-.08.32-.14-.25-.38-.11Z"/><path class="cls-4" d="M165.07,170.22c0,.48-.92.92-1.25,1.42,0-.56.92-.92,1.25-1.42Z"/><path class="cls-4" d="M316.12,171c-.13,0-.08.27-.1.44-.14-.33-.52-.8-.29-1.2,0,.76.79.7,1.15,1.09.08,0,.1-.11.19-.11a2.5,2.5,0,0,1-.38-.44c0-.21.32.13.57,0,.08.6-.25.73-.57.87.17-.63-.54-.26-.57-.66Z"/><path class="cls-4" d="M280,171.32a17.08,17.08,0,0,1,1.92.77,3,3,0,0,1-1.92-.77Z"/><path class="cls-4" d="M415.15,172.08c0-.15.24-.09.38-.11,0,.46-.33.54-.1,1-.48-.1.16-.82-.29-.87Z"/><path class="cls-4" d="M416.4,174.27c-.17-.07,0-.52-.19-.55a.41.41,0,0,1,.38-.22c-.11.45,0,1.14-.57,1.09,0-.22.26-.22.38-.33Z"/><path class="cls-4" d="M288.53,174.71c-.13-.19.74.2,1,.33-.22.2-.68-.24-1-.33Z"/><path class="cls-4" d="M289.59,175.14c.16-.11.8.18,1.05.33-.23.19-.72-.27-1.05-.33Z"/><path class="cls-4" d="M157.31,177.22c-.83,1.38-2.84,2.37-4,3.72.33-.75,1.21-1.23,1.92-1.86s1.47-1.27,2.11-1.86Z"/><path class="cls-4" d="M321.67,178.53c-.33,0-.29-.33-.48-.44s-.08.27-.1.44c-.61-.77-2.22-.38-3.16-.77,1.21,0,3.27-.16,3.74.77Z"/><path class="cls-4" d="M133.47,179.84c.15-.27.39.28.38.55-.4.13-.17-.46-.38-.55Z"/><path class="cls-4" d="M128.58,180.17c.13-.08.68.13.86.11-.18.27-.76.08-.86-.11Z"/><path class="cls-4" d="M133.47,181.16c0-.13-.17-.09-.29-.11,0-.28.83-.39.77,0-.14,0-.27,0-.29-.11a.5.5,0,0,0-.19.44c0,.41-.24-.32,0-.22Z"/><path class="cls-4" d="M315.54,181.27c.28,0,.33.21.48.33s-.65.09-.48-.33Z"/><path class="cls-4" d="M315.64,181.81c.24-.08,0,.76.29.22.49.24-.2.42-.57.33-.07-.37.39-.14.29-.55Z"/><path class="cls-4" d="M317,181.81a.49.49,0,0,0,.38.11c-.21.32-.38.44-.38.76s.26-.16.38.11-.29,0-.29.22c-.18-.47-.44-.17-.57-.66.47,0,.44,0,.48-.55Z"/><path class="cls-4" d="M318,182.14c.1.09,0,.89-.38.55-.1.41.24.31.19.66-.31-.06-.3.21-.48,0a5,5,0,0,0,.38-1.09c.14,0,.27,0,.29-.11Z"/><path class="cls-4" d="M348.87,190.12c0-.31.29-.25.29-.55.12,0,.1.22,0,.22.16.18.46.2.57.44.27.12-.69,0-.86-.11Z"/><path class="cls-4" d="M329.81,190.34c0-.12.1-.06.1,0s.09,0,.1-.11a.57.57,0,0,1,.19.55.31.31,0,0,1-.19-.22c-.38.27.07-.12-.19-.22Z"/><path class="cls-4" d="M311.14,193c.22.33.61.47.67,1-.18-.38-.58-.51-.67-1Z"/><path class="cls-4" d="M326.17,202.15c-.57.11-1.36-.48-1.92-.77.24-.15,1.3.61,1.92.77Z"/><path class="cls-4" d="M92.76,206.3c.09.1-.29.58.19.66-.3.4-.16.54-.19.87-.36-.14-.37-.67-.48-1.09.28,0,.36-.25.48-.44Z"/><path class="cls-4" d="M313.34,216.47c0-.42-.28-.48-.57-.33.06-.68.81-.11.77.33-.31-.07-.13.39-.38.11,0-.11.12-.08.19-.11Z"/><path class="cls-4" d="M368.41,215.71c-.08.52.23.3.29.44v.33c-.6-.24-.57.11-1.05.22-.18-.21,0-.27,0-.55-.23-.31-.54.11-.77-.11a.85.85,0,0,0,.29-.87c.22,0,.36-.17.67-.11.1.52.5.11.77.22.13.39.58.43.67.87-.49.08-.59-.27-.86-.44Z"/><path class="cls-4" d="M314.2,233.64c.3.13-.05.32.29.33-.06.26-.42.18-.29.66-.24-.12-.28-.48-.29-.87-.2-.05-.18.16-.19.33-.11.35-.11-.29-.1-.44.43.15.43-.48.67-.22-.15-.18.18-.44.19-.77.35.07.16.64,0,.77.06.33.2-.1.38,0s-.18.16-.19.33c-.17-.1-.28-.35-.48-.11Z"/><path class="cls-4" d="M99.66,239.32c-.25,0-.48,0-.38.33-.16-.11-.1-.46-.19-.66.41.14.49,0,.67-.33.26.21,1-.11.86.55-.34-.3-.91-.27-.86.44.26.2-.26,0-.1-.33Z"/><path class="cls-4" d="M324.93,240.2c.27,0,.17.46.19.77-.38-.27-.13.12-.38.33-.32-.38.41-.48.19-1.09Z"/><path class="cls-4" d="M382.59,244.35c-.31-.14-.07.35-.38.22,0-.72,1.12,0,.77.33-.16-.14-.19-.44-.38-.55Z"/><path class="cls-4" d="M265.45,246.21c.38,0-.07.34.19.44-.09.19-.35.18-.38.44-.12-.07,0-.75.19-.87Z"/><path class="cls-4" d="M263,247.52c.09.31.17.94,0,.87-.23-.26,0-.54,0-.87Z"/><path class="cls-4" d="M171.2,249.71A25.66,25.66,0,0,1,175,253a7,7,0,0,1-2.59-2.3c-.57-.15-.82-.67-1.25-1Z"/><path class="cls-4" d="M181.45,259.44a60.27,60.27,0,0,1,5.36,5.47,32.85,32.85,0,0,1-5.36-5.47Z"/><path class="cls-4" d="M163.44,267.2c0-.22.26-.14.19-.44a2.29,2.29,0,0,0,.48.87c-.1.36-.27.64-.67.66,0-.36.11-.53.38-.55-.4-.15.32-.58-.38-.55Z"/><path class="cls-4" d="M117.57,269.94c.52-.63,2.17.39,3.06.55-.89.11-2-.44-3.06-.55Z"/><path class="cls-4" d="M219.86,1.3c.08.35-.32.15-.29.44s.52-.25.57.11c-.09.53-.8-.18-.48.55a1.17,1.17,0,0,1-.57-.87c.46.16.4-.27.77-.22Z"/><path class="cls-4" d="M140.55,47.22c-.25.47.31.37.19,1-.09,0-.17-.1-.19-.22s-.07.13-.1.22c-.35-.1-.06-.32-.1-.66-.3-.08-.18.3-.48.22,0-.1-.08-.2-.19-.22.24-.16.64-.14.86-.33Z"/><path class="cls-4" d="M281.73,118.95h.38c0,.2.12.23.1.44-.33,0-.55,0-.48-.44Z"/><path class="cls-4" d="M283.65,124.63c-.07.52.15.7.1,1.2-.21-.09-.33-.28-.67-.22a.68.68,0,0,0,.1-.44c-.43-.2-.13.43-.48.33v-.87a1.13,1.13,0,0,1,1,0Z"/><path class="cls-4" d="M293.51,124.85c0-.13.17-.09.29-.11.14.47.27.1.57.66-.33.19-.1.39.1.55-.31.35-.17.66-.29,1.09a1.59,1.59,0,0,1-.48-.76c.14,0,.27,0,.29-.11-.5,0,0-1-.48-1.31Z"/><path class="cls-4" d="M244,149.56c-.5-.33-1.51.39-2.68.22,0-.43,2.94-1,2.68-.22Z"/><path class="cls-4" d="M375.4,154.37c.51.06-.34.51.19.55,0,.24-.47,0-.67.11,0-.21.27-.2.19-.55.14,0,.27,0,.29-.11Z"/><path class="cls-4" d="M292.46,195.81c0,.09,0,.1-.1.11.44.33-.16.94,0,1.64-.17,0-.57.21-.29.33-1-.17-.55-2.16-.86-3.39.26-.14.46-.17.29-.55.22.07.26.36.48.44.32-.08.31-.45.67-.22-.22-.37-.2-1-.77-1,0-.63.09-1.14.57-1.2,0,.95.94.82.86,1.86-.3,0,0-.51-.48-.55-.08.69.41,1,.67,1.75-.38.14-.25-.3-.38-.44a1.9,1.9,0,0,0-.19,1.64c-.33,0-.29-.33-.48-.44Z"/></g><g class="cls-1"><g class="cls-5"><path class="cls-4" d="M-48.3-30.07h.19a.6.6,0,0,1,0,.66c-.16-.11-.1-.46-.19-.66Z"/><path class="cls-4" d="M64.24-30.07h.86V-30c0,.51-.14-.12-.38,0,0,.27.15.34.29.44-.08.34-1-.22-.77.44-.36,0-.27-.12-.57,0,.06-.23.15-.41.48-.33l-.29-.33c.07-.38.29-.07.48,0a.56.56,0,0,0-.1-.33Z"/><path class="cls-4" d="M-49.64-29.85c.11-.29.51,0,.38.33-.37.17-.2-.28-.38-.33Z"/></g><path class="cls-4" d="M-48.49-29.3c-.06.36-.36.16-.58.11.08-.39.24,0,.58-.11Z"/><path class="cls-4" d="M-2.23-29.19h.38c0,.17,0,.42.1.44-.13.24-.41-.25-.48-.44Z"/><path class="cls-4" d="M-40.73-28.76c0-.15.24-.09.38-.11-.15.08,0,.54-.29.44,0-.16,0-.31-.1-.33Z"/><path class="cls-4" d="M-34.89-28.65c.26-.08.19.22.38.22-.06.33-.2-.1-.38,0,0,.09,0,.1.1.11-.16.38-.28-.26-.1-.33Z"/><path class="cls-4" d="M1.13-28.54a.49.49,0,0,0,.38.11,1,1,0,0,0-.1.66.42.42,0,0,0-.29-.11c.19-.2,0-.4,0-.66Z"/><path class="cls-4" d="M-80.86-28.1h.48c-.11.16-.1.27.1.33-.19.31-.57-.07-.57-.33Z"/><path class="cls-4" d="M-175.11-28h.29c.07.33-.1.4-.1.66-.24,0-.19-.37-.19-.66Z"/><path class="cls-4" d="M-158.06-27.77c.24,0,.3.17.48.22-.08.25-.59.11-.48-.22Z"/><path class="cls-4" d="M-60.56-26.57c-.13.16-.43.29-.57.11a.56.56,0,0,0,.1-.33c.29-.08.18.3.48.22Z"/><path class="cls-4" d="M119.7-26.57c.18.16.42.24.38.66h-.38a.6.6,0,0,1,0-.66Z"/><path class="cls-4" d="M.36-25.69c.2.19.19-.08.38.11-.27.49.28.12.19.66-.29-.14-.68-.17-.57-.77Z"/><path class="cls-4" d="M-111.51-25.48c.33-.09.37.16.67.11,0,.36-.72.27-.67-.11Z"/><path class="cls-4" d="M-66.11-24.71c.24,0,.19.37.19.66-.14-.16-.35-.47-.19-.66Z"/><path class="cls-4" d="M1.41-24.16c.16.14.38.23.38.55-.28,0-.46-.14-.38-.55Z"/><path class="cls-4" d="M-65.92-23.4c.27,0,.28.27.29.55a.34.34,0,0,1-.29-.55Z"/><path class="cls-4" d="M76.12-22.3a1.15,1.15,0,0,1,.29.66c-.3,0-.29-.33-.29-.66Z"/><path class="cls-4" d="M84.84-22c.27-.09.25.15.48.11a.25.25,0,1,1-.48-.11Z"/><path class="cls-4" d="M-47.63-21.54c.43.22.53.41,1,.22.21.33-.16.74.38.77-.17.29-.57-.07-.48-.44-.15.14-.39.14-.19-.11-.3.16-.62,0-.67-.44Z"/><path class="cls-4" d="M44.23-20.56c.15.2.66,0,.58.44h-.58v-.44Z"/><path class="cls-4" d="M-46.67-19.79c.22,0,.45.07.38.44-.12-.15-.51,0-.38-.44Z"/><path class="cls-4" d="M45-19.57c.39,0,.29.47.58.55-.3.36-1.16.69-1.34,0a1.67,1.67,0,0,0,1,0c0-.29-.13-.36-.38-.33,0-.12.19-.07.19-.22Z"/><path class="cls-4" d="M-80.57-17.06a.76.76,0,0,0,.57.33c-.17.14-.25.37-.57.33.1-.41-.36-.17-.29-.55.14,0,.27,0,.29-.11Z"/><path class="cls-4" d="M-19-16.51c-.07.22-.29.45-.48.22.08-.22.33-.39.48-.22Z"/><path class="cls-4" d="M-81.34-16.4c0-.13.17-.09.29-.11s0,.1-.1.11c0,.26.44-.06.29.33-.4-.1-.47.05-.86-.11,0-.45.64.06.38-.22Z"/><path class="cls-4" d="M72.58-16.18c.26.4.82.45.86,1.09-.63.1-.63-.51-1.15-.55,0-.31.29-.25.29-.55Z"/><path class="cls-4" d="M-157.39-15.53c.36,0,.34.34.58.44-.06.38-.74.11-.58-.44Z"/><path class="cls-4" d="M49.59-12c0,.29-.13.36-.38.33,0-.29.13-.36.38-.33Z"/><path class="cls-4" d="M-134.5-11.7c.21,0,0,.39.1.55a.42.42,0,0,0-.29-.11c-.07-.3.19-.22.19-.44Z"/><path class="cls-4" d="M-24.64-11.26c.29.14.31.32.1.55-.32-.1,0-.2-.1-.55Z"/><path class="cls-4" d="M-23.39-10.82c.16.14.38.23.38.55-.27,0-.41-.19-.38-.55Z"/><path class="cls-4" d="M115.77-6c.23,0,.21.2.48.11v1.09c-.1-.47-.35-.77-.48-1.2Z"/><path class="cls-4" d="M115.3-5.69h.38c-.06.13,0,.81.38.77-.08.57-.43.35-.77.22.32-.31.16-.64,0-1Z"/><path class="cls-4" d="M-101.36-5.47c.14.35-.55.53-.48.11.23,0,.21-.2.48-.11Z"/><path class="cls-4" d="M-70-3.28c.4-.05.25.51.38.77-.34.09-.13.73.1,1-1-.13-.15-1-.48-1.75Z"/><path class="cls-4" d="M-70.52-3c.18,0,.41,0,.38.33-.25,0-.48,0-.38-.33Z"/><path class="cls-4" d="M-75.4,1.75c0,.35-.44.3-.67.44a.67.67,0,0,1,.67-.44Z"/><path class="cls-4" d="M-210.64,4.7c.14.06.24.16.38.22.07.3-.19.22-.19.44-.16-.11-.1-.46-.19-.66Z"/><path class="cls-4" d="M-208.54,4.7c.17,0,.22.19.19.44-.17,0-.2.13-.38.11-.07-.34.33-.13.19-.55Z"/><path class="cls-4" d="M-209.11,5.25c.17.35.59.09.77.22,0,.2.12.23.1.44-.43.25-1,.1-.86-.66Z"/><path class="cls-4" d="M69.61,5.36c.26-.33.6.19.48.66-.26.08-.19-.22-.38-.22.26-.15.14-.31-.1-.44Z"/><path class="cls-4" d="M-125.69,7.32c-.29-.08-.28.19-.57.11-.07-.42.61-.66.57-.11Z"/><path class="cls-4" d="M-31.34,8.2c.23.06.49.09.48.44-.36.08-.47-.12-.48-.44Z"/><path class="cls-4" d="M90.49,9.18c.27.06.81-.2.67.33-.07-.08-.47-.27-.38.11-.14-.09-.3-.16-.29-.44Z"/><path class="cls-4" d="M-56.73,10.82c.64-.24.17-.81.29-1.31a1.37,1.37,0,0,1,.77,1.09c-.52-.26-.48.28-1.05.22Z"/><path class="cls-4" d="M91.64,9.51c.08.09.26.06.29.22a.28.28,0,0,1-.48.22c-.12-.35.31-.08.19-.44Z"/><path class="cls-4" d="M86.47,10.61q.37,0,.38.44-.45.08-.38-.44Z"/><path class="cls-4" d="M-56.25,10.71c.08.07.17.13.19,0,.21,0,0,.46.1.66-.17,0-.2.1-.1.11-.56.33,0-.6-.19-.77Z"/><path class="cls-4" d="M-54.71,11.92c.11-.29.5,0,.67,0,0,.09,0,.1-.1.11v.22c-.29,0-.33-.28-.57-.33Z"/><path class="cls-4" d="M-53.28,12.35a.79.79,0,0,0-.1.55c-.23,0-.28.19-.57.11.22-.38.33-.44.1-.87.56-.41.06.57.57.22Z"/><path class="cls-4" d="M70.09,15c.44-.06.53.27.86.33a1.18,1.18,0,0,1-.77.22.8.8,0,0,1-.1-.55Z"/><path class="cls-4" d="M-47,15.2c.29.11.19.66.29,1-.29-.11-.19-.66-.29-1Z"/><path class="cls-4" d="M-205.09,17.71c0,.24-.51.09-.57,0,.13-.46.31,0,.57,0Z"/><path class="cls-4" d="M-179.9,19.24c.14.16.35.47.19.66a.42.42,0,0,0-.29-.11.79.79,0,0,1,.1-.55Z"/><path class="cls-4" d="M-52,21.32c.31-.2.76.37.86.77-.4-.13-.53-.56-.86-.77Z"/><path class="cls-4" d="M-83.64,25.47c.43.07.19.59.48,1-.33-.13-.41-.55-.48-1Z"/><path class="cls-4" d="M-84.88,26.79c.2.29,0,.38-.1.77-.21,0,0-.46-.1-.66.11,0,.17,0,.19-.11Z"/><path class="cls-4" d="M-182.2,27.77c-.19.18-.74.16-.67-.11.22-.25.31.2.67.11Z"/><path class="cls-4" d="M-200.68,27.88a.48.48,0,0,1,.1.66c-.19-.21-.16-.38-.1-.66Z"/><path class="cls-4" d="M-182.48,28.1c.27-.09.25.15.48.11,0,.33-.57.29-.48-.11Z"/><path class="cls-4" d="M-182.68,28.32c.17,0,.22.19.19.44h-.29c0-.23.07-.29.1-.44Z"/><path class="cls-4" d="M-161.22,28.86c.14-.32.37.14.67,0-.07.41-.46.07-.67,0Z"/><path class="cls-4" d="M-182.58,29.08a.3.3,0,0,1,.19.33c-.29-.08-.28.19-.58.11v-.33c.15,0,.17.1.29.11s.07-.13.1-.22Z"/><path class="cls-4" d="M-183.54,29.3c.25,0,.24.3.38.44-.22.38-.38-.21-.38-.44Z"/><path class="cls-4" d="M-180.86,29.85c0,.31-.4.2-.67.22,0-.31.4-.2.67-.22Z"/><path class="cls-4" d="M-159.31,30.5a1.28,1.28,0,0,1,.67.33c-.15.48-.65,0-.67-.33Z"/><path class="cls-4" d="M-161.12,31.71h.29c0,.29,0,.47.29.44-.12.19-.2.43-.48.44.07-.41-.16-.47-.1-.87Z"/><path class="cls-4" d="M-160.45,33.35c.25,0,.32.29.38.55a.53.53,0,0,1-.38-.55Z"/><path class="cls-4" d="M7.93,34.22l.57.33c-.17.29-.63,0-.57-.33Z"/><path class="cls-4" d="M5.82,34.88c.14-.33.42.09.67,0-.21.27-.44.17-.67,0Z"/><path class="cls-4" d="M-65.06,36.19c0,.86-.81.83-1.44,1,.25-.54.82-1.22,1.44-1Z"/><path class="cls-4" d="M-60.27,36.63A.72.72,0,0,1-61,37c.09-.3.48-.25.77-.33Z"/><path class="cls-4" d="M-62.18,37c.41.39-1,.57-1.53.55.4-.31,1.11-.26,1.53-.55Z"/><path class="cls-4" d="M-4,40.78c.19.11.15.48.48.44-.07.38-.29.07-.48,0v-.44Z"/><path class="cls-4" d="M-23.3,43.08c.35-.07.38.23.38.55-.3,0-.33-.28-.38-.55Z"/><path class="cls-4" d="M-47.15,43.84c.2.15-.09.38.1.66-.52.12-.23-.56-.1-.66Z"/><path class="cls-4" d="M32.06,49.2h.48c.08.45-.15.56-.48.55V49.2Z"/><path class="cls-4" d="M50.36,49.75c.21,0,0,.46.1.66a1.32,1.32,0,0,0-.77-.44c0-.47.5.16.67-.22Z"/><path class="cls-4" d="M-26.36,50.18c.14.1.3.16.29.44-.23,0-.21-.2-.48-.11,0-.14.17-.17.19-.33Z"/><path class="cls-4" d="M-149.73,51.93a.86.86,0,0,1-.67-.66c.25-.18.58.31.67.66Z"/><path class="cls-4" d="M-30.67,51.5c.12.46-.32.29-.38.55-.26-.2.06-.65.38-.55Z"/><path class="cls-4" d="M-130.76,52.92c1.67-.62,4.06-.39,6.13-.87.11,0,.24.19.1.22a48.75,48.75,0,0,1-6.23.66Z"/><path class="cls-4" d="M23.44,53.14h.29c0,.31-.17.47-.48.44-.12-.35.31-.08.19-.44Z"/><path class="cls-4" d="M-64.77,53.25c.39,0,.69.16.67.66-.3-.14-.72-.13-.67-.66Z"/><path class="cls-4" d="M-43.7,54.78c.15-.27.43.23.67.22,0,.24-.34,0-.48.11s-.06-.3-.19-.33Z"/><path class="cls-4" d="M-19.18,55c.22,0,.45.07.38.44a.56.56,0,0,1-.48-.11.56.56,0,0,0,.1-.33Z"/><path class="cls-4" d="M-61.42,55.21c.41-.25,1,.27,1.34.44-.43.27-.95-.3-1.34-.44Z"/><path class="cls-4" d="M-40,55.21c.13,0,.15.19.29.22-.15.2-.57.31-.57-.11.14,0,.27,0,.29-.11Z"/><path class="cls-4" d="M86.66,57.07v.44h-.38c-.07-.37.16-.4.38-.44Z"/><path class="cls-4" d="M86.94,57.51c.1,0,.06.22.19.22a.79.79,0,0,1-.67.22c0-.33.48-.11.48-.44Z"/><path class="cls-4" d="M-136.89,58.17c.14.06.24.16.38.22a.45.45,0,0,1-.48.22c0-.23.07-.29.1-.44Z"/><path class="cls-4" d="M113.38,58.38c.48.27-.1.93-.38.44.22-.37.61.12.38-.44Z"/><path class="cls-4" d="M24.3,58.49h.29c0,.41.11.31,0,.66-.13,0-.08-.27-.1-.44-.16,0-.18-.08-.19-.22Z"/><path class="cls-4" d="M83.4,58.93c.31,0,.46.45.29.66-.2-.1-.29-.32-.29-.66Z"/><path class="cls-4" d="M-64.1,59.81c.27,0,.52,0,.48.33-.27,0-.52,0-.48-.33Z"/><path class="cls-4" d="M-47.15,60.9c-.6.79-1.78-.19-2.2-.66.63-.08,1.38.6,2.2.66Z"/><path class="cls-4" d="M-47.15,61.23a5.91,5.91,0,0,1,2.68.77c-.77.44-2.09-.29-2.68-.77Z"/><path class="cls-4" d="M-59.22,61.77a2,2,0,0,1,.77.66c-.21.16-.83-.14-.77-.66Z"/><path class="cls-4" d="M-39.29,64.18c-1.52-.19-3.23-1.13-4.79-1.64.09-.33.6-.43.67,0a16.32,16.32,0,0,1,4.12,1.64Z"/><path class="cls-4" d="M-21.19,64.18c.22,0,.11.32.29.33-.15.35-.58-.14-.29-.33Z"/><path class="cls-4" d="M-38.34,64.51A166.88,166.88,0,0,0-11.42,73c-9.77-1.34-18.44-4.9-26.72-8.31-.16,0-.18-.09-.19-.22Z"/><path class="cls-4" d="M-1.75,64.94c.15,0,.17.1.29.11,0,.29-.13.36-.38.33,0-.23.07-.29.1-.44Z"/><path class="cls-4" d="M29.29,66.91c.2.26.49-.22.48.33-.42-.16-.44.37-.67.11,0-.17.3-.09.19-.44Z"/><path class="cls-4" d="M30.05,67c.15-.27.43.23.67.22-.24.37-.54-.1-.67-.22Z"/><path class="cls-4" d="M114.72,67.79c.29.07.32.44.29.87-.19,0-.12-.3-.38-.22,0-.39.26-.27.1-.66Z"/><path class="cls-4" d="M68.94,71.72c0,.22-.26.14-.19.44-.14-.1-.37-.09-.29-.44a.33.33,0,0,1,.48,0Z"/><path class="cls-4" d="M-28.47,73.47c.31-.09.3.17.48.22,0,.34-.14.43-.19.66-.42-.05-.48.15-.77,0,.12-.57.54-.25.48-.87Z"/><path class="cls-4" d="M52.66,73.8h.29c0,.17,0,.42.1.44-.12.27-.46-.12-.38-.44Z"/><path class="cls-4" d="M68.17,73.91c.27.17.75.54.58.87-.2-.28-.49-.46-.58-.87Z"/><path class="cls-4" d="M16,74.68a1,1,0,0,1,.57,1.2,1.11,1.11,0,0,0-1.15-.66c.21-.24.88,0,.57-.55Z"/><path class="cls-4" d="M68.84,75.44a1.69,1.69,0,0,1,.77,1c-.18,0-.08.42-.38.33.19-.41-.22-1-.38-1.31Z"/><path class="cls-4" d="M-37.66,76.32h.29c-.23.15.17.33-.1.44h-.19v-.44Z"/><path class="cls-4" d="M54.19,76.75c-.16,0-.18.08-.19.22-.32-.1,0-.2-.1-.55.21,0,.3.09.29.33Z"/><path class="cls-4" d="M67.79,77.41a.42.42,0,0,0,.29.11c-.16.22,0,.14,0,.44-.28-.15-.42.06-.86,0a.56.56,0,0,0,.1-.33.28.28,0,0,0,.48-.22Z"/><path class="cls-4" d="M-77.89,78.17c.31.08.15.71.48.77a.29.29,0,0,1-.48.11,1.2,1.2,0,0,0,0-.87Z"/><path class="cls-4" d="M-46.67,78.72c-.33.26-.42.16-1,.22.14-.3.46-.14,1-.22Z"/><path class="cls-4" d="M-78.47,78.83h.19c0,.09,0,.1.1.11v.22c-.08,0-.09,0-.1.11h-.19c0-.09,0-.1-.1-.11v-.22c.08,0,.09,0,.1-.11Z"/><path class="cls-4" d="M-128.27,79.16c.24.12.28.48.29.87-.23-.14-.18-.59-.29-.87Z"/><path class="cls-4" d="M78.23,79.16c.29,0,.33.28.57.33,0,.21-.32.08-.29.33a1.15,1.15,0,0,1-.29-.66Z"/><path class="cls-4" d="M-77.89,79.49c.31-.47.39.81-.1.66-.07-.27.42-.45.1-.66Z"/><path class="cls-4" d="M-78.28,79.92c-.19.32,0,.35-.29.55-.25,0-.25-.23-.29-.44.11-.13.34-.12.57-.11Z"/><path class="cls-4" d="M-137.08,80a1.89,1.89,0,0,1-1.15.33c.18-.34.74-.25,1.15-.33Z"/><path class="cls-4" d="M-43,80.25c.27-.09.25.15.48.11,0,.45-.13.43,0,.77-.43,0-.23-.69-.48-.87Z"/><path class="cls-4" d="M-66.21,81.78c.2,0,.19.3.38.33,0,.26-.44-.06-.29.33-.2,0-.25-.07-.38-.11-.21.16.1.31-.19.44,0,.36.29.47.48.66-.88.12-.67-1.56,0-1.64Z"/><path class="cls-4" d="M-10.75,83.31c.2,0,.25.07.38.11,0,.14-.17.17-.19.33a.5.5,0,0,1-.19-.44Z"/><path class="cls-4" d="M43.75,83.31c.25,0,.48,0,.38.33-.25,0-.41,0-.38-.33Z"/><path class="cls-4" d="M-41.88,83.42c0,.13,0,.19.1.22-.2.25-.49-.15-.57.33-.1,0-.07-.22-.19-.22.09-.27.39-.29.67-.33Z"/><path class="cls-4" d="M-42.26,84.08c.29-.08.35.11.58.11-.27.12-.35.3-.19.66-.16.18-.56.09-.86.11,0-.2.12-.23.1-.44.2.29.17.32.57.22,0-.34-.29-.25-.19-.66Z"/><path class="cls-4" d="M-39.87,84.19c.07.38-.34.39-.48.22.08-.16.31-.16.48-.22Z"/><path class="cls-4" d="M-39.77,84.62c.26.17.51-.09.77.22-.11,0-.84.37-.77-.22Z"/><path class="cls-4" d="M-31.82,86.26c.22.07.48.33.29.55a.47.47,0,0,1-.29-.55Z"/><path class="cls-4" d="M5.72,86.37c.1,0,.06.22.19.22-.33.28-.4.86-.77,1.09,0-.39.25-.58.19-1.09.22,0,.45.27.38-.22Z"/><path class="cls-4" d="M-66.11,87.58c.15,0,.17.1.29.11-.08.16-.08.42-.38.33,0-.23.07-.29.1-.44Z"/><path class="cls-4" d="M80,88.23c-.35-.17-1.21.56-1.34-.11.54.08,1.09-.57,1.34.11Z"/><path class="cls-4" d="M38.48,88.12c.24,0,.3.17.48.22,0,.32-.58.21-.48-.22Z"/><path class="cls-4" d="M78.23,88.23c.1.07.1.25.29.22,0,.15-.49.22-.19.33-.27.37-.19-.4-.1-.55Z"/><path class="cls-4" d="M40,88.56c0,.87-.65.16-.86,0,.2-.48.42.34.86,0Z"/><path class="cls-4" d="M38.19,89.11c.24-.22.36.07.86,0-.07.34.26.21.19.55-.09,0-.17.1-.19.22-.21,0,0-.39-.1-.55-.06.15-.37,0-.38.22-.15,0-.08-.34-.38-.22.06-.1.12-.2,0-.22Z"/><path class="cls-4" d="M-27.13,89.44c.17.27.65.2.67.66-.12-.15-.47-.17-.48.11-.17-.13-.08-.57-.19-.77Z"/><path class="cls-4" d="M39.72,90.64c.14.27.45.36.48.77-.33-.12-.73-.28-.48-.77Z"/><path class="cls-4" d="M-22.05,91.73c.14.13.43.09.38.44a.41.41,0,0,0-.38.22c-.21,0-.08-.58,0-.66Z"/><path class="cls-4" d="M106,95c.24,0,.19.37.19.66-.16-.14-.38-.23-.38-.55.11,0,.17,0,.19-.11Z"/><path class="cls-4" d="M-216.87,95.78c-.38.22,0,.41.29.44-.1.36-.29,0-.57.22-.18-.22-.14-.8.29-.66Z"/><path class="cls-4" d="M105.43,96h.29c-.07.33.1.4.1.66-.3,0-.3-.39-.38-.66Z"/><path class="cls-4" d="M57.44,97.64c.31.21,0,.5.19.87-.24-.12-.22-.56-.38-.77.11,0,.17,0,.19-.11Z"/><path class="cls-4" d="M-186.51,97.85c.27.12.35.83.29,1a.42.42,0,0,0-.29-.11c.09-.43-.21-.63,0-.87Z"/><path class="cls-4" d="M-31,98.07c.15,0,.08.34.38.22.36.22-.46,0-.38.22-.11,0-.08-.2-.1-.33s.09,0,.1-.11Z"/><path class="cls-4" d="M-31.82,98.51c.25,0,.41,0,.38.33-.25,0-.41,0-.38-.33Z"/><path class="cls-4" d="M57.35,98.84c.34,0,.32.37.57.44-.2.3-.57-.14-.57-.44Z"/><path class="cls-4" d="M59.17,99.28c.18.12.2.42.38.55-.17.29-.43-.23-.57-.33,0-.12.19-.07.19-.22Z"/><path class="cls-4" d="M-186.12,100c.31-.15.24.65.1.66-.35.1-.17-.58-.1-.66Z"/><path class="cls-4" d="M-19,102.23c-.08.11-.69.46-.67,0,.28-.15.25,0,.67,0Z"/><path class="cls-4" d="M-15.16,102.77c.14.17.49.1.77.11,0,.37-.78.24-.77-.11Z"/><path class="cls-4" d="M-18.13,103.65c0-.54.2-.54.57-.44-.14.21-.21.48-.57.44Z"/><path class="cls-4" d="M68.36,103.21c.35.1.06.32.1.66-.24-.15-.17-.38-.1-.66Z"/><path class="cls-4" d="M-17.93,104.09a.56.56,0,0,1-.48-.11.68.68,0,0,0,.1-.44,1,1,0,0,1,.38.55Z"/><path class="cls-4" d="M108.69,105.84c.37,0,0,.55.19.55,0,.09,0,.1-.1.11h-.19c.14-.33,0-.43.1-.66Z"/><path class="cls-4" d="M88.67,106.16c.35,0,.14.64.58.55-.29.39-.81-.31-.58-.55Z"/><path class="cls-4" d="M-97.53,107.91c-.06,0-.11,0-.1-.11h.29v-.44c-.23,0-.21.2-.48.11,0,.2.2.7.29.44Zm.38-.87a2.75,2.75,0,0,1,.19.66c.15,0,.08-.34.38-.22v.44c-.28,0-.49,0-.57-.22-.24.13-.17.47,0,.66-.08-.45.52-.42.48.22a.41.41,0,0,0-.38.22c-.25-.41-.91-.34-1-1a.49.49,0,0,1-.38.11c.23-.25.19-.4-.19-.44.07-.09.15-.3,0-.33.41-.53.74-.07,1.44-.11Z"/><path class="cls-4" d="M-15.25,108.24c.26.14.56.23.48.77h-.48c-.13-.35,0-.37,0-.77Z"/><path class="cls-4" d="M-95.8,108.46c0,.4-.35.33-.57.44v-.33c.25.29.29-.13.57-.11Z"/><path class="cls-4" d="M-12.76,109.12c.23,0,.28.19.57.11-.08.31.13.28.1.55a.4.4,0,0,1-.67-.22c-.13.18.05.61-.48.55.12-.37.34-.63.48-1Z"/><path class="cls-4" d="M15.3,110.1c.14-.26.48.17.48.44-.27,0-.26-.36-.48-.44Z"/><path class="cls-4" d="M102.65,110c.26.1-.22.44.29.33,0,.24-.47,0-.67.11-.1-.41.32-.21.38-.44Z"/><path class="cls-4" d="M102,111c.24,0,.19.37.19.66-.36,0-.27-.39-.19-.66Z"/><path class="cls-4" d="M102.46,111h.48c.1.37-.3.17-.48.22V111Z"/><path class="cls-4" d="M-7.3,111.41c0-.13.17-.09.29-.11,0,.23.07.29.1.44.13-.13.15,0,.29,0-.27.37-.55-.16-.67-.33Z"/><path class="cls-4" d="M-3.66,111.74c-.17.17-.41.27-.58.44-.2-.17.27-.49.58-.44Z"/><path class="cls-4" d="M-3.76,112.61c-.13,0-.08-.27-.1-.44.13.11.35.11.48.22,0,.43-.3-.08-.38.22Z"/><path class="cls-4" d="M-8.16,113.38c.16-.32.08.56.1.77.15,0,.16-.1.29-.11-.06-.36-.28-.37-.1-.76h.48c-.33.28-.09.61,0,1-.45.11-.29.24-.77.33-.12-.19.07-.73,0-1.2Z"/><path class="cls-4" d="M20,113.27c.19,0,.17.77-.19.55,0-.27.15-.34.19-.55Z"/><path class="cls-4" d="M-7.4,113.6c.52,0,.67.47,1,.77.17-.1.24-.31.57-.22,0,.3,0,.7.58.66,0,.23-.42,0-.38.33-.24-.09-.24-.45-.38-.66-.55.19-1-.53-1.34-.87Z"/><path class="cls-4" d="M-7.3,114.14c.2.06.27.27.57.22-.16.22,0,.14,0,.44h-.48a1,1,0,0,1-.1-.66Z"/><path class="cls-4" d="M24.88,115c-.3-.23-1.11-.2-.38-.44.11.16.4.13.38.44Z"/><path class="cls-4" d="M-8.45,115c.12.15.45.07.58.22-.35.28-.57,0-.86.33,0-.13,0-.19-.1-.22,0-.23.42,0,.38-.33Z"/><path class="cls-4" d="M54.38,115.89c.2.24.27-.05.58,0,.14.34-.71.34-.58,0Z"/><path class="cls-4" d="M34.84,117.75c.23-.4.17.45.38.44-.25.42-.25-.36-.38-.44Z"/><path class="cls-4" d="M95.28,120.16c.08.31-.13.28-.1.55-.3.05-.25-.29-.48-.33.1-.18.41-.12.57-.22Z"/><path class="cls-4" d="M18.94,120.6c.49-.65.77.64,0,0Z"/><path class="cls-4" d="M-56,121.36a1.44,1.44,0,0,1-1.44.55c.42-.37.89-.28,1.44-.55Z"/><path class="cls-4" d="M-42.74,121.58c.25,0,.46.56.57.33.29.54-.61.12-.57-.33Z"/><path class="cls-4" d="M-59.6,122.35c-.07.53-1.1.46-1.34.44a2.39,2.39,0,0,1-1.63.44,12.43,12.43,0,0,1,3-.87Z"/><path class="cls-4" d="M-15.92,122.67c.2.42-.84.35-1.15.55.13-.47.88-.24,1.15-.55Z"/><path class="cls-4" d="M-63.91,123.77c-.1.47-.79.27-1.15.44a1.08,1.08,0,0,1,1.15-.44Z"/><path class="cls-4" d="M-28.76,124.86c-.21.31-.83.15-1.15.33.13-.4.71-.29,1.15-.33Z"/><path class="cls-4" d="M-30.48,125.19c-.41.22-1.51.92-1.72.33.71,0,1-.34,1.72-.33Z"/><path class="cls-4" d="M-33.36,126.06a17,17,0,0,1-3.74.87,9.89,9.89,0,0,1,3.74-.87Z"/><path class="cls-4" d="M-37.38,126.94a13.78,13.78,0,0,1-3,.44,10,10,0,0,1,3-.44Z"/><path class="cls-4" d="M-15.35,126.83c.27,0,.28.27.29.55-.2-.07-.36-.17-.29-.55Z"/><path class="cls-4" d="M81,126.94c.25,0,.41,0,.38.33-.25,0-.41,0-.38-.33Z"/><path class="cls-4" d="M-41.11,127.48a1.77,1.77,0,0,1-1.44.11,1.83,1.83,0,0,1,1.44-.11Z"/><path class="cls-4" d="M-97.72,127.59c.15-.32.64.16.38.33s-.13-.36-.38-.33Z"/><path class="cls-4" d="M-44.85,128a5.05,5.05,0,0,0-1.15-.11c-.05,0,1.18-.48,1.15.11Z"/><path class="cls-4" d="M-95.32,127.81c-.09.19-.18.38-.48.33,0-.31.23-.32.48-.33Z"/><path class="cls-4" d="M-14.68,129c.23.15-.17.33.1.44-.13.28-.59,0-.77,0,.13-.26.43-.31.67-.44Z"/><path class="cls-4" d="M-68.51,129.23c.56.24-.39.51-.58.22,0-.31.59.09.58-.22Z"/><path class="cls-4" d="M56,133a.79.79,0,0,0-.1.55c-.27-.11-.43-.65.1-.55Z"/><path class="cls-4" d="M86.08,133.93c.14-.32.39.13.29.44-.38.18,0-.47-.29-.44Z"/><path class="cls-4" d="M5.72,135.14c.08,0,.1.11.19.11v.22c-.28-.32-.17.27-.48.22,0-.34.26-.29.29-.55Z"/><path class="cls-4" d="M56.68,135.79c.37,0,.49.67.38.87-.15-.27-.38-.45-.38-.87Z"/><path class="cls-4" d="M21.62,135.9q.45-.08.38.44c-.08-.08-.26-.17-.29,0-.13,0-.08-.27-.1-.44Z"/><path class="cls-4" d="M77,137.65c.43,0,.26.65.38,1-.51-.13-.12-.63-.38-1Z"/><path class="cls-4" d="M76.5,137.76h.29c0,.66.37.81.48,1.31-.27.17-.39,0-.77.11,0-.16,0-.31-.1-.33,0-.27.32,0,.38,0a2,2,0,0,0-.1-.77c-.29-.08-.12.38-.48.22-.18-.5.38-.15.29-.55Z"/><path class="cls-4" d="M-67.64,140.28a1.74,1.74,0,0,1,.48,1.09c-.16-.36-.56-.46-.48-1.09Z"/><path class="cls-4" d="M-32.78,141c.2,0,.25.22.38.33,0,.23-.36.1-.38.33-.33-.23,0-.32,0-.66Z"/><path class="cls-4" d="M-32.78,141.92c-.13.16-.43.29-.58.11.06-.36.36-.16.58-.11Z"/><path class="cls-4" d="M-131.05,142.24a4.3,4.3,0,0,1-1.25,1.09,3.21,3.21,0,0,1,1.25-1.09Z"/><path class="cls-4" d="M-51.07,143.12c.18-.36.26-.09.67-.11a.38.38,0,0,1-.67.11Z"/><path class="cls-4" d="M83.4,143h.29c-.07.33.17.32.1.66-.31,0-.42-.25-.38-.66Z"/><path class="cls-4" d="M-51,143.23c-.12.34-.2.06-.48.22a.28.28,0,0,1,.48-.22Z"/><path class="cls-4" d="M42.79,144.65c.27.13.29.54.38.87-.27-.12-.66-.48-.38-.87Z"/><path class="cls-4" d="M65.87,145v.44c-.25,0-.41,0-.38-.33a.49.49,0,0,1,.38-.11Z"/><path class="cls-4" d="M-34,145.2c.19-.31.6,0,.86,0-.19.31-.6,0-.86,0Z"/><path class="cls-4" d="M-127.22,145.31c.32-.11.15.34.19.55-.33.08-.34-.38-.19-.55Z"/><path class="cls-4" d="M-30.19,145.74a6,6,0,0,1-2.49-.33c-.85-.19.25-.11.29-.11.29,0,1.62.41,2.2.44Z"/><path class="cls-4" d="M42.41,145.41c.16.07.06.25-.1.22a.77.77,0,0,1,0,.55c-.25-.14-.29-.36-.19-.66.14,0,.27,0,.29-.11Z"/><path class="cls-4" d="M-18,149.24a116.37,116.37,0,0,0-11.49-3.17c-1.25-.29.68-.09,1.15,0A51.55,51.55,0,0,1-18,149.24Z"/><path class="cls-4" d="M18.56,151.76c.21,0,.21.28.19.55-.39,0-.25-.28-.19-.55Z"/><path class="cls-4" d="M19.13,153.18c.19.18.12,0,.38,0,.1.28-.32.49-.38.22v-.22Z"/><path class="cls-4" d="M-15.35,154.93c-.28.31-.68-.17-1.05-.11.17-.46.63.19,1.05.11Z"/><path class="cls-4" d="M-213.32,157.55c-.21.33-.54-.11-.86,0,.17-.37.62-.14.86,0Z"/><path class="cls-4" d="M117.11,158.43c.08.09.26.06.29.22.09,0,.07-.13.1-.22s.09,0,.1.11v.22c-.25,0-.6.1-.48-.33Z"/><path class="cls-4" d="M23.25,160.72c1.25-.3,2.61.23,3.83.33a21.62,21.62,0,0,1-3.83-.33Z"/><path class="cls-4" d="M-163.62,162a1.12,1.12,0,0,1,.19,1.09c-.2,0-.19-.3-.38-.33,0-.34.3-.31.19-.77Z"/><path class="cls-4" d="M16.07,162c.38.16-.11.78-.1,1.2-.39-.28.05-.78.1-1.2Z"/><path class="cls-4" d="M-164.09,162.8c-.21,0-.21-.28-.19-.55.33-.18.54.06.38.44-.25-.15-.3-.35-.19.11Z"/><path class="cls-4" d="M16.55,162.36c.17.13.08.57.19.76-.22-.08-.21-.42-.48-.44,0-.26.44.06.29-.33Z"/><path class="cls-4" d="M20.57,162.58c.08.31-.13.28-.1.55-.14-.09-.3-.16-.29-.44a.49.49,0,0,1,.38-.11Z"/><path class="cls-4" d="M21.81,163c.21,0,0,.46.1.66-.38-.18-.2-.29-.1-.66Z"/><path class="cls-4" d="M16.55,163.24c.42,0,0,.66,0,.87a.42.42,0,0,0-.29-.11.78.78,0,0,0,.29-.77Z"/><path class="cls-4" d="M20.76,163.24a2.34,2.34,0,0,0,.77.33c-.2.26-.81.06-.77-.33Z"/><path class="cls-4" d="M-168.79,163.67c0,.21-.32.08-.29.33-.45-.12,0-.69.29-.33Z"/><path class="cls-4" d="M22.1,164.55c.36.08.12.59-.19.55,0-.21.21-.27.19-.55Z"/><path class="cls-4" d="M-213.61,165c-.22,0-.36-.17-.67-.11,0-.29.66-.2.67.11Z"/><path class="cls-4" d="M4.77,164.77q.45-.08.38.44-.45.08-.38-.44Z"/><path class="cls-4" d="M17,165.09c.22,0,.22.29.1.44s-.31-.09-.29-.33c.08,0,.09,0,.1.11s.07-.13.1-.22Z"/><path class="cls-4" d="M18.85,166.3c.29-.08.18.3.48.22,0,.36-.51.12-.48-.22Z"/><path class="cls-4" d="M-36.8,166.52c.37-.06.08.63.38.66-.21.3-.49-.24-.38-.66Z"/><path class="cls-4" d="M-167.06,168.38c.56,0-.06.61.48.55-.07.34-.26.14-.48.11v-.66Z"/><path class="cls-4" d="M-166.39,168.59a.49.49,0,0,0,.38.11c.31.19-.5,0-.38.33-.24,0,0-.37,0-.44Z"/><path class="cls-4" d="M73.44,168.59c0,.25-.06.51-.38.44q0-.42.38-.44Z"/><path class="cls-4" d="M-25.5,169.47c.21.21.22.55.57.33-.05.27-.08.56-.38.55a1.89,1.89,0,0,1-.19-.87Z"/><path class="cls-4" d="M74,169.91c.14-.32.39.13.29.44-.2.08-.38.34-.57.11.2-.09.77-.32.29-.55Z"/><path class="cls-4" d="M75.16,169.8c.11,0,.08.2.1.33h-.67c.06-.49.51.16.57-.33Z"/><path class="cls-4" d="M50,171.76a.41.41,0,0,0,.29.11c0,.29-.13.36-.38.33a.68.68,0,0,0,.1-.44Z"/><g class="cls-5"><path class="cls-4" d="M-6.15,176c0,.13,0,.19-.1.22s.17.09.29.11c-.09.64-.73-.3-.19-.33Z"/><path class="cls-4" d="M122.86,177.45h.29c0,.26-.17.24-.1.55a.57.57,0,0,1-.19-.55Z"/></g><path class="cls-4" d="M15.4,178c0-.13.17-.09.29-.11,2.79,2.24,6.41,3.54,9.29,5.69A75.17,75.17,0,0,1,15.4,178Z"/><path class="cls-4" d="M8.88,186.31c-.07.22-.29.45-.48.22,0-.24.24-.23.48-.22Z"/><path class="cls-4" d="M7.73,186.52q.45-.08.38.44c-.11-.16-.4-.13-.38-.44Z"/><path class="cls-4" d="M-2.23,186.63c.36,0,.45.29.48.66a2,2,0,0,1-.48-.66Z"/><path class="cls-4" d="M-2.51,186.74c.16.09.06.79-.19.77a4.56,4.56,0,0,1,.19-.77Z"/><path class="cls-4" d="M-179.42,187c.17.1.37.24.19.44s-.34-.28-.19-.44Z"/><path class="cls-4" d="M-15.06,187.51c.38.27.16.5.67.22.07.34-.54.47-.19.77-.47.25-.35-.45-.48-1Z"/><path class="cls-4" d="M-15.64,187.62c.25.08.33.35.29.77-.23-.1-.25-.44-.29-.77Z"/><path class="cls-4" d="M-162.08,189.15c.13-.28.59,0,.77,0-.11.45-.47,0-.77,0Z"/><path class="cls-4" d="M-206.72,189.59c.27.05.28.42.38.66-.32,0-.37-.31-.38-.66Z"/><path class="cls-4" d="M-205.47,190.35h.38v.44c0-.25-.42-.1-.38-.44Z"/><path class="cls-4" d="M-205.76,192.21c.37.45-.89.43-1,.11.48-.28.5,0,1-.11Z"/><path class="cls-4" d="M104.66,194.72c.3,0,.29.33.29.66-.19-.13-.52-.37-.29-.66Z"/><path class="cls-4" d="M-233.15,195.49a1.07,1.07,0,0,1,.57.87c-.39,0-.32-.51-.67-.55a.56.56,0,0,0,.1-.33Z"/><path class="cls-4" d="M-36.52,200.3c.23.16.39.78.57.11.33.31-.19.58-.38.66a.6.6,0,0,1-.19-.77Z"/><path class="cls-4" d="M0,200.41c-.24.19-.1.14-.1.55-.33.08-.16-.4-.38-.44,0-.28.36-.26.48-.11Z"/><path class="cls-4" d="M-131.62,204c-.88.21-1.95-.33-2.78-.55.63-.35,1.93.41,2.78.55Z"/><path class="cls-4" d="M60.8,204.13c.21,0,0,.46.1.66-.23-.21-.91.1-.86-.44.25.11.76.23.77-.22Z"/><path class="cls-4" d="M79.19,204.13a2.18,2.18,0,0,1,.38.77c-.23-.23-.2-.16-.57-.11,0-.34.14-.43.19-.66Z"/><path class="cls-4" d="M-29.71,204.24h.29c-.22.08.09.76-.29.66v-.66Z"/><path class="cls-4" d="M79.09,204.89c.25,0,.31.15.29.44-.25,0-.31-.15-.29-.44Z"/><path class="cls-4" d="M60.61,205.22c.33,0,.42.33.48.66-.16-.22-.44-.3-.48-.66Z"/><path class="cls-4" d="M-111.13,208.61c.34.21,1.12,0,1.63.22-.22.35-1.48.22-1.63-.22Z"/><path class="cls-4" d="M29,212.66c-.16.08-.68-.19-.86-.44.24-.16.75.11.86.44Z"/><path class="cls-4" d="M27.75,212.66c-.12.3-.52.28-.86.33,0-.2.12-.23.1-.44.45,0,.54-.19.77.11Z"/><path class="cls-4" d="M28.14,212.87c-.15.14-.36.47-.58.22.2-.09.4-.41.58-.22Z"/><path class="cls-4" d="M17,213.31c.16.19.6,0,.57.44-.36,0-.56-.09-.57-.44Z"/><path class="cls-4" d="M-144.75,216.92c-.15.41-1.08.51-1.34.44.18-.45.82-.37,1.34-.44Z"/><path class="cls-4" d="M17.6,217.79c.32,0,.11.58-.19.55,0-.27.15-.34.19-.55Z"/><path class="cls-4" d="M-150.4,218.23a8.17,8.17,0,0,1-2.68,1,9.16,9.16,0,0,1,2.68-1Z"/><path class="cls-4" d="M-198.86,220.31c.39-.09.49.17.86.11a5.31,5.31,0,0,1-1.25.55c-.15-.8.68,0,.38-.66Z"/><path class="cls-4" d="M64.44,221.51c.29-.23.46.48.19.76-.29-.22.18-.64-.19-.76Z"/><path class="cls-4" d="M26.22,222.93c-.53.19,0,1-.38,1.2-.08-.17-.11-1.68.38-1.2Z"/><path class="cls-4" d="M26.7,223.59c.32.1,0,.2.1.55-.15,0-.16-.1-.29-.11v-.22c.16,0,.18-.09.19-.22Z"/><path class="cls-4" d="M-33.64,225.12c.23.33.63.45.67,1-.45,0-.34-.56-.86-.44-.07-.34.26-.21.19-.55Z"/><path class="cls-4" d="M-30.86,226.21a.79.79,0,0,1,.38.77.79.79,0,0,1-.38-.77Z"/><path class="cls-4" d="M-32.68,226.76c.4-.27.8.4.67,1.09-.23,0-.21-.2-.48-.11,0,.28.18.38.29.55s-.24.09-.38.11a2,2,0,0,1,.1.76c-.53-.06,0-1.36-.67-1.2.25-.52-.19-.73,0-1.09.36,0,.5.66.86.33a.94.94,0,0,0-.38-.44Z"/><path class="cls-4" d="M86.18,227.09c-.1.15-.26.21-.29.44-.08,0-.1-.11-.19-.11v-.22c.23,0,.21-.2.48-.11Z"/><path class="cls-4" d="M-39.87,227.74c.25-.32.41.4.38.77-.48-.08,0-.61-.38-.77Z"/><path class="cls-4" d="M83.69,227.63c.43,0-.08,1.11.48,1,0,.26-.44-.06-.29.33-.36-.1-.12-.88-.19-1.31Z"/><path class="cls-4" d="M-27.8,228c0-.15.24-.09.38-.11a.54.54,0,0,1-.1.66c-.3.05-.07-.5-.29-.55Z"/><path class="cls-4" d="M85,228.95c-.1.18-.41.12-.58.22-.12-.27.21-.53,0-.55.21,0,.52-.2,1,.11.05.44-.69,0-.38.22Z"/><path class="cls-4" d="M84.07,229.49c-.08,0-.09,0-.1-.11s-.05.11,0,.11c-.11.42-.37-.42-.48,0-.21,0,0-.39-.1-.55.26,0,.33.17.19.33.27,0,.19-.37.57-.22,0,.2-.12.23-.1.44Z"/><path class="cls-4" d="M87.81,229.16c-.11.11-.36.6-.1.77-.09.21-.58-.05-.57-.33.35.07.27-.33.67-.44Z"/><path class="cls-4" d="M-34.22,232.45c.24-.13.3-.46.48-.66a1.68,1.68,0,0,0-.38-.33c.31-.08.34-.42.19-.77.21-.24.32.19.57.22a4.42,4.42,0,0,0-.19,1.42c-.35-.08-.37.45-.67.11Z"/><path class="cls-4" d="M-34.12,232.55c.17.18-.09.37,0,.77-.27.09-.25-.15-.48-.11.16-.22.14-.64.48-.66Z"/><path class="cls-4" d="M81.49,232.66c.38,0,.5.38.67.66a1,1,0,0,1-.67-.66Z"/><path class="cls-4" d="M-120.61,232.88c.22-.5.53.75.1.66.16-.17,0-.51-.1-.66Z"/><path class="cls-4" d="M84.17,234.09h.38c.08.42-.46.42-.38,0Z"/><path class="cls-4" d="M21,236.05c.24-.43.49.59,0,.44,0-.07.24-.42,0-.44Z"/><path class="cls-4" d="M-137,238.13a.3.3,0,0,1,.19.22v2.08c.07.51-.16.51-.1,0v-1a5.21,5.21,0,0,1-.1-1.31Z"/><path class="cls-4" d="M102.75,238.24c0,.11-.69.3-.67.76-.29-.41.15-.92.67-.76Z"/><path class="cls-4" d="M-44.37,244.47c-.1.27-.42-.21-.38.33-.27,0-.12-.52-.48-.44.29-.44.5,0,.86.11Z"/><path class="cls-4" d="M-109,247.53c.11.56.46.87.57,1.42-.33-.09-.37.16-.67.11a.27.27,0,0,1,.29-.22c0-.14-.17-.17-.19-.33-.3-.05-.07.5-.29.55s-.31-.37-.48-.55a1,1,0,0,0,0-1.09c.22-.24.32.28.77.11Z"/><path class="cls-4" d="M-157.2,248a11.65,11.65,0,0,1,.1,2.51,11.65,11.65,0,0,1-.1-2.51Z"/><path class="cls-4" d="M-136.8,250c.22.11.2.5.19.87-.34-.17,0-.47-.19-.87Z"/><path class="cls-4" d="M-186.12,251.36a9.2,9.2,0,0,1,4.88.87c-1.5,0-3.2-.71-4.88-.87Z"/><g class="cls-5"><path class="cls-4" d="M-157.1,253.33h-.19c.07-.65,0-.95,0-1.75.34.43,0,1.16.19,1.75Z"/><path class="cls-4" d="M-34.12-30.07c0,.11-.12.08-.19.11,0,.27.15.34.29.44-.16.38-.19-.27-.38-.22s.2.57-.1.77c-.19-.44-.78-.42-1.15-.66,0,0,.59-.06.1-.22.11-.25.37.15.48-.22Z"/></g><path class="cls-4" d="M-49.83-29.85c.23.24-.36.91-.57.66.21-.2.47-.33.57-.66Z"/><path class="cls-4" d="M-1.27-27.44a4.79,4.79,0,0,1-.29-.66c.32-.41.47.06,1,0a1.08,1.08,0,0,0,.77,1c-.33.14-.21.28-.29.55,0-.6-.66-.49-.67-1.09-.1.07-.1.25-.29.22-.07.34.26.21.19.55-.46.39-.66-.29-1.05-.33.48,0,.1-.39.67-.22Z"/><path class="cls-4" d="M-2.13-24.93c.31.43.32,0,.67-.11-.12.13-.08.45.19.44a.8.8,0,0,1-.1.55c-.07-.11-.54-.54-.38-.22-.12.2-.43-.31-.38-.66Z"/><path class="cls-4" d="M-.41-24.38c.86.49-.42.65-.67.55,0-.53.56,0,.48-.44.11,0,.08.2.1.33.24-.07.17-.36.1-.44Z"/><path class="cls-4" d="M87.33-23.18c-.2-.36.68.74,0,.66,0-.11.12-.08.19-.11s-.17-.09-.29-.11c.05-.22.29-.21.1-.44Z"/><path class="cls-4" d="M85.12-22.85c0-.11-.12-.08-.19-.11.08-.39.49.28.57-.11.32.2-.38.71-.19.77-.08.33-.41-.53-.19-.55Z"/><path class="cls-4" d="M-46.86-21.76s.78-.39.67.22a3.23,3.23,0,0,1-.67-.22Z"/><path class="cls-4" d="M-174.15-19.24a7.43,7.43,0,0,1,1.72,2.19c-.55-.76-1.38-1.19-1.72-2.19Z"/><path class="cls-4" d="M43.56-18.81c0-.23.14-.21.29-.22s0-.1-.1-.11c.22-.42.14.41.38.33,0,.21-.32-.13-.57,0Z"/><path class="cls-4" d="M-78.47-16.4c.15.18.36,0,.58.22-.06.23-.59.1-.67,0,0-.25.06-.51.38-.44a.27.27,0,0,1-.29.22Z"/><path class="cls-4" d="M-64.48-16.4c.16.07.06.25-.1.22,0,.13,0,.19.1.22s0,.1-.1.11h-.19v-.33a.27.27,0,0,0,.29-.22Z"/><path class="cls-4" d="M-79.81-14.76c-.44-.21.19-.06.19-.55q.51,0,.48.55a1.34,1.34,0,0,1-.77.22c0-.13,0-.19.1-.22Z"/><path class="cls-4" d="M-133.64-13c0-.13,0-.19-.1-.22a3.06,3.06,0,0,1,1.72-.55c-.17.28-.62.25-.86.44,1.16.69.13.17-.77.33Z"/><path class="cls-4" d="M-209.69,4.48c-.27.21-.12.21-.57,0V3.61c.88-.24.25,1.25,1.05,1.09,0,.34-.26.29-.29.55.11.71.61,1,1.15,1.2a1.92,1.92,0,0,1-1.82-1.31c0-.26.36,0,.38.11a.72.72,0,0,0,.1-.77Z"/><path class="cls-4" d="M-55.48,11.81a1.15,1.15,0,0,1,.67,0c0,.37.17.47.29.66-.05.25-.15-.13-.29.11,0,.44.77,0,.77.44-.12.27-.19.58-.57.55a1,1,0,0,0-.67-1c.16-.36,0-.55-.19-.77Z"/><path class="cls-4" d="M-55.1,14.21a4.85,4.85,0,0,1,.86-.11c-.05.34-.36.39-.67.44-.08-.09-.06-.3-.19-.33Z"/><path class="cls-4" d="M-182.58,15.53c-.26-.08-.18.23-.29.33s-.22-.19-.19-.44c.25,0,.56-.06.57.22.28.12-.15.12-.1-.11Z"/><path class="cls-4" d="M-53.18,18c0-.45.14-1.09.67-1.2-.09.54.26.58.29,1-.39.07-.9.44-1.25.22.07-.19.17,0,.29,0Z"/><path class="cls-4" d="M-62.18,20.34c-.31-.21-.24.07-.19.44-.3,0-.33-.28-.38-.55.08,0,.1.11.19.11.12-.2.36-.53.38,0Z"/><path class="cls-4" d="M-117,23.4c.08,0,.09,0,.1.11s.18,0,.48.11a.41.41,0,0,1-.38.22c0-.22-.26-.14-.19-.44Z"/><path class="cls-4" d="M-117.83,23.51c.32.11,0,.43.38.55-.13.42-.46-.4-.48-.11-.28-.09.22-.16.1-.44Z"/><path class="cls-4" d="M-118.41,24.38c.13-.21.58.14.57.44-.27-.06-.31-.38-.57-.44Z"/><path class="cls-4" d="M-83.26,25.47c.48,0,.06.32.29.55,0,.18-.34-.26-.29-.55Z"/><path class="cls-4" d="M-181,26.24c.36,0,.45.22.67.33,0,.07-.78.1-.67-.33Z"/><path class="cls-4" d="M-161.41,29.3h.38c0,.23-.14.21-.29.22s0,.1.1.11c0,.27-.27-.1-.19-.33Z"/><path class="cls-4" d="M-182.2,29.63c.08-.16.58.13.57.44-.36,0-.34-.34-.57-.44Z"/><path class="cls-4" d="M114.15,30.18c.37,0,.37.37.67.44,0,.42-.57-.24-.67-.44Z"/><path class="cls-4" d="M-158.06,31.6c0,.22-.36.1-.38.33-.32-.1,0-.2-.1-.55.19.21.15.4.48.22Z"/><path class="cls-4" d="M-157.77,31.82c.11.14-.38.51-.19,1.09-.11-.16-.28-.27-.29-.55.29,0,.21-.49.48-.55Z"/><path class="cls-4" d="M-159.31,31.6c.36.19.07.54.67.33a3.79,3.79,0,0,1,.19,1.2c-.3-.13-.23.17-.38.22.35.35.28.56.38,1.09-.77-.46-.7-1.82-.86-2.84Z"/><path class="cls-4" d="M6.3,35.31c0,.2.12.23.1.44-.47-.12-.75.27-.86-.55.6.74.32,0,1.05-.11-.17.56,1-.06,1.25.55-.08.32-.24-.14-.48,0-.09,0-.17.1-.19.22-.13.47.46.14.38.55-.54-.26-.15,0-.67.11.21-.25.08-.29.19-.55-.08-.32-.31.07-.48,0,0-.13,0-.19-.1-.22s.12-.08.19-.11c-.08-.16-.14-.35-.38-.33Z"/><path class="cls-4" d="M9.75,37.61H10c0,.34-.26.49.19.44q.07.51-.38.44c-.26-.44.25-.53-.1-.87Z"/><path class="cls-4" d="M-82.49,39.8a25,25,0,0,1-4.12,2.62,24.12,24.12,0,0,1,4.12-2.62Z"/><path class="cls-4" d="M-88,43.41a2.17,2.17,0,0,1-1,.77c.19-.4.6-.56,1-.77Z"/><path class="cls-4" d="M-46.48,44.17h.29c0,.32-.13.41,0,.55,0,.12-.1.06-.1,0s-.09,0-.1.11c-.06-.18.13-.29-.1-.66Z"/><path class="cls-4" d="M-66.59,48.54c1.8,1.45,3.55,3.89,5.46,5.58-2-1.23-3.71-3.7-5.46-5.58Z"/><path class="cls-4" d="M31.78,49.42c0,.4,0,.79,0,1.42-.61-.07-.32-1.18,0-1.42Z"/><path class="cls-4" d="M-41.3,52.37c-.19-.18.75,0,.58.55-.35,0-.37-.38-.58-.55Z"/><path class="cls-4" d="M-42.45,52.37c.26.23-1,.92-.86.11.28,0,.77.33.86-.11Z"/><path class="cls-4" d="M-34.41,52.92c.29.08.28-.19.57-.11-.2.24-.57.37-.48.66-.08.23-.06-.21-.1-.55Z"/><path class="cls-4" d="M-69.08,53c.41-.18.59.85,1.05,1-.55.13-.61-.83-1.05-1Z"/><path class="cls-4" d="M-33.55,53.25c.11.1,0,.2.1.55-.31.13-.07-.35-.38-.22,0-.25.28-.12.29-.33Z"/><path class="cls-4" d="M-63.33,54c.39-.26.63.59,1.25.44-.24.43-1.1-.06-1.25-.44Z"/><path class="cls-4" d="M-66.69,55.87c.17-.19.56.3.77.44-.27.3-.53-.34-.77-.44Z"/><path class="cls-4" d="M-57.11,58.06a8.32,8.32,0,0,1,1.72,1.53,5.34,5.34,0,0,1-1.72-1.53Z"/><path class="cls-4" d="M-45.71,69.54c.27-.23.65.34.86.55a4.42,4.42,0,0,1-.86-.55Z"/><path class="cls-4" d="M-6.63,73v-.33c.3-.05.27.28.38.44s-.13-.23-.38-.11Z"/><path class="cls-4" d="M104.66,74c.4,0,.43.53.67.77,0-.06-.76-.22-.67-.77Z"/><path class="cls-4" d="M53.33,74.35c.27-.15.62.52.86.77,0,.37-.54-.34-.29,0,0,.16-.29,0-.29.22,0-.29.11-.72-.29-1Z"/><path class="cls-4" d="M67.5,75.33c0-.14.34-.39.29-.77.46.24,0,.8,0,1.2-.13,0-.15-.19-.29-.22.08-.19.32-.42,0-.22Z"/><path class="cls-4" d="M50.74,74.68c.4-.05-.13.34.38.22v.33c-.3,0-.33-.28-.38-.55Z"/><path class="cls-4" d="M53.9,75.44c.14-.14.21.19.57,0-.5.47.33.13.29.66-.46.08-.43-.39-.86-.33,0-.19.16-.28,0-.33Z"/><path class="cls-4" d="M77.18,78.61c.16-.28.67,0,.77.11-.09.2-.48-.17-.77-.11Z"/><path class="cls-4" d="M-38.62,79.38c.54,0,1.05,1,1.63,1.31-.53,0-1-1-1.63-1.31Z"/><path class="cls-4" d="M79,79.81c.2-.55.4.1.48.33-.18.33-.14-.48-.48-.33Z"/><path class="cls-4" d="M-138.33,80.36a9.07,9.07,0,0,1-2.3.77,9.37,9.37,0,0,1,2.3-.77Z"/><path class="cls-4" d="M-36.9,81c.4-.05.86.76,1.25,1.09-.35,0-.77-.87-1.25-1.09Z"/><path class="cls-4" d="M-78,81.56c.08.08,0,.52.48.44a.45.45,0,0,1-.48.22c.08-.38-.18-.46,0-.66Z"/><path class="cls-4" d="M-41.3,83.75c.24-.32.64.1.86-.11v1c-.32,0-.34-.41-.77-.33-.05-.16.11-.57-.1-.55Z"/><path class="cls-4" d="M5.05,85.17a.38.38,0,0,1,.1.55c-.18.1-.32-.33-.38,0-.26-.1.17-.31.38-.22a.56.56,0,0,1-.1-.33Z"/><path class="cls-4" d="M4.29,87c.07-.52.6-.4.48-.87.17,0,.2.13.38.11-.45.26-.1.33,0,.77-.3.08-.18-.3-.48-.22-.08,0-.1.11-.19.11,0,.24.08.35.29.33-.2.4-.31-.22-.48-.22Z"/><path class="cls-4" d="M79.28,86.26c.16-.25.52.2.77.22-.17.25-1-.42-.48.22.15.27-.38-.37-.29-.44Z"/><path class="cls-4" d="M4.77,88a1.23,1.23,0,0,0,.57.77c.69-.44.33-.82,1.15-1,0,.25,0,.41-.19.44.27.17.59.28.67.66-.34-.09-.46.25-.67,0,.1-.15.16,0,.29-.22-.16-.17-.39.08-.38-.44-.22.11-.2.5-.19.87a5.6,5.6,0,0,0-1.34-.44c.18-.38-.26-.58.19-.87.21-.06.14.21.29.22,0,.28-.17-.15-.38,0Z"/><path class="cls-4" d="M-25.79,89.33c-.26.1.29.24,0,.44h-.48c.06-.19-.12-.64.1-.66-.47,0-.32-1-.86-.66.11-.56.89-.32,1.25-.11,0,.13-.17.09-.29.11.27.38.91.15,1.15.77-.22,0-.36,0-.38-.22-.21,0,0,.39-.1.55.31-.06.45.07.67.11-.28.2-.22.27-.29.55-.18-.27-.3-.68-.77-.87Z"/><path class="cls-4" d="M-20.33,93.92c-.17,0-.57-.4-.38-.11,0,.11-.12.08-.19.11s0-.1-.1-.11c.07-.25.74-.38.67.11Z"/><path class="cls-4" d="M105,95.34c0,.19-.17.25-.38.22.06.1.12.2,0,.22.63,0,.07.38.57.77,0,.12-.1.06-.1,0-.16,0-.18.09-.19.22-.42-.15,0-.53-.57-.55,0-.26.17-.32.1-.66.28,0,.29-.25.58-.22Z"/><path class="cls-4" d="M-155.38,96.87c-.43.06-.25-.5-.1-.66,0-.19-.59-.58-.58-.11-.48-.41.56-.57.67-.11.1-.55-.1.56,0,.87Z"/><path class="cls-4" d="M33.69,99.06c.46.28,1.13.32,1.34.87-.31-.31-.85-.05-1.15-.55-.05.17-.44.84-.48.33-.08,0-.09.11-.19.11a.3.3,0,0,0,.19.33c.43-.56.81.17,1.15,0,0,.37-.29.33-.38.55a2.28,2.28,0,0,0-1.34-.55c.07-.61.79-.49.86-1.09Z"/><path class="cls-4" d="M67.12,100.48c.22.32-.55.28-.67.33,0,.14.17.17.19.33.1-.07.1-.25.29-.22.17.63-.15.66,0,1.31-.19-.08-.39-.33-.19-.55-.45.5-.09,1.28.1,1.64-.74.34-.5-1.2-.86-1.64,0-.26.3-.24.38-.44-.12-.22-.46-.2-.38-.66.54.2.8-.52,1.05,0,.08,0,.09,0,.1-.11Z"/><path class="cls-4" d="M32.35,101.24c-.31-.19.11-.44.19-.55s.22.19.19.44c.24-.09.45-.55.77-.22-.13.6-.88.07-1.15.33Z"/><path class="cls-4" d="M68.17,100.7c.17.09-.06.12-.19.11a.3.3,0,0,0,.19.33c0,.23-.42,0-.38.33.15-.35-.39-.19-.48-.55.49.24.43-.15.86-.22Z"/><path class="cls-4" d="M67.69,102.12c-.24,0-.3-.21-.38.11.08.23-.12-.13,0-.55a3.22,3.22,0,0,1,.67.77c0,.16-.12,0-.29,0v-.33Z"/><path class="cls-4" d="M-18.22,104.85c0-.31-.36-.31-.58-.44-.06.44.25.44.58.44Zm1.82-1.31c-.07,0-.19,0-.19.11.42-.06.67-.33.67-.87-.54-.23-.34.27-.67.11.1.06,0,.42.19.66Zm-1,.11c0-.37-.37.29-.29-.22.22-.26.26.17.48.22.4-.4-.31-.44-.29-.76.33-.06,1-.74,1.63-.22.14.49,0,.64,0,1.2-.11,0-.17,0-.19.11-.44.1-.46-.27-.86-.22,0,.55-.54.11-.19.87.17,0,.22-.19.19-.44.21,0,.21.28.19.55-.33.13-.91.43-1.25.22-.19,0-.14.5.1.33-.26.07-.27.42-.57.44.16-.28-.11-.38.1-.55-.14-.24-.57-.15-.77-.33.05-.34.33-.42.38-.77.21.2.51.29.67.55a8.94,8.94,0,0,1,.86-.77c0-.34-.48-.18-.38.22-.36-.1-.11-.48.19-.44Z"/><path class="cls-4" d="M-19.66,104.2c.12-.34.12.31,0,.33.24,0,.3-.21.48,0a.79.79,0,0,1-.67.22v-.33c.16,0,.18-.09.19-.22Z"/><path class="cls-4" d="M-15,106.05c-.29.08-.35-.11-.57-.11.47,1-1.12.11-1,.87-.94,0-.59-.84-1.34-1.09.12-.33.37.08.48.11s.14-.5-.1-.33c.21-.37.44.14.67.11.16-.36.24-.82.67-.87.32.48-.13.87.19,1.09.29-.21.38-.33.67-.33,0-.51-.31-.14-.67-.33,0-.75.55.11.77-.22a.87.87,0,0,1-.38-.55.49.49,0,0,1,.67.11c-.38-.07-.08,1-.1,1.53Z"/><path class="cls-4" d="M89.05,105.73c0-.28.16.15.38,0,0,.42.1.39-.1.66-.17-.15.08-.54-.29-.66Z"/><path class="cls-4" d="M25.84,107.8c-.28-.31.44.25.48-.11.3.36-.33.35-.48.11Z"/><path class="cls-4" d="M-3.47,109.12c.08,0,.09,0,.1.11s0,.1.1.11a.67.67,0,0,1-.29.22c.08.16.14.35.38.33-.08.32-.24-.14-.48,0a2,2,0,0,1,.19-.77Z"/><path class="cls-4" d="M-4.52,109.77c-.22.09-.3.63-.58.33.06-.26.36-.24.58-.33Z"/><path class="cls-4" d="M-98.49,111c.11-.13.34-.12.57-.11-.06-.11-.22-.11-.19-.33.51-.13.64,0,1.05.22,0,.24-.41,0-.58.11,0,.13.17.09.29.11-.25.28-.47.27-.67.77a.42.42,0,0,0-.29-.11c0-.21.44,0,.29-.44-.31.05-.57.4-.77,0-.2,0,.14.29-.1.44a.42.42,0,0,1,.29-.11c0,.29-.27.28-.38.44a19.41,19.41,0,0,0-.86-2c.54.2,1.52.31,1.34,1Z"/><path class="cls-4" d="M-5.77,111.08a.67.67,0,0,1,.67-.44c-.19.25-.19.29,0,.55s-.32-.28-.67-.11Z"/><path class="cls-4" d="M-4.52,111.63c-.27-.09-.33-.43-.48-.66.17-.22.53.35.77-.11a.5.5,0,0,1,.19.44c-.24,0-.34.2-.48.33Z"/><path class="cls-4" d="M-9.31,114.91c0-.12.1-.06.1,0,.17,0,.2-.13.38-.11a.27.27,0,0,1-.29.22v.33c-.28-.1,0-.4-.19-.44Z"/><path class="cls-4" d="M-97.62,117.86c.35,0,1,.58,1.34.87-.37.06-.85-.7-1.34-.87Z"/><path class="cls-4" d="M.84,120.6c-.38-.4-.89-1.56-.67-1-.1-.26-.35.61-.29-.22,0-.11.42-.33.19-.87.49.1.52.72,1,.87a3.45,3.45,0,0,0,0,1.09c-.17.34-.4.18-.57.33-.34-.19.19-.28.38-.22Z"/><path class="cls-4" d="M-58.93,119.72a5.54,5.54,0,0,1-.86.44c.14-.31.5-.38.86-.44Z"/><path class="cls-4" d="M-94.85,119.94c.38-.07.93.61,1.34.87-.39.08-.88-.67-1.34-.87Z"/><path class="cls-4" d="M.65,121.14c.17-.1.35.15.77,0-.16.35-.56.17-.77,0Z"/><path class="cls-4" d="M-199.44,124.53c.29-.29.88,0,1.15.11-.28.28-.62-.31-1.15-.11Z"/><path class="cls-4" d="M-62.85,125.73c.45-.16,2.32.38.57.22-.09,0-.6,0-.57-.22Z"/><path class="cls-4" d="M-97.34,128.47c-.33.36-1,.36-1.44.55-.4,0,1-.49,1.44-.55Z"/><path class="cls-4" d="M-12.86,128.8c-.21-.24.47,0,.58.11,0,.51.23.72-.29.87.16-.39.23-.37.1-.87-.15,0-.17.1-.29.11.21.28-.09.62.1.77,0,.09,0,.1-.1.11H-13c.08-.4.39-1,.19-1.09Z"/><path class="cls-4" d="M6.49,133.93c.3-.3.53.41.57.76-.22.15-.36-.28-.38,0-.15-.1.36-.74-.19-.76Z"/><path class="cls-4" d="M6,135c.21-.1.64-.24.77-.11s-.17.24-.1.55c-.17-.16-.51-.23-.38,0-.09.26-.29-.24-.29-.44Z"/><path class="cls-4" d="M6.39,135.9c.08-.28.5-.15.67-.33,0-.22-.26-.14-.19-.44.16,0,.18-.08.19-.22.24.06.34.27.48.44-.24.13-.35.4-.29.87-.33-.06-.42-.39-.86-.33Z"/><path class="cls-4" d="M-228.84,135.57a1.09,1.09,0,0,1-.67,1,7.44,7.44,0,0,0,.67-1Z"/><path class="cls-4" d="M56,136.45c.26,0-.25-.42.19-.33.08.35-.15.34-.19.55-.47,0-.73-.27-1,.22-.15,0,.06-.41-.19-.55,0-.29.54.1.38-.33.24.29.53,0,.77.44Z"/><path class="cls-4" d="M-56.15,138.09c.48-.25.72.71,1.15.87-.28,0-.78-.64-1.15-.87Z"/><path class="cls-4" d="M-34.5,141.7a.71.71,0,0,1-.86-.44c0-.42.32-.51.29-1,.29.17-.08.48,0,.77s.17.17.19.33c.13,0,.08-.27.1-.44.35.1.57.67.29.87-.11,0-.05-.11,0-.11Z"/><path class="cls-4" d="M-48.68,142.24c.1-.24.64-.09.57.22-.24.14-.4-.32-.48,0-.15,0,.08-.19-.1-.22Z"/><path class="cls-4" d="M-53.85,143.23c-.43-.21-.43.14-.67,0,0-.18.71-.44.67,0Z"/><path class="cls-4" d="M-45.71,143.12c0-.17.17.1.19-.11,2.89,1.78,6.52,3.52,9.29,5.79-3-1.71-6.47-3.68-9.48-5.69Z"/><path class="cls-4" d="M-14.68,143.45v-.22a.42.42,0,0,1,.29-.11c0,.25,0,.41.19.44-.07.27-.26-.2-.48-.11Z"/><path class="cls-4" d="M-30.58,147.38c.86.07,1.9.89,2.87,1.2-.88,0-1.91-.88-2.87-1.2Z"/><path class="cls-4" d="M-17.93,149.24c.21-.24.62.23,1,.22-.16.18-.76-.08-1-.22Z"/><path class="cls-4" d="M-130.57,150.12c.24.32-.39.57-.58.77s.47-.51.58-.77Z"/><path class="cls-4" d="M4.19,151.1c.28.06-.15.17-.1.33.31,0,.2-.42.48-.44-.34.07,0-.56.48-.55a6.72,6.72,0,0,1-1.44,1.75c0-.18.42-.76.58-1.09Z"/><path class="cls-4" d="M-33,150.66a21.14,21.14,0,0,1,5.27,3c.13.13,0,0-.1,0-1.77-.93-3.47-1.95-5.17-3Z"/><path class="cls-4" d="M-23.11,151.1c0-.3.71.24,1,.33-.32.32-.56-.38-1-.33Z"/><path class="cls-4" d="M-131.53,151.1c-.09.59-1.12,1-1.53,1.64.09-.59,1.1-1.08,1.53-1.64Z"/><path class="cls-4" d="M20.76,152.41c-.36-.23-.25.16-.67.11.06.11.22.11.19.33-.34,0-.35.33-.67.33,0-.23.64-.35.29-.66.38-.18.8-.33.77-1a.49.49,0,0,0,.38.11v.44c-.31-.09-.06.16-.29.33Z"/><path class="cls-4" d="M-21,152.3c.52,0,1.31.69,1.92,1-.6.07-1.31-.69-1.92-1Z"/><path class="cls-4" d="M17.79,152.63c.11-.31.74-.5.67.11,0-.14-.58-.14-.29,0-.08.32-.14-.25-.38-.11Z"/><path class="cls-4" d="M-133.35,152.74c0,.48-.92.92-1.25,1.42,0-.56.92-.92,1.25-1.42Z"/><path class="cls-4" d="M17.7,153.51c-.13,0-.08.27-.1.44-.14-.33-.52-.8-.29-1.2,0,.76.79.7,1.15,1.09.08,0,.1-.11.19-.11a2.5,2.5,0,0,1-.38-.44c0-.21.32.13.57,0,.08.6-.25.73-.57.87.17-.63-.54-.26-.57-.66Z"/><path class="cls-4" d="M-18.41,153.83a17.08,17.08,0,0,1,1.92.77,3,3,0,0,1-1.92-.77Z"/><path class="cls-4" d="M116.73,154.6c0-.15.24-.09.38-.11,0,.46-.33.54-.1,1-.48-.1.16-.82-.29-.87Z"/><path class="cls-4" d="M118,156.79c-.17-.07,0-.52-.19-.55a.41.41,0,0,1,.38-.22c-.11.45,0,1.14-.57,1.09,0-.22.26-.22.38-.33Z"/><path class="cls-4" d="M-9.89,157.22c-.13-.19.74.2,1,.33-.22.2-.68-.24-1-.33Z"/><path class="cls-4" d="M-8.84,157.66c.16-.11.8.18,1.05.33-.23.19-.72-.27-1.05-.33Z"/><path class="cls-4" d="M-141.11,159.74c-.83,1.38-2.84,2.37-4,3.72.33-.75,1.21-1.23,1.92-1.86s1.47-1.27,2.11-1.86Z"/><path class="cls-4" d="M23.25,161c-.33,0-.29-.33-.48-.44s-.08.27-.1.44c-.61-.77-2.22-.38-3.16-.77,1.21,0,3.27-.16,3.74.77Z"/><path class="cls-4" d="M-165,162.36c.15-.27.39.28.38.55-.4.13-.17-.46-.38-.55Z"/><path class="cls-4" d="M-169.84,162.69c.13-.08.68.13.86.11-.18.27-.76.08-.86-.11Z"/><path class="cls-4" d="M-165,163.67c0-.13-.17-.09-.29-.11,0-.28.83-.39.77,0-.14,0-.27,0-.29-.11a.5.5,0,0,0-.19.44c0,.41-.24-.32,0-.22Z"/><path class="cls-4" d="M17.12,163.78c.28,0,.33.21.48.33s-.65.09-.48-.33Z"/><path class="cls-4" d="M17.22,164.33c.24-.08,0,.76.29.22.49.24-.2.42-.57.33-.07-.37.39-.14.29-.55Z"/><path class="cls-4" d="M18.56,164.33a.49.49,0,0,0,.38.11c-.21.32-.38.44-.38.76s.26-.16.38.11-.29,0-.29.22c-.18-.47-.44-.17-.57-.66.47,0,.44,0,.48-.55Z"/><path class="cls-4" d="M19.61,164.66c.1.09,0,.89-.38.55-.1.41.24.31.19.66-.31-.06-.3.21-.48,0a5,5,0,0,0,.38-1.09c.14,0,.27,0,.29-.11Z"/><path class="cls-4" d="M50.45,172.64c0-.31.29-.25.29-.55.12,0,.1.22,0,.22.16.18.46.2.57.44.27.12-.69,0-.86-.11Z"/><path class="cls-4" d="M31.39,172.86c0-.12.1-.06.1,0s.09,0,.1-.11a.57.57,0,0,1,.19.55.31.31,0,0,1-.19-.22c-.38.27.07-.12-.19-.22Z"/><path class="cls-4" d="M12.72,175.48c.22.33.61.47.67,1-.18-.38-.58-.51-.67-1Z"/><path class="cls-4" d="M27.75,184.67c-.57.11-1.36-.48-1.92-.77.24-.15,1.3.61,1.92.77Z"/><path class="cls-4" d="M-205.66,188.82c.09.1-.29.58.19.66-.3.4-.16.54-.19.87-.36-.14-.37-.67-.48-1.09.28,0,.36-.25.48-.44Z"/><path class="cls-4" d="M14.92,199c0-.42-.28-.48-.57-.33.06-.68.81-.11.77.33-.31-.07-.13.39-.38.11,0-.11.12-.08.19-.11Z"/><path class="cls-4" d="M70,198.22c-.08.52.23.3.29.44V199c-.6-.24-.57.11-1.05.22-.18-.21,0-.27,0-.55-.23-.31-.54.11-.77-.11a.85.85,0,0,0,.29-.87c.22,0,.36-.17.67-.11.1.52.5.11.77.22.13.39.58.43.67.87-.49.08-.59-.27-.86-.44Z"/><path class="cls-4" d="M15.78,216.15c.3.13-.05.32.29.33-.06.26-.42.18-.29.66-.24-.12-.28-.48-.29-.87-.2-.05-.18.16-.19.33-.11.35-.11-.29-.1-.44.43.15.43-.48.67-.22-.15-.18.18-.44.19-.77.35.07.16.64,0,.77.06.33.2-.1.38,0s-.18.16-.19.33c-.17-.1-.28-.35-.48-.11Z"/><path class="cls-4" d="M-198.77,221.84c-.25,0-.48,0-.38.33-.16-.11-.1-.46-.19-.66.41.14.49,0,.67-.33.26.21,1-.11.86.55-.34-.3-.91-.27-.86.44.26.2-.26,0-.1-.33Z"/><path class="cls-4" d="M26.51,222.71c.27,0,.17.46.19.77-.38-.27-.13.12-.38.33-.32-.38.41-.48.19-1.09Z"/><path class="cls-4" d="M84.17,226.87c-.31-.14-.07.35-.38.22,0-.72,1.12,0,.77.33-.16-.14-.19-.44-.38-.55Z"/><path class="cls-4" d="M-33,228.73c.38,0-.07.34.19.44-.09.19-.35.18-.38.44-.12-.07,0-.75.19-.87Z"/><path class="cls-4" d="M-35.46,230c.09.31.17.94,0,.87-.23-.26,0-.54,0-.87Z"/><path class="cls-4" d="M-127.22,232.23a25.66,25.66,0,0,1,3.83,3.28,7,7,0,0,1-2.59-2.3c-.57-.15-.82-.67-1.25-1Z"/><path class="cls-4" d="M-117,242a60.27,60.27,0,0,1,5.36,5.47A32.85,32.85,0,0,1-117,242Z"/><path class="cls-4" d="M-135,249.72c0-.22.26-.14.19-.44a2.29,2.29,0,0,0,.48.87c-.1.36-.27.64-.67.66,0-.36.11-.53.38-.55-.4-.15.32-.58-.38-.55Z"/><path class="cls-4" d="M-180.86,252.45c.52-.63,2.17.39,3.06.55-.89.11-2-.44-3.06-.55Z"/><path class="cls-4" d="M-78.56-16.18c.08.35-.32.15-.29.44s.52-.25.57.11c-.09.53-.8-.18-.48.55a1.17,1.17,0,0,1-.57-.87c.46.16.4-.27.77-.22Z"/><path class="cls-4" d="M-157.87,29.74c-.25.47.31.37.19,1-.09,0-.17-.1-.19-.22s-.07.13-.1.22c-.35-.1-.06-.32-.1-.66-.3-.08-.18.3-.48.22,0-.1-.08-.2-.19-.22.24-.16.64-.14.86-.33Z"/><path class="cls-4" d="M-16.69,101.46h.38c0,.2.12.23.1.44-.33,0-.55,0-.48-.44Z"/><path class="cls-4" d="M-14.77,107.15c-.07.52.15.7.1,1.2-.21-.09-.33-.28-.67-.22a.68.68,0,0,0,.1-.44c-.43-.2-.13.43-.48.33v-.87a1.13,1.13,0,0,1,1,0Z"/><path class="cls-4" d="M-4.91,107.37c0-.13.17-.09.29-.11.14.47.27.1.57.66-.33.19-.1.39.1.55-.31.35-.17.66-.29,1.09a1.59,1.59,0,0,1-.48-.76c.14,0,.27,0,.29-.11-.5,0,0-1-.48-1.31Z"/><path class="cls-4" d="M-54.43,132.08c-.5-.33-1.51.39-2.68.22,0-.43,2.94-1,2.68-.22Z"/><path class="cls-4" d="M77,136.89c.51.06-.34.51.19.55,0,.24-.47,0-.67.11,0-.21.27-.2.19-.55.14,0,.27,0,.29-.11Z"/><path class="cls-4" d="M-6,178.32c0,.09,0,.1-.1.11.44.33-.16.94,0,1.64-.17,0-.57.21-.29.33-1-.17-.55-2.16-.86-3.39.26-.14.46-.17.29-.55.22.07.26.36.48.44.32-.08.31-.45.67-.22-.22-.37-.2-1-.77-1,0-.63.09-1.14.57-1.2,0,.95.94.82.86,1.86-.3,0,0-.51-.48-.55-.08.69.41,1,.67,1.75-.38.14-.25-.3-.38-.44a1.9,1.9,0,0,0-.19,1.64c-.33,0-.29-.33-.48-.44Z"/></g></g></mask><pattern id="New_Pattern_2" data-name="New Pattern 2" width="55.27" height="45.7" patternTransform="translate(151.93 -54.73)" patternUnits="userSpaceOnUse" viewBox="0 0 55.27 45.7"><rect class="cls-3" width="55.27" height="45.7"/><polyline class="cls-6" points="0.08 42.5 8.87 34.45 19.49 42.5 27.73 34.45 37.43 42.5 46.22 34.45 55.19 42.5"/><polyline class="cls-6" points="0.08 48.91 8.87 40.85 19.49 48.91 27.73 40.85 37.43 48.91 46.22 40.85 55.19 48.91"/><polyline class="cls-6" points="0.08 19.65 8.87 11.6 19.49 19.65 27.73 11.6 37.43 19.65 46.22 11.6 55.19 19.65"/><polyline class="cls-6" points="0.08 26.06 8.87 18 19.49 26.06 27.73 18 37.43 26.06 46.22 18 55.19 26.06"/><polyline class="cls-6" points="0.08 34.11 8.87 26.06 19.49 34.11 27.73 26.06 37.43 34.11 46.22 26.06 55.19 34.11"/><polyline class="cls-6" points="0.08 3.21 8.87 -4.85 19.49 3.21 27.73 -4.85 37.43 3.21 46.22 -4.85 55.19 3.21"/><polyline class="cls-6" points="0.08 11.26 8.87 3.21 19.49 11.26 27.73 3.21 37.43 11.26 46.22 3.21 55.19 11.26"/></pattern></defs><title>Blue_Card</title><g id="Layer_2" data-name="Layer 2"><g id="Layer_2-2" data-name="Layer 2"><g class="cls-7"><rect class="cls-8" width="521.94" height="226"/></g><circle class="cls-9" cx="321.98" cy="45.14" r="25.4"/></g></g></svg>