<svg xmlns="http://www.w3.org/2000/svg" xmlns:xlink="http://www.w3.org/1999/xlink" viewBox="0 0 245.33 232.26"><defs><style>.cls-1{opacity:0.66;filter:url(#luminosity-noclip);}.cls-2{clip-path:url(#clip-path);}.cls-3,.cls-5{fill:none;}.cls-4{fill:#231f20;fill-rule:evenodd;}.cls-5{stroke:#f2f2eb;stroke-miterlimit:10;stroke-width:0.25px;}.cls-6{mask:url(#mask);}.cls-7{fill:#9aaf87;}.cls-8{fill:url(#New_Pattern_2);}</style><clipPath id="clip-path"><rect class="cls-3" x="-110.66" y="30.06" width="356.37" height="283.4"/></clipPath><filter id="luminosity-noclip" x="-110.66" y="0" width="356.4" height="313.45" filterUnits="userSpaceOnUse" color-interpolation-filters="sRGB"><feFlood flood-color="#fff" result="bg"/><feBlend in="SourceGraphic" in2="bg"/></filter><mask id="mask" x="-110.66" y="0" width="356.4" height="313.45" maskUnits="userSpaceOnUse"><g class="cls-1"><g class="cls-2"><path class="cls-4" d="M74.29,30.06h.19a.6.6,0,0,1,0,.66c-.16-.11-.1-.46-.19-.66Z"/><path class="cls-4" d="M186.83,30.06h.86v.11c0,.51-.14-.12-.38,0,0,.27.15.34.29.44-.08.34-1-.22-.77.44-.36,0-.27-.12-.57,0,.06-.23.15-.41.48-.33l-.29-.33c.07-.38.29-.07.48,0a.56.56,0,0,0-.1-.33Z"/><path class="cls-4" d="M73,30.27c.11-.29.51,0,.38.33-.37.17-.2-.28-.38-.33Z"/></g><path class="cls-4" d="M74.1,30.82c-.06.36-.36.16-.58.11.08-.39.24,0,.58-.11Z"/><path class="cls-4" d="M120.36,30.93h.38c0,.17,0,.42.1.44-.13.24-.41-.25-.48-.44Z"/><path class="cls-4" d="M81.86,31.37c0-.15.24-.09.38-.11-.15.08,0,.54-.29.44,0-.16,0-.31-.1-.33Z"/><path class="cls-4" d="M87.7,31.48c.26-.08.19.22.38.22-.06.33-.2-.1-.38,0,0,.09,0,.1.1.11-.16.38-.28-.26-.1-.33Z"/><path class="cls-4" d="M123.71,31.59a.49.49,0,0,0,.38.11,1,1,0,0,0-.1.66.42.42,0,0,0-.29-.11c.19-.2,0-.4,0-.66Z"/><path class="cls-4" d="M41.73,32h.48c-.11.16-.1.27.1.33-.19.31-.57-.07-.57-.33Z"/><path class="cls-4" d="M-52.52,32.13h.29c.07.33-.1.4-.1.66-.24,0-.19-.37-.19-.66Z"/><path class="cls-4" d="M-35.47,32.35c.24,0,.3.17.48.22-.08.25-.59.11-.48-.22Z"/><path class="cls-4" d="M62,33.55c-.13.16-.43.29-.57.11a.56.56,0,0,0,.1-.33c.29-.08.18.3.48.22Z"/><path class="cls-4" d="M242.29,33.55c.18.16.42.24.38.66h-.38a.6.6,0,0,1,0-.66Z"/><path class="cls-4" d="M122.95,34.43c.2.19.19-.08.38.11-.27.49.28.12.19.66-.29-.14-.68-.17-.57-.77Z"/><path class="cls-4" d="M11.08,34.65c.33-.09.37.16.67.11,0,.36-.72.27-.67-.11Z"/><path class="cls-4" d="M56.48,35.41c.24,0,.19.37.19.66-.14-.16-.35-.47-.19-.66Z"/><path class="cls-4" d="M124,36c.16.14.38.23.38.55-.28,0-.46-.14-.38-.55Z"/><path class="cls-4" d="M56.67,36.72c.27,0,.28.27.29.55a.34.34,0,0,1-.29-.55Z"/><path class="cls-4" d="M198.71,37.82a1.15,1.15,0,0,1,.29.66c-.3,0-.29-.33-.29-.66Z"/><path class="cls-4" d="M207.43,38.15c.27-.09.25.15.48.11a.25.25,0,1,1-.48-.11Z"/><path class="cls-4" d="M75,38.58c.43.22.53.41,1,.22.21.33-.16.74.38.77-.17.29-.57-.07-.48-.44-.15.14-.39.14-.19-.11-.3.16-.62,0-.67-.44Z"/><path class="cls-4" d="M166.81,39.57c.15.2.66,0,.58.44h-.58v-.44Z"/><path class="cls-4" d="M75.92,40.33c.22,0,.45.07.38.44-.12-.15-.51,0-.38-.44Z"/><path class="cls-4" d="M167.58,40.55c.39,0,.29.47.58.55-.3.36-1.16.69-1.34,0a1.67,1.67,0,0,0,1,0c0-.29-.13-.36-.38-.33,0-.12.19-.07.19-.22Z"/><path class="cls-4" d="M42,43.07a.76.76,0,0,0,.57.33c-.17.14-.25.37-.57.33.1-.41-.36-.17-.29-.55.14,0,.27,0,.29-.11Z"/><path class="cls-4" d="M103.6,43.61c-.07.22-.29.45-.48.22.08-.22.33-.39.48-.22Z"/><path class="cls-4" d="M41.25,43.72c0-.13.17-.09.29-.11s0,.1-.1.11c0,.26.44-.06.29.33-.4-.1-.47.05-.86-.11,0-.45.64.06.38-.22Z"/><path class="cls-4" d="M195.17,43.94c.26.4.82.45.86,1.09-.63.1-.63-.51-1.15-.55,0-.31.29-.25.29-.55Z"/><path class="cls-4" d="M-34.8,44.6c.36,0,.34.34.58.44-.06.38-.74.11-.58-.44Z"/><path class="cls-4" d="M172.18,48.1c0,.29-.13.36-.38.33,0-.29.13-.36.38-.33Z"/><path class="cls-4" d="M-11.91,48.42c.21,0,0,.39.1.55a.42.42,0,0,0-.29-.11c-.07-.3.19-.22.19-.44Z"/><path class="cls-4" d="M97.95,48.86c.29.14.31.32.1.55-.32-.1,0-.2-.1-.55Z"/><path class="cls-4" d="M99.19,49.3c.16.14.38.23.38.55-.27,0-.41-.19-.38-.55Z"/><path class="cls-4" d="M238.36,54.11c.23,0,.21.2.48.11v1.09c-.1-.47-.35-.77-.48-1.2Z"/><path class="cls-4" d="M237.88,54.44h.38c-.06.13,0,.81.38.77-.08.57-.43.35-.77.22.32-.31.16-.64,0-1Z"/><path class="cls-4" d="M21.23,54.66c.14.35-.55.53-.48.11.23,0,.21-.2.48-.11Z"/><path class="cls-4" d="M52.55,56.84c.4-.05.25.51.38.77-.34.09-.13.73.1,1-1-.13-.15-1-.48-1.75Z"/><path class="cls-4" d="M52.07,57.17c.18,0,.41,0,.38.33-.25,0-.48,0-.38-.33Z"/><path class="cls-4" d="M47.19,61.87c0,.35-.44.3-.67.44a.67.67,0,0,1,.67-.44Z"/><path class="cls-4" d="M-88.06,64.82c.14.06.24.16.38.22.07.3-.19.22-.19.44-.16-.11-.1-.46-.19-.66Z"/><path class="cls-4" d="M-85.95,64.82c.17,0,.22.19.19.44-.17,0-.2.13-.38.11-.07-.34.33-.13.19-.55Z"/><path class="cls-4" d="M-86.52,65.37c.17.35.59.09.77.22,0,.2.12.23.1.44-.43.25-1,.1-.86-.66Z"/><path class="cls-4" d="M192.2,65.48c.26-.33.6.19.48.66-.26.08-.19-.22-.38-.22.26-.15.14-.31-.1-.44Z"/><path class="cls-4" d="M-3.1,67.45c-.29-.08-.28.19-.57.11-.07-.42.61-.66.57-.11Z"/><path class="cls-4" d="M91.24,68.32c.23.06.49.09.48.44-.36.08-.47-.12-.48-.44Z"/><path class="cls-4" d="M213.08,69.31c.27.06.81-.2.67.33-.07-.08-.47-.27-.38.11-.14-.09-.3-.16-.29-.44Z"/><path class="cls-4" d="M65.86,70.95c.64-.24.17-.81.29-1.31a1.37,1.37,0,0,1,.77,1.09c-.52-.26-.48.28-1.05.22Z"/><path class="cls-4" d="M214.23,69.63c.08.09.26.06.29.22a.28.28,0,0,1-.48.22c-.12-.35.31-.08.19-.44Z"/><path class="cls-4" d="M209.05,70.73q.37,0,.38.44-.45.08-.38-.44Z"/><path class="cls-4" d="M66.34,70.84c.08.07.17.13.19,0,.21,0,0,.46.1.66-.17,0-.2.1-.1.11-.56.33,0-.6-.19-.77Z"/><path class="cls-4" d="M67.87,72c.11-.29.5,0,.67,0,0,.09,0,.1-.1.11v.22c-.29,0-.33-.28-.57-.33Z"/><path class="cls-4" d="M69.31,72.48a.79.79,0,0,0-.1.55c-.23,0-.28.19-.57.11.22-.38.33-.44.1-.87.56-.41.06.57.57.22Z"/><path class="cls-4" d="M192.67,75.1c.44-.06.53.27.86.33a1.18,1.18,0,0,1-.77.22.8.8,0,0,1-.1-.55Z"/><path class="cls-4" d="M75.63,75.32c.29.11.19.66.29,1-.29-.11-.19-.66-.29-1Z"/><path class="cls-4" d="M-82.5,77.83c0,.24-.51.09-.57,0,.13-.46.31,0,.57,0Z"/><path class="cls-4" d="M-57.31,79.36c.14.16.35.47.19.66a.42.42,0,0,0-.29-.11.79.79,0,0,1,.1-.55Z"/><path class="cls-4" d="M70.56,81.44c.31-.2.76.37.86.77-.4-.13-.53-.56-.86-.77Z"/><path class="cls-4" d="M38.95,85.6c.43.07.19.59.48,1-.33-.13-.41-.55-.48-1Z"/><path class="cls-4" d="M37.7,86.91c.2.29,0,.38-.1.77-.21,0,0-.46-.1-.66.11,0,.17,0,.19-.11Z"/><path class="cls-4" d="M-59.61,87.89c-.19.18-.74.16-.67-.11.22-.25.31.2.67.11Z"/><path class="cls-4" d="M-78.09,88a.48.48,0,0,1,.1.66c-.19-.21-.16-.38-.1-.66Z"/><path class="cls-4" d="M-59.9,88.22c.27-.09.25.15.48.11,0,.33-.57.29-.48-.11Z"/><path class="cls-4" d="M-60.09,88.44c.17,0,.22.19.19.44h-.29c0-.23.07-.29.1-.44Z"/><path class="cls-4" d="M-38.63,89c.14-.32.37.14.67,0-.07.41-.46.07-.67,0Z"/><path class="cls-4" d="M-60,89.21a.3.3,0,0,1,.19.33c-.29-.08-.28.19-.58.11v-.33c.15,0,.17.1.29.11s.07-.13.1-.22Z"/><path class="cls-4" d="M-60.95,89.42c.25,0,.24.3.38.44-.22.38-.38-.21-.38-.44Z"/><path class="cls-4" d="M-58.27,90c0,.31-.4.2-.67.22,0-.31.4-.2.67-.22Z"/><path class="cls-4" d="M-36.72,90.63A1.28,1.28,0,0,1-36,91c-.15.48-.65,0-.67-.33Z"/><path class="cls-4" d="M-38.54,91.83h.29c0,.29,0,.47.29.44-.12.19-.2.43-.48.44.07-.41-.16-.47-.1-.87Z"/><path class="cls-4" d="M-37.87,93.47c.25,0,.32.29.38.55a.53.53,0,0,1-.38-.55Z"/><path class="cls-4" d="M130.51,94.34l.57.33c-.17.29-.63,0-.57-.33Z"/><path class="cls-4" d="M128.41,95c.14-.33.42.09.67,0-.21.27-.44.17-.67,0Z"/><path class="cls-4" d="M57.53,96.31c0,.86-.81.83-1.44,1,.25-.54.82-1.22,1.44-1Z"/><path class="cls-4" d="M62.32,96.75a.72.72,0,0,1-.77.33c.09-.3.48-.25.77-.33Z"/><path class="cls-4" d="M60.4,97.08c.41.39-1,.57-1.53.55.4-.31,1.11-.26,1.53-.55Z"/><path class="cls-4" d="M118.54,100.9c.19.11.15.48.48.44-.07.38-.29.07-.48,0v-.44Z"/><path class="cls-4" d="M99.29,103.2c.35-.07.38.23.38.55-.3,0-.33-.28-.38-.55Z"/><path class="cls-4" d="M75.44,104c.2.15-.09.38.1.66-.52.12-.23-.56-.1-.66Z"/><path class="cls-4" d="M154.65,109.32h.48c.08.45-.15.56-.48.55v-.55Z"/><path class="cls-4" d="M172.94,109.87c.21,0,0,.46.1.66a1.32,1.32,0,0,0-.77-.44c0-.47.5.16.67-.22Z"/><path class="cls-4" d="M96.22,110.31c.14.1.3.16.29.44-.23,0-.21-.2-.48-.11,0-.14.17-.17.19-.33Z"/><path class="cls-4" d="M-27.14,112.06a.86.86,0,0,1-.67-.66c.25-.18.58.31.67.66Z"/><path class="cls-4" d="M91.91,111.62c.12.46-.32.29-.38.55-.26-.2.06-.65.38-.55Z"/><path class="cls-4" d="M-8.17,113c1.67-.62,4.06-.39,6.13-.87.11,0,.24.19.1.22a48.75,48.75,0,0,1-6.23.66Z"/><path class="cls-4" d="M146,113.26h.29c0,.31-.17.47-.48.44-.12-.35.31-.08.19-.44Z"/><path class="cls-4" d="M57.82,113.37c.39,0,.69.16.67.66-.3-.14-.72-.13-.67-.66Z"/><path class="cls-4" d="M78.89,114.9c.15-.27.43.23.67.22,0,.24-.34,0-.48.11s-.06-.3-.19-.33Z"/><path class="cls-4" d="M103.41,115.12c.22,0,.45.07.38.44a.56.56,0,0,1-.48-.11.56.56,0,0,0,.1-.33Z"/><path class="cls-4" d="M61.17,115.34c.41-.25,1,.27,1.34.44-.43.27-.95-.3-1.34-.44Z"/><path class="cls-4" d="M82.62,115.34c.13,0,.15.19.29.22-.15.2-.57.31-.57-.11.14,0,.27,0,.29-.11Z"/><path class="cls-4" d="M209.25,117.2v.44h-.38c-.07-.37.16-.4.38-.44Z"/><path class="cls-4" d="M209.53,117.63c.1,0,.06.22.19.22a.79.79,0,0,1-.67.22c0-.33.48-.11.48-.44Z"/><path class="cls-4" d="M-14.3,118.29c.14.06.24.16.38.22a.45.45,0,0,1-.48.22c0-.23.07-.29.1-.44Z"/><path class="cls-4" d="M236,118.51c.48.27-.1.93-.38.44.22-.37.61.12.38-.44Z"/><path class="cls-4" d="M146.89,118.62h.29c0,.41.11.31,0,.66-.13,0-.08-.27-.1-.44-.16,0-.18-.08-.19-.22Z"/><path class="cls-4" d="M206,119.05c.31,0,.46.45.29.66-.2-.1-.29-.32-.29-.66Z"/><path class="cls-4" d="M58.49,119.93c.27,0,.52,0,.48.33-.27,0-.52,0-.48-.33Z"/><path class="cls-4" d="M75.44,121c-.6.79-1.78-.19-2.2-.66.63-.08,1.38.6,2.2.66Z"/><path class="cls-4" d="M75.44,121.35a5.91,5.91,0,0,1,2.68.77c-.77.44-2.09-.29-2.68-.77Z"/><path class="cls-4" d="M63.37,121.9a2,2,0,0,1,.77.66c-.21.16-.83-.14-.77-.66Z"/><path class="cls-4" d="M83.29,124.3c-1.52-.19-3.23-1.13-4.79-1.64.09-.33.6-.43.67,0a16.32,16.32,0,0,1,4.12,1.64Z"/><path class="cls-4" d="M101.4,124.3c.22,0,.11.32.29.33-.15.35-.58-.14-.29-.33Z"/><path class="cls-4" d="M84.25,124.63a166.88,166.88,0,0,0,26.91,8.53c-9.77-1.34-18.44-4.9-26.72-8.31-.16,0-.18-.09-.19-.22Z"/><path class="cls-4" d="M120.84,125.07c.15,0,.17.1.29.11,0,.29-.13.36-.38.33,0-.23.07-.29.1-.44Z"/><path class="cls-4" d="M151.87,127c.2.26.49-.22.48.33-.42-.16-.44.37-.67.11,0-.17.3-.09.19-.44Z"/><path class="cls-4" d="M152.64,127.14c.15-.27.43.23.67.22-.24.37-.54-.1-.67-.22Z"/><path class="cls-4" d="M237.31,127.91c.29.07.32.44.29.87-.19,0-.12-.3-.38-.22,0-.39.26-.27.1-.66Z"/><path class="cls-4" d="M191.53,131.85c0,.22-.26.14-.19.44-.14-.1-.37-.09-.29-.44a.33.33,0,0,1,.48,0Z"/><path class="cls-4" d="M94.12,133.59c.31-.09.3.17.48.22,0,.34-.14.43-.19.66-.42-.05-.48.15-.77,0,.12-.57.54-.25.48-.87Z"/><path class="cls-4" d="M175.24,133.92h.29c0,.17,0,.42.1.44-.12.27-.46-.12-.38-.44Z"/><path class="cls-4" d="M190.76,134c.27.17.75.54.58.87-.2-.28-.49-.46-.58-.87Z"/><path class="cls-4" d="M138.56,134.8a1,1,0,0,1,.57,1.2,1.11,1.11,0,0,0-1.15-.66c.21-.24.88,0,.57-.55Z"/><path class="cls-4" d="M191.43,135.56a1.69,1.69,0,0,1,.77,1c-.18,0-.08.42-.38.33.19-.41-.22-1-.38-1.31Z"/><path class="cls-4" d="M84.92,136.44h.29c-.23.15.17.33-.1.44h-.19v-.44Z"/><path class="cls-4" d="M176.78,136.88c-.16,0-.18.08-.19.22-.32-.1,0-.2-.1-.55.21,0,.3.09.29.33Z"/><path class="cls-4" d="M190.38,137.53a.42.42,0,0,0,.29.11c-.16.22,0,.14,0,.44-.28-.15-.42.06-.86,0a.56.56,0,0,0,.1-.33.28.28,0,0,0,.48-.22Z"/><path class="cls-4" d="M44.7,138.3c.31.08.15.71.48.77a.29.29,0,0,1-.48.11,1.2,1.2,0,0,0,0-.87Z"/><path class="cls-4" d="M75.92,138.84c-.33.26-.42.16-1,.22.14-.3.46-.14,1-.22Z"/><path class="cls-4" d="M44.12,139h.19c0,.09,0,.1.1.11v.22c-.08,0-.09,0-.1.11h-.19c0-.09,0-.1-.1-.11v-.22c.08,0,.09,0,.1-.11Z"/><path class="cls-4" d="M-5.68,139.28c.24.12.28.48.29.87-.23-.14-.18-.59-.29-.87Z"/><path class="cls-4" d="M200.82,139.28c.29,0,.33.28.57.33,0,.21-.32.08-.29.33a1.15,1.15,0,0,1-.29-.66Z"/><path class="cls-4" d="M44.7,139.61c.31-.47.39.81-.1.66-.07-.27.42-.45.1-.66Z"/><path class="cls-4" d="M44.31,140c-.19.32,0,.35-.29.55-.25,0-.25-.23-.29-.44.11-.13.34-.12.57-.11Z"/><path class="cls-4" d="M-14.5,140.15a1.89,1.89,0,0,1-1.15.33c.18-.34.74-.25,1.15-.33Z"/><path class="cls-4" d="M79.56,140.37c.27-.09.25.15.48.11,0,.45-.13.43,0,.77-.43,0-.23-.69-.48-.87Z"/><path class="cls-4" d="M56.38,141.9c.2,0,.19.3.38.33,0,.26-.44-.06-.29.33-.2,0-.25-.07-.38-.11-.21.16.1.31-.19.44,0,.36.29.47.48.66-.88.12-.67-1.56,0-1.64Z"/><path class="cls-4" d="M111.84,143.44c.2,0,.25.07.38.11,0,.14-.17.17-.19.33a.5.5,0,0,1-.19-.44Z"/><path class="cls-4" d="M166.34,143.44c.25,0,.48,0,.38.33-.25,0-.41,0-.38-.33Z"/><path class="cls-4" d="M80.71,143.54c0,.13,0,.19.1.22-.2.25-.49-.15-.57.33-.1,0-.07-.22-.19-.22.09-.27.39-.29.67-.33Z"/><path class="cls-4" d="M80.33,144.2c.29-.08.35.11.58.11-.27.12-.35.3-.19.66-.16.18-.56.09-.86.11,0-.2.12-.23.1-.44.2.29.17.32.57.22,0-.34-.29-.25-.19-.66Z"/><path class="cls-4" d="M82.72,144.31c.07.38-.34.39-.48.22.08-.16.31-.16.48-.22Z"/><path class="cls-4" d="M82.82,144.75c.26.17.51-.09.77.22-.11,0-.84.37-.77-.22Z"/><path class="cls-4" d="M90.77,146.39c.22.07.48.33.29.55a.47.47,0,0,1-.29-.55Z"/><path class="cls-4" d="M128.31,146.5c.1,0,.06.22.19.22-.33.28-.4.86-.77,1.09,0-.39.25-.58.19-1.09.22,0,.45.27.38-.22Z"/><path class="cls-4" d="M56.48,147.7c.15,0,.17.1.29.11-.08.16-.08.42-.38.33,0-.23.07-.29.1-.44Z"/><path class="cls-4" d="M202.54,148.36c-.35-.17-1.21.56-1.34-.11.54.08,1.09-.57,1.34.11Z"/><path class="cls-4" d="M161.07,148.25c.24,0,.3.17.48.22,0,.32-.58.21-.48-.22Z"/><path class="cls-4" d="M200.82,148.36c.1.07.1.25.29.22,0,.15-.49.22-.19.33-.27.37-.19-.4-.1-.55Z"/><path class="cls-4" d="M162.6,148.68c0,.87-.65.16-.86,0,.2-.48.42.34.86,0Z"/><path class="cls-4" d="M160.78,149.23c.24-.22.36.07.86,0-.07.34.26.21.19.55-.09,0-.17.1-.19.22-.21,0,0-.39-.1-.55-.06.15-.37,0-.38.22-.15,0-.08-.34-.38-.22.06-.1.12-.2,0-.22Z"/><path class="cls-4" d="M95.46,149.56c.17.27.65.2.67.66-.12-.15-.47-.17-.48.11-.17-.13-.08-.57-.19-.77Z"/><path class="cls-4" d="M162.31,150.76c.14.27.45.36.48.77-.33-.12-.73-.28-.48-.77Z"/><path class="cls-4" d="M100.54,151.85c.14.13.43.09.38.44a.41.41,0,0,0-.38.22c-.21,0-.08-.58,0-.66Z"/><path class="cls-4" d="M228.59,155.13c.24,0,.19.37.19.66-.16-.14-.38-.23-.38-.55.11,0,.17,0,.19-.11Z"/><path class="cls-4" d="M-94.28,155.9c-.38.22,0,.41.29.44-.1.36-.29,0-.57.22-.18-.22-.14-.8.29-.66Z"/><path class="cls-4" d="M228,156.12h.29c-.07.33.1.4.1.66-.3,0-.3-.39-.38-.66Z"/><path class="cls-4" d="M180,157.76c.31.21,0,.5.19.87-.24-.12-.22-.56-.38-.77.11,0,.17,0,.19-.11Z"/><path class="cls-4" d="M-63.92,158c.27.12.35.83.29,1a.42.42,0,0,0-.29-.11c.09-.43-.21-.63,0-.87Z"/><path class="cls-4" d="M91.63,158.2c.15,0,.08.34.38.22.36.22-.46,0-.38.22-.11,0-.08-.2-.1-.33s.09,0,.1-.11Z"/><path class="cls-4" d="M90.77,158.63c.25,0,.41,0,.38.33-.25,0-.41,0-.38-.33Z"/><path class="cls-4" d="M179.94,159c.34,0,.32.37.57.44-.2.3-.57-.14-.57-.44Z"/><path class="cls-4" d="M181.76,159.4c.18.12.2.42.38.55-.17.29-.43-.23-.57-.33,0-.12.19-.07.19-.22Z"/><path class="cls-4" d="M-63.54,160.16c.31-.15.24.65.1.66-.35.1-.17-.58-.1-.66Z"/><path class="cls-4" d="M103.6,162.35c-.08.11-.69.46-.67,0,.28-.15.25,0,.67,0Z"/><path class="cls-4" d="M107.43,162.9c.14.17.49.1.77.11,0,.37-.78.24-.77-.11Z"/><path class="cls-4" d="M104.46,163.77c0-.54.2-.54.57-.44-.14.21-.21.48-.57.44Z"/><path class="cls-4" d="M191,163.33c.35.1.06.32.1.66-.24-.15-.17-.38-.1-.66Z"/><path class="cls-4" d="M104.65,164.21a.56.56,0,0,1-.48-.11.68.68,0,0,0,.1-.44,1,1,0,0,1,.38.55Z"/><path class="cls-4" d="M231.27,166c.37,0,0,.55.19.55,0,.09,0,.1-.1.11h-.19c.14-.33,0-.43.1-.66Z"/><path class="cls-4" d="M211.26,166.29c.35,0,.14.64.58.55-.29.39-.81-.31-.58-.55Z"/><path class="cls-4" d="M25.06,168c-.06,0-.11,0-.1-.11h.29v-.44c-.23,0-.21.2-.48.11,0,.2.2.7.29.44Zm.38-.87a2.75,2.75,0,0,1,.19.66c.15,0,.08-.34.38-.22V168c-.28,0-.49,0-.57-.22-.24.13-.17.47,0,.66-.08-.45.52-.42.48.22a.41.41,0,0,0-.38.22c-.25-.41-.91-.34-1-1a.49.49,0,0,1-.38.11c.23-.25.19-.4-.19-.44.07-.09.15-.3,0-.33.41-.53.74-.07,1.44-.11Z"/><path class="cls-4" d="M107.34,168.36c.26.14.56.23.48.77h-.48c-.13-.35,0-.37,0-.77Z"/><path class="cls-4" d="M26.78,168.58c0,.4-.35.33-.57.44v-.33c.25.29.29-.13.57-.11Z"/><path class="cls-4" d="M109.83,169.24c.23,0,.28.19.57.11-.08.31.13.28.1.55a.4.4,0,0,1-.67-.22c-.13.18.05.61-.48.55.12-.37.34-.63.48-1Z"/><path class="cls-4" d="M137.89,170.22c.14-.26.48.17.48.44-.27,0-.26-.36-.48-.44Z"/><path class="cls-4" d="M225.24,170.11c.26.1-.22.44.29.33,0,.24-.47,0-.67.11-.1-.41.32-.21.38-.44Z"/><path class="cls-4" d="M224.57,171.1c.24,0,.19.37.19.66-.36,0-.27-.39-.19-.66Z"/><path class="cls-4" d="M225,171.1h.48c.1.37-.3.17-.48.22v-.22Z"/><path class="cls-4" d="M115.29,171.53c0-.13.17-.09.29-.11,0,.23.07.29.1.44.13-.13.15,0,.29,0-.27.37-.55-.16-.67-.33Z"/><path class="cls-4" d="M118.92,171.86c-.17.17-.41.27-.58.44-.2-.17.27-.49.58-.44Z"/><path class="cls-4" d="M118.83,172.74c-.13,0-.08-.27-.1-.44.13.11.35.11.48.22,0,.43-.3-.08-.38.22Z"/><path class="cls-4" d="M114.42,173.5c.16-.32.08.56.1.77.15,0,.16-.1.29-.11-.06-.36-.28-.37-.1-.76h.48c-.33.28-.09.61,0,1-.45.11-.29.24-.77.33-.12-.19.07-.73,0-1.2Z"/><path class="cls-4" d="M142.58,173.39c.19,0,.17.77-.19.55,0-.27.15-.34.19-.55Z"/><path class="cls-4" d="M115.19,173.72c.52,0,.67.47,1,.77.17-.1.24-.31.57-.22,0,.3,0,.7.58.66,0,.23-.42,0-.38.33-.24-.09-.24-.45-.38-.66-.55.19-1-.53-1.34-.87Z"/><path class="cls-4" d="M115.29,174.27c.2.06.27.27.57.22-.16.22,0,.14,0,.44h-.48a1,1,0,0,1-.1-.66Z"/><path class="cls-4" d="M147.47,175.14c-.3-.23-1.11-.2-.38-.44.11.16.4.13.38.44Z"/><path class="cls-4" d="M114.14,175.14c.12.15.45.07.58.22-.35.28-.57,0-.86.33,0-.13,0-.19-.1-.22,0-.23.42,0,.38-.33Z"/><path class="cls-4" d="M177,176c.2.24.27-.05.58,0,.14.34-.71.34-.58,0Z"/><path class="cls-4" d="M157.43,177.88c.23-.4.17.45.38.44-.25.42-.25-.36-.38-.44Z"/><path class="cls-4" d="M217.87,180.28c.08.31-.13.28-.1.55-.3.05-.25-.29-.48-.33.1-.18.41-.12.57-.22Z"/><path class="cls-4" d="M141.53,180.72c.49-.65.77.64,0,0Z"/><path class="cls-4" d="M66.63,181.48a1.44,1.44,0,0,1-1.44.55c.42-.37.89-.28,1.44-.55Z"/><path class="cls-4" d="M79.85,181.7c.25,0,.46.56.57.33.29.54-.61.12-.57-.33Z"/><path class="cls-4" d="M63,182.47c-.07.53-1.1.46-1.34.44a2.39,2.39,0,0,1-1.63.44,12.43,12.43,0,0,1,3-.87Z"/><path class="cls-4" d="M106.67,182.8c.2.42-.84.35-1.15.55.13-.47.88-.24,1.15-.55Z"/><path class="cls-4" d="M58.68,183.89c-.1.47-.79.27-1.15.44a1.08,1.08,0,0,1,1.15-.44Z"/><path class="cls-4" d="M93.83,185c-.21.31-.83.15-1.15.33.13-.4.71-.29,1.15-.33Z"/><path class="cls-4" d="M92.11,185.31c-.41.22-1.51.92-1.72.33.71,0,1-.34,1.72-.33Z"/><path class="cls-4" d="M89.23,186.19a17,17,0,0,1-3.74.87,9.89,9.89,0,0,1,3.74-.87Z"/><path class="cls-4" d="M85.21,187.06a13.78,13.78,0,0,1-3,.44,10,10,0,0,1,3-.44Z"/><path class="cls-4" d="M107.24,187c.27,0,.28.27.29.55-.2-.07-.36-.17-.29-.55Z"/><path class="cls-4" d="M203.59,187.06c.25,0,.41,0,.38.33-.25,0-.41,0-.38-.33Z"/><path class="cls-4" d="M81.47,187.61a1.77,1.77,0,0,1-1.44.11,1.83,1.83,0,0,1,1.44-.11Z"/><path class="cls-4" d="M24.87,187.72c.15-.32.64.16.38.33s-.13-.36-.38-.33Z"/><path class="cls-4" d="M77.74,188.15a5.05,5.05,0,0,0-1.15-.11c-.05,0,1.18-.48,1.15.11Z"/><path class="cls-4" d="M27.26,187.93c-.09.19-.18.38-.48.33,0-.31.23-.32.48-.33Z"/><path class="cls-4" d="M107.91,189.14c.23.15-.17.33.1.44-.13.28-.59,0-.77,0,.13-.26.43-.31.67-.44Z"/><path class="cls-4" d="M54.08,189.36c.56.24-.39.51-.58.22,0-.31.59.09.58-.22Z"/><path class="cls-4" d="M178.6,193.07a.79.79,0,0,0-.1.55c-.27-.11-.43-.65.1-.55Z"/><path class="cls-4" d="M208.67,194.06c.14-.32.39.13.29.44-.38.18,0-.47-.29-.44Z"/><path class="cls-4" d="M128.31,195.26c.08,0,.1.11.19.11v.22c-.28-.32-.17.27-.48.22,0-.34.26-.29.29-.55Z"/><path class="cls-4" d="M179.27,195.92c.37,0,.49.67.38.87-.15-.27-.38-.45-.38-.87Z"/><path class="cls-4" d="M144.21,196q.45-.08.38.44c-.08-.08-.26-.17-.29,0-.13,0-.08-.27-.1-.44Z"/><path class="cls-4" d="M199.57,197.77c.43,0,.26.65.38,1-.51-.13-.12-.63-.38-1Z"/><path class="cls-4" d="M199.09,197.88h.29c0,.66.37.81.48,1.31-.27.17-.39,0-.77.11,0-.16,0-.31-.1-.33,0-.27.32,0,.38,0a2,2,0,0,0-.1-.77c-.29-.08-.12.38-.48.22-.18-.5.38-.15.29-.55Z"/><path class="cls-4" d="M54.94,200.4a1.74,1.74,0,0,1,.48,1.09c-.16-.36-.56-.46-.48-1.09Z"/><path class="cls-4" d="M89.81,201.16c.2,0,.25.22.38.33,0,.23-.36.1-.38.33-.33-.23,0-.32,0-.66Z"/><path class="cls-4" d="M89.81,202c-.13.16-.43.29-.58.11.06-.36.36-.16.58-.11Z"/><path class="cls-4" d="M-8.46,202.37a4.3,4.3,0,0,1-1.25,1.09,3.21,3.21,0,0,1,1.25-1.09Z"/><path class="cls-4" d="M71.51,203.24c.18-.36.26-.09.67-.11a.38.38,0,0,1-.67.11Z"/><path class="cls-4" d="M206,203.13h.29c-.07.33.17.32.1.66-.31,0-.42-.25-.38-.66Z"/><path class="cls-4" d="M71.61,203.35c-.12.34-.2.06-.48.22a.28.28,0,0,1,.48-.22Z"/><path class="cls-4" d="M165.38,204.77c.27.13.29.54.38.87-.27-.12-.66-.48-.38-.87Z"/><path class="cls-4" d="M188.46,205.1v.44c-.25,0-.41,0-.38-.33a.49.49,0,0,1,.38-.11Z"/><path class="cls-4" d="M88.56,205.32c.19-.31.6,0,.86,0-.19.31-.6,0-.86,0Z"/><path class="cls-4" d="M-4.63,205.43c.32-.11.15.34.19.55-.33.08-.34-.38-.19-.55Z"/><path class="cls-4" d="M92.39,205.87a6,6,0,0,1-2.49-.33c-.85-.19.25-.11.29-.11.29,0,1.62.41,2.2.44Z"/><path class="cls-4" d="M165,205.54c.16.07.06.25-.1.22a.77.77,0,0,1,0,.55c-.25-.14-.29-.36-.19-.66.14,0,.27,0,.29-.11Z"/><path class="cls-4" d="M104.56,209.36a116.37,116.37,0,0,0-11.49-3.17c-1.25-.29.68-.09,1.15,0a51.55,51.55,0,0,1,10.34,3.17Z"/><path class="cls-4" d="M141.15,211.88c.21,0,.21.28.19.55-.39,0-.25-.28-.19-.55Z"/><path class="cls-4" d="M141.72,213.3c.19.18.12,0,.38,0,.1.28-.32.49-.38.22v-.22Z"/><path class="cls-4" d="M107.24,215c-.28.31-.68-.17-1.05-.11.17-.46.63.19,1.05.11Z"/><path class="cls-4" d="M-90.74,217.67c-.21.33-.54-.11-.86,0,.17-.37.62-.14.86,0Z"/><path class="cls-4" d="M239.7,218.55c.08.09.26.06.29.22.09,0,.07-.13.1-.22s.09,0,.1.11v.22c-.25,0-.6.1-.48-.33Z"/><path class="cls-4" d="M145.84,220.84c1.25-.3,2.61.23,3.83.33a21.62,21.62,0,0,1-3.83-.33Z"/><path class="cls-4" d="M-41,222.16a1.12,1.12,0,0,1,.19,1.09c-.2,0-.19-.3-.38-.33,0-.34.3-.31.19-.77Z"/><path class="cls-4" d="M138.66,222.16c.38.16-.11.78-.1,1.2-.39-.28.05-.78.1-1.2Z"/><path class="cls-4" d="M-41.51,222.92c-.21,0-.21-.28-.19-.55.33-.18.54.06.38.44-.25-.15-.3-.35-.19.11Z"/><path class="cls-4" d="M139.13,222.48c.17.13.08.57.19.76-.22-.08-.21-.42-.48-.44,0-.26.44.06.29-.33Z"/><path class="cls-4" d="M143.16,222.7c.08.31-.13.28-.1.55-.14-.09-.3-.16-.29-.44a.49.49,0,0,1,.38-.11Z"/><path class="cls-4" d="M144.4,223.14c.21,0,0,.46.1.66-.38-.18-.2-.29-.1-.66Z"/><path class="cls-4" d="M139.13,223.36c.42,0,0,.66,0,.87a.42.42,0,0,0-.29-.11.78.78,0,0,0,.29-.77Z"/><path class="cls-4" d="M143.35,223.36a2.34,2.34,0,0,0,.77.33c-.2.26-.81.06-.77-.33Z"/><path class="cls-4" d="M-46.2,223.8c0,.21-.32.08-.29.33-.45-.12,0-.69.29-.33Z"/><path class="cls-4" d="M144.69,224.67c.36.08.12.59-.19.55,0-.21.21-.27.19-.55Z"/><path class="cls-4" d="M-91,225.11c-.22,0-.36-.17-.67-.11,0-.29.66-.2.67.11Z"/><path class="cls-4" d="M127.35,224.89q.45-.08.38.44-.45.08-.38-.44Z"/><path class="cls-4" d="M139.61,225.22c.22,0,.22.29.1.44s-.31-.09-.29-.33c.08,0,.09,0,.1.11s.07-.13.1-.22Z"/><path class="cls-4" d="M141.43,226.42c.29-.08.18.3.48.22,0,.36-.51.12-.48-.22Z"/><path class="cls-4" d="M85.78,226.64c.37-.06.08.63.38.66-.21.3-.49-.24-.38-.66Z"/><path class="cls-4" d="M-44.48,228.5c.56,0-.06.61.48.55-.07.34-.26.14-.48.11v-.66Z"/><path class="cls-4" d="M-43.81,228.72a.49.49,0,0,0,.38.11c.31.19-.5,0-.38.33-.24,0,0-.37,0-.44Z"/><path class="cls-4" d="M196,228.72c0,.25-.06.51-.38.44q0-.42.38-.44Z"/><path class="cls-4" d="M97.09,229.59c.21.21.22.55.57.33-.05.27-.08.56-.38.55a1.89,1.89,0,0,1-.19-.87Z"/><path class="cls-4" d="M196.6,230c.14-.32.39.13.29.44-.2.08-.38.34-.57.11.2-.09.77-.32.29-.55Z"/><path class="cls-4" d="M197.75,229.92c.11,0,.08.2.1.33h-.67c.06-.49.51.16.57-.33Z"/><path class="cls-4" d="M172.56,231.89a.41.41,0,0,0,.29.11c0,.29-.13.36-.38.33a.68.68,0,0,0,.1-.44Z"/><g class="cls-2"><path class="cls-4" d="M116.43,236.15c0,.13,0,.19-.1.22s.17.09.29.11c-.09.64-.73-.3-.19-.33Z"/><path class="cls-4" d="M245.45,237.57h.29c0,.26-.17.24-.1.55a.57.57,0,0,1-.19-.55Z"/></g><path class="cls-4" d="M138,238.12c0-.13.17-.09.29-.11,2.79,2.24,6.41,3.54,9.29,5.69a75.17,75.17,0,0,1-9.58-5.58Z"/><path class="cls-4" d="M131.47,246.43c-.07.22-.29.45-.48.22,0-.24.24-.23.48-.22Z"/><path class="cls-4" d="M130.32,246.65q.45-.08.38.44c-.11-.16-.4-.13-.38-.44Z"/><path class="cls-4" d="M120.36,246.76c.36,0,.45.29.48.66a2,2,0,0,1-.48-.66Z"/><path class="cls-4" d="M120.07,246.87c.16.09.06.79-.19.77a4.56,4.56,0,0,1,.19-.77Z"/><path class="cls-4" d="M-56.83,247.08c.17.1.37.24.19.44s-.34-.28-.19-.44Z"/><path class="cls-4" d="M107.53,247.63c.38.27.16.5.67.22.07.34-.54.47-.19.77-.47.25-.35-.45-.48-1Z"/><path class="cls-4" d="M107,247.74c.25.08.33.35.29.77-.23-.1-.25-.44-.29-.77Z"/><path class="cls-4" d="M-39.49,249.27c.13-.28.59,0,.77,0-.11.45-.47,0-.77,0Z"/><path class="cls-4" d="M-84.13,249.71c.27.05.28.42.38.66-.32,0-.37-.31-.38-.66Z"/><path class="cls-4" d="M-82.88,250.47h.38v.44c0-.25-.42-.1-.38-.44Z"/><path class="cls-4" d="M-83.17,252.33c.37.45-.89.43-1,.11.48-.28.5,0,1-.11Z"/><path class="cls-4" d="M227.25,254.85c.3,0,.29.33.29.66-.19-.13-.52-.37-.29-.66Z"/><path class="cls-4" d="M-110.56,255.61a1.07,1.07,0,0,1,.57.87c-.39,0-.32-.51-.67-.55a.56.56,0,0,0,.1-.33Z"/><path class="cls-4" d="M86.07,260.42c.23.16.39.78.57.11.33.31-.19.58-.38.66a.6.6,0,0,1-.19-.77Z"/><path class="cls-4" d="M122.56,260.53c-.24.19-.1.14-.1.55-.33.08-.16-.4-.38-.44,0-.28.36-.26.48-.11Z"/><path class="cls-4" d="M-9,264.14c-.88.21-1.95-.33-2.78-.55.63-.35,1.93.41,2.78.55Z"/><path class="cls-4" d="M183.38,264.25c.21,0,0,.46.1.66-.23-.21-.91.1-.86-.44.25.11.76.23.77-.22Z"/><path class="cls-4" d="M201.77,264.25a2.18,2.18,0,0,1,.38.77c-.23-.23-.2-.16-.57-.11,0-.34.14-.43.19-.66Z"/><path class="cls-4" d="M92.87,264.36h.29c-.22.08.09.76-.29.66v-.66Z"/><path class="cls-4" d="M201.68,265c.25,0,.31.15.29.44-.25,0-.31-.15-.29-.44Z"/><path class="cls-4" d="M183.19,265.34c.33,0,.42.33.48.66-.16-.22-.44-.3-.48-.66Z"/><path class="cls-4" d="M11.46,268.73c.34.21,1.12,0,1.63.22-.22.35-1.48.22-1.63-.22Z"/><path class="cls-4" d="M151.59,272.78c-.16.08-.68-.19-.86-.44.24-.16.75.11.86.44Z"/><path class="cls-4" d="M150.34,272.78c-.12.3-.52.28-.86.33,0-.2.12-.23.1-.44.45,0,.54-.19.77.11Z"/><path class="cls-4" d="M150.72,273c-.15.14-.36.47-.58.22.2-.09.4-.41.58-.22Z"/><path class="cls-4" d="M139.61,273.43c.16.19.6,0,.57.44-.36,0-.56-.09-.57-.44Z"/><path class="cls-4" d="M-22.16,277c-.15.41-1.08.51-1.34.44.18-.45.82-.37,1.34-.44Z"/><path class="cls-4" d="M140.19,277.92c.32,0,.11.58-.19.55,0-.27.15-.34.19-.55Z"/><path class="cls-4" d="M-27.81,278.35a8.17,8.17,0,0,1-2.68,1,9.16,9.16,0,0,1,2.68-1Z"/><path class="cls-4" d="M-76.27,280.43c.39-.09.49.17.86.11a5.31,5.31,0,0,1-1.25.55c-.15-.8.68,0,.38-.66Z"/><path class="cls-4" d="M187,281.63c.29-.23.46.48.19.76-.29-.22.18-.64-.19-.76Z"/><path class="cls-4" d="M148.81,283.06c-.53.19,0,1-.38,1.2-.08-.17-.11-1.68.38-1.2Z"/><path class="cls-4" d="M149.29,283.71c.32.1,0,.2.1.55-.15,0-.16-.1-.29-.11v-.22c.16,0,.18-.09.19-.22Z"/><path class="cls-4" d="M88.95,285.24c.23.33.63.45.67,1-.45,0-.34-.56-.86-.44-.07-.34.26-.21.19-.55Z"/><path class="cls-4" d="M91.72,286.34a.79.79,0,0,1,.38.77.79.79,0,0,1-.38-.77Z"/><path class="cls-4" d="M89.9,286.88c.4-.27.8.4.67,1.09-.23,0-.21-.2-.48-.11,0,.28.18.38.29.55s-.24.09-.38.11a2,2,0,0,1,.1.76c-.53-.06,0-1.36-.67-1.2.25-.52-.19-.73,0-1.09.36,0,.5.66.86.33a.94.94,0,0,0-.38-.44Z"/><path class="cls-4" d="M208.77,287.21c-.1.15-.26.21-.29.44-.08,0-.1-.11-.19-.11v-.22c.23,0,.21-.2.48-.11Z"/><path class="cls-4" d="M82.72,287.87c.25-.32.41.4.38.77-.48-.08,0-.61-.38-.77Z"/><path class="cls-4" d="M206.28,287.76c.43,0-.08,1.11.48,1,0,.26-.44-.06-.29.33-.36-.1-.12-.88-.19-1.31Z"/><path class="cls-4" d="M94.79,288.08c0-.15.24-.09.38-.11a.54.54,0,0,1-.1.66c-.3.05-.07-.5-.29-.55Z"/><path class="cls-4" d="M207.62,289.07c-.1.18-.41.12-.58.22-.12-.27.21-.53,0-.55.21,0,.52-.2,1,.11.05.44-.69,0-.38.22Z"/><path class="cls-4" d="M206.66,289.62c-.08,0-.09,0-.1-.11s-.05.11,0,.11c-.11.42-.37-.42-.48,0-.21,0,0-.39-.1-.55.26,0,.33.17.19.33.27,0,.19-.37.57-.22,0,.2-.12.23-.1.44Z"/><path class="cls-4" d="M210.39,289.29c-.11.11-.36.6-.1.77-.09.21-.58-.05-.57-.33.35.07.27-.33.67-.44Z"/><path class="cls-4" d="M88.37,292.57c.24-.13.3-.46.48-.66a1.68,1.68,0,0,0-.38-.33c.31-.08.34-.42.19-.77.21-.24.32.19.57.22a4.42,4.42,0,0,0-.19,1.42c-.35-.08-.37.45-.67.11Z"/><path class="cls-4" d="M88.47,292.68c.17.18-.09.37,0,.77-.27.09-.25-.15-.48-.11.16-.22.14-.64.48-.66Z"/><path class="cls-4" d="M204.07,292.79c.38,0,.5.38.67.66a1,1,0,0,1-.67-.66Z"/><path class="cls-4" d="M2,293c.22-.5.53.75.1.66.16-.17,0-.51-.1-.66Z"/><path class="cls-4" d="M206.75,294.21h.38c.08.42-.46.42-.38,0Z"/><path class="cls-4" d="M143.64,296.18c.24-.43.49.59,0,.44,0-.07.24-.42,0-.44Z"/><path class="cls-4" d="M-14.4,298.25a.3.3,0,0,1,.19.22v2.08c.07.51-.16.51-.1,0v-1a5.21,5.21,0,0,1-.1-1.31Z"/><path class="cls-4" d="M225.34,298.36c0,.11-.69.3-.67.76-.29-.41.15-.92.67-.76Z"/><path class="cls-4" d="M78.22,304.59c-.1.27-.42-.21-.38.33-.27,0-.12-.52-.48-.44.29-.44.5,0,.86.11Z"/><path class="cls-4" d="M13.57,307.66c.11.56.46.87.57,1.42-.33-.09-.37.16-.67.11a.27.27,0,0,1,.29-.22c0-.14-.17-.17-.19-.33-.3-.05-.07.5-.29.55s-.31-.37-.48-.55a1,1,0,0,0,0-1.09c.22-.24.32.28.77.11Z"/><path class="cls-4" d="M-34.61,308.09a11.65,11.65,0,0,1,.1,2.51,11.65,11.65,0,0,1-.1-2.51Z"/><path class="cls-4" d="M-14.21,310.17c.22.11.2.5.19.87-.34-.17,0-.47-.19-.87Z"/><path class="cls-4" d="M-63.54,311.48a9.2,9.2,0,0,1,4.88.87c-1.5,0-3.2-.71-4.88-.87Z"/><g class="cls-2"><path class="cls-4" d="M-34.51,313.45h-.19c.07-.65,0-.95,0-1.75.34.43,0,1.16.19,1.75Z"/><path class="cls-4" d="M88.47,30.06c0,.11-.12.08-.19.11,0,.27.15.34.29.44-.16.38-.19-.27-.38-.22s.2.57-.1.77c-.19-.44-.78-.42-1.15-.66,0,0,.59-.06.1-.22.11-.25.37.15.48-.22Z"/></g><path class="cls-4" d="M72.76,30.27c.23.24-.36.91-.57.66.21-.2.47-.33.57-.66Z"/><path class="cls-4" d="M121.32,32.68A4.79,4.79,0,0,1,121,32c.32-.41.47.06,1,0a1.08,1.08,0,0,0,.77,1c-.33.14-.21.28-.29.55,0-.6-.66-.49-.67-1.09-.1.07-.1.25-.29.22-.07.34.26.21.19.55-.46.39-.66-.29-1.05-.33.48,0,.1-.39.67-.22Z"/><path class="cls-4" d="M120.46,35.19c.31.43.32,0,.67-.11-.12.13-.08.45.19.44a.8.8,0,0,1-.1.55c-.07-.11-.54-.54-.38-.22-.12.2-.43-.31-.38-.66Z"/><path class="cls-4" d="M122.18,35.74c.86.49-.42.65-.67.55,0-.53.56,0,.48-.44.11,0,.08.2.1.33.24-.07.17-.36.1-.44Z"/><path class="cls-4" d="M209.92,36.94c-.2-.36.68.74,0,.66,0-.11.12-.08.19-.11s-.17-.09-.29-.11c.05-.22.29-.21.1-.44Z"/><path class="cls-4" d="M207.71,37.27c0-.11-.12-.08-.19-.11.08-.39.49.28.57-.11.32.2-.38.71-.19.77-.08.33-.41-.53-.19-.55Z"/><path class="cls-4" d="M75.73,38.36s.78-.39.67.22a3.23,3.23,0,0,1-.67-.22Z"/><path class="cls-4" d="M-51.56,40.88a7.43,7.43,0,0,1,1.72,2.19c-.55-.76-1.38-1.19-1.72-2.19Z"/><path class="cls-4" d="M166.14,41.32c0-.23.14-.21.29-.22s0-.1-.1-.11c.22-.42.14.41.38.33,0,.21-.32-.13-.57,0Z"/><path class="cls-4" d="M44.12,43.72c.15.18.36,0,.58.22-.06.23-.59.1-.67,0,0-.25.06-.51.38-.44a.27.27,0,0,1-.29.22Z"/><path class="cls-4" d="M58.1,43.72c.16.07.06.25-.1.22,0,.13,0,.19.1.22s0,.1-.1.11h-.19v-.33a.27.27,0,0,0,.29-.22Z"/><path class="cls-4" d="M42.78,45.36c-.44-.21.19-.06.19-.55q.51,0,.48.55a1.34,1.34,0,0,1-.77.22c0-.13,0-.19.1-.22Z"/><path class="cls-4" d="M-11,47.11c0-.13,0-.19-.1-.22a3.06,3.06,0,0,1,1.72-.55c-.17.28-.62.25-.86.44,1.16.69.13.17-.77.33Z"/><path class="cls-4" d="M-87.1,64.6c-.27.21-.12.21-.57,0v-.87c.88-.24.25,1.25,1.05,1.09,0,.34-.26.29-.29.55.11.71.61,1,1.15,1.2a1.92,1.92,0,0,1-1.82-1.31c0-.26.36,0,.38.11a.72.72,0,0,0,.1-.77Z"/><path class="cls-4" d="M67.11,71.93a1.15,1.15,0,0,1,.67,0c0,.37.17.47.29.66-.05.25-.15-.13-.29.11,0,.44.77,0,.77.44-.12.27-.19.58-.57.55a1,1,0,0,0-.67-1c.16-.36,0-.55-.19-.77Z"/><path class="cls-4" d="M67.49,74.34a4.85,4.85,0,0,1,.86-.11c-.05.34-.36.39-.67.44-.08-.09-.06-.3-.19-.33Z"/><path class="cls-4" d="M-60,75.65c-.26-.08-.18.23-.29.33s-.22-.19-.19-.44c.25,0,.56-.06.57.22.28.12-.15.12-.1-.11Z"/><path class="cls-4" d="M69.41,78.16c0-.45.14-1.09.67-1.2-.09.54.26.58.29,1-.39.07-.9.44-1.25.22.07-.19.17,0,.29,0Z"/><path class="cls-4" d="M60.4,80.46c-.31-.21-.24.07-.19.44-.3,0-.33-.28-.38-.55.08,0,.1.11.19.11.12-.2.36-.53.38,0Z"/><path class="cls-4" d="M5.62,83.52c.08,0,.09,0,.1.11s.18,0,.48.11a.41.41,0,0,1-.38.22c0-.22-.26-.14-.19-.44Z"/><path class="cls-4" d="M4.76,83.63c.32.11,0,.43.38.55-.13.42-.46-.4-.48-.11-.28-.09.22-.16.1-.44Z"/><path class="cls-4" d="M4.18,84.5c.13-.21.58.14.57.44-.27-.06-.31-.38-.57-.44Z"/><path class="cls-4" d="M39.33,85.6c.48,0,.06.32.29.55,0,.18-.34-.26-.29-.55Z"/><path class="cls-4" d="M-58.36,86.36c.36,0,.45.22.67.33,0,.07-.78.1-.67-.33Z"/><path class="cls-4" d="M-38.82,89.42h.38c0,.23-.14.21-.29.22s0,.1.1.11c0,.27-.27-.1-.19-.33Z"/><path class="cls-4" d="M-59.61,89.75c.08-.16.58.13.57.44-.36,0-.34-.34-.57-.44Z"/><path class="cls-4" d="M236.73,90.3c.37,0,.37.37.67.44,0,.42-.57-.24-.67-.44Z"/><path class="cls-4" d="M-35.47,91.72c0,.22-.36.1-.38.33-.32-.1,0-.2-.1-.55.19.21.15.4.48.22Z"/><path class="cls-4" d="M-35.18,91.94c.11.14-.38.51-.19,1.09-.11-.16-.28-.27-.29-.55.29,0,.21-.49.48-.55Z"/><path class="cls-4" d="M-36.72,91.72c.36.19.07.54.67.33a3.79,3.79,0,0,1,.19,1.2c-.3-.13-.23.17-.38.22.35.35.28.56.38,1.09-.77-.46-.7-1.82-.86-2.84Z"/><path class="cls-4" d="M128.89,95.44c0,.2.12.23.1.44-.47-.12-.75.27-.86-.55.6.74.32,0,1.05-.11-.17.56,1-.06,1.25.55-.08.32-.24-.14-.48,0-.09,0-.17.1-.19.22-.13.47.46.14.38.55-.54-.26-.15,0-.67.11.21-.25.08-.29.19-.55-.08-.32-.31.07-.48,0,0-.13,0-.19-.1-.22s.12-.08.19-.11c-.08-.16-.14-.35-.38-.33Z"/><path class="cls-4" d="M132.33,97.73h.29c0,.34-.26.49.19.44q.07.51-.38.44c-.26-.44.25-.53-.1-.87Z"/><path class="cls-4" d="M40.1,99.92A25,25,0,0,1,36,102.54a24.12,24.12,0,0,1,4.12-2.62Z"/><path class="cls-4" d="M34.54,103.53a2.17,2.17,0,0,1-1,.77c.19-.4.6-.56,1-.77Z"/><path class="cls-4" d="M76.11,104.29h.29c0,.32-.13.41,0,.55,0,.12-.1.06-.1,0s-.09,0-.1.11c-.06-.18.13-.29-.1-.66Z"/><path class="cls-4" d="M56,108.67c1.8,1.45,3.55,3.89,5.46,5.58-2-1.23-3.71-3.7-5.46-5.58Z"/><path class="cls-4" d="M154.36,109.54c0,.4,0,.79,0,1.42-.61-.07-.32-1.18,0-1.42Z"/><path class="cls-4" d="M81.28,112.49c-.19-.18.75,0,.58.55-.35,0-.37-.38-.58-.55Z"/><path class="cls-4" d="M80.13,112.49c.26.23-1,.92-.86.11.28,0,.77.33.86-.11Z"/><path class="cls-4" d="M88.18,113c.29.08.28-.19.57-.11-.2.24-.57.37-.48.66-.08.23-.06-.21-.1-.55Z"/><path class="cls-4" d="M53.51,113.15c.41-.18.59.85,1.05,1-.55.13-.61-.83-1.05-1Z"/><path class="cls-4" d="M89,113.37c.11.1,0,.2.1.55-.31.13-.07-.35-.38-.22,0-.25.28-.12.29-.33Z"/><path class="cls-4" d="M59.25,114.13c.39-.26.63.59,1.25.44-.24.43-1.1-.06-1.25-.44Z"/><path class="cls-4" d="M55.9,116c.17-.19.56.3.77.44-.27.3-.53-.34-.77-.44Z"/><path class="cls-4" d="M65.48,118.18a8.32,8.32,0,0,1,1.72,1.53,5.34,5.34,0,0,1-1.72-1.53Z"/><path class="cls-4" d="M76.88,129.66c.27-.23.65.34.86.55a4.42,4.42,0,0,1-.86-.55Z"/><path class="cls-4" d="M116,133.16v-.33c.3-.05.27.28.38.44s-.13-.23-.38-.11Z"/><path class="cls-4" d="M227.25,134.14c.4,0,.43.53.67.77,0-.06-.76-.22-.67-.77Z"/><path class="cls-4" d="M175.91,134.47c.27-.15.62.52.86.77,0,.37-.54-.34-.29,0,0,.16-.29,0-.29.22,0-.29.11-.72-.29-1Z"/><path class="cls-4" d="M190.09,135.45c0-.14.34-.39.29-.77.46.24,0,.8,0,1.2-.13,0-.15-.19-.29-.22.08-.19.32-.42,0-.22Z"/><path class="cls-4" d="M173.33,134.8c.4-.05-.13.34.38.22v.33c-.3,0-.33-.28-.38-.55Z"/><path class="cls-4" d="M176.49,135.56c.14-.14.21.19.57,0-.5.47.33.13.29.66-.46.08-.43-.39-.86-.33,0-.19.16-.28,0-.33Z"/><path class="cls-4" d="M199.76,138.73c.16-.28.67,0,.77.11-.09.2-.48-.17-.77-.11Z"/><path class="cls-4" d="M84,139.5c.54,0,1.05,1,1.63,1.31-.53,0-1-1-1.63-1.31Z"/><path class="cls-4" d="M201.58,139.94c.2-.55.4.1.48.33-.18.33-.14-.48-.48-.33Z"/><path class="cls-4" d="M-15.74,140.48a9.07,9.07,0,0,1-2.3.77,9.37,9.37,0,0,1,2.3-.77Z"/><path class="cls-4" d="M85.69,141.14c.4-.05.86.76,1.25,1.09-.35,0-.77-.87-1.25-1.09Z"/><path class="cls-4" d="M44.6,141.69c.08.08,0,.52.48.44a.45.45,0,0,1-.48.22c.08-.38-.18-.46,0-.66Z"/><path class="cls-4" d="M81.28,143.87c.24-.32.64.1.86-.11v1c-.32,0-.34-.41-.77-.33-.05-.16.11-.57-.1-.55Z"/><path class="cls-4" d="M127.64,145.29a.38.38,0,0,1,.1.55c-.18.1-.32-.33-.38,0-.26-.1.17-.31.38-.22a.56.56,0,0,1-.1-.33Z"/><path class="cls-4" d="M126.87,147.15c.07-.52.6-.4.48-.87.17,0,.2.13.38.11-.45.26-.1.33,0,.77-.3.08-.18-.3-.48-.22-.08,0-.1.11-.19.11,0,.24.08.35.29.33-.2.4-.31-.22-.48-.22Z"/><path class="cls-4" d="M201.87,146.39c.16-.25.52.2.77.22-.17.25-1-.42-.48.22.15.27-.38-.37-.29-.44Z"/><path class="cls-4" d="M127.35,148.14a1.23,1.23,0,0,0,.57.77c.69-.44.33-.82,1.15-1,0,.25,0,.41-.19.44.27.17.59.28.67.66-.34-.09-.46.25-.67,0,.1-.15.16,0,.29-.22-.16-.17-.39.08-.38-.44-.22.11-.2.5-.19.87a5.6,5.6,0,0,0-1.34-.44c.18-.38-.26-.58.19-.87.21-.06.14.21.29.22,0,.28-.17-.15-.38,0Z"/><path class="cls-4" d="M96.8,149.45c-.26.1.29.24,0,.44h-.48c.06-.19-.12-.64.1-.66-.47,0-.32-1-.86-.66.11-.56.89-.32,1.25-.11,0,.13-.17.09-.29.11.27.38.91.15,1.15.77-.22,0-.36,0-.38-.22-.21,0,0,.39-.1.55.31-.06.45.07.67.11-.28.2-.22.27-.29.55-.18-.27-.3-.68-.77-.87Z"/><path class="cls-4" d="M102.26,154c-.17,0-.57-.4-.38-.11,0,.11-.12.08-.19.11s0-.1-.1-.11c.07-.25.74-.38.67.11Z"/><path class="cls-4" d="M227.54,155.46c0,.19-.17.25-.38.22.06.1.12.2,0,.22.63,0,.07.38.57.77,0,.12-.1.06-.1,0-.16,0-.18.09-.19.22-.42-.15,0-.53-.57-.55,0-.26.17-.32.1-.66.28,0,.29-.25.58-.22Z"/><path class="cls-4" d="M-32.79,157c-.43.06-.25-.5-.1-.66,0-.19-.59-.58-.58-.11-.48-.41.56-.57.67-.11.1-.55-.1.56,0,.87Z"/><path class="cls-4" d="M156.28,159.18c.46.28,1.13.32,1.34.87-.31-.31-.85-.05-1.15-.55-.05.17-.44.84-.48.33-.08,0-.09.11-.19.11a.3.3,0,0,0,.19.33c.43-.56.81.17,1.15,0,0,.37-.29.33-.38.55a2.28,2.28,0,0,0-1.34-.55c.07-.61.79-.49.86-1.09Z"/><path class="cls-4" d="M189.71,160.6c.22.32-.55.28-.67.33,0,.14.17.17.19.33.1-.07.1-.25.29-.22.17.63-.15.66,0,1.31-.19-.08-.39-.33-.19-.55-.45.5-.09,1.28.1,1.64-.74.34-.5-1.2-.86-1.64,0-.26.3-.24.38-.44-.12-.22-.46-.2-.38-.66.54.2.8-.52,1.05,0,.08,0,.09,0,.1-.11Z"/><path class="cls-4" d="M154.94,161.37c-.31-.19.11-.44.19-.55s.22.19.19.44c.24-.09.45-.55.77-.22-.13.6-.88.07-1.15.33Z"/><path class="cls-4" d="M190.76,160.82c.17.09-.06.12-.19.11a.3.3,0,0,0,.19.33c0,.23-.42,0-.38.33.15-.35-.39-.19-.48-.55.49.24.43-.15.86-.22Z"/><path class="cls-4" d="M190.28,162.24c-.24,0-.3-.21-.38.11.08.23-.12-.13,0-.55a3.22,3.22,0,0,1,.67.77c0,.16-.12,0-.29,0v-.33Z"/><path class="cls-4" d="M104.37,165c0-.31-.36-.31-.58-.44-.06.44.25.44.58.44Zm1.82-1.31c-.07,0-.19,0-.19.11.42-.06.67-.33.67-.87-.54-.23-.34.27-.67.11.1.06,0,.42.19.66Zm-1,.11c0-.37-.37.29-.29-.22.22-.26.26.17.48.22.4-.4-.31-.44-.29-.76.33-.06,1-.74,1.63-.22.14.49,0,.64,0,1.2-.11,0-.17,0-.19.11-.44.1-.46-.27-.86-.22,0,.55-.54.11-.19.87.17,0,.22-.19.19-.44.21,0,.21.28.19.55-.33.13-.91.43-1.25.22-.19,0-.14.5.1.33-.26.07-.27.42-.57.44.16-.28-.11-.38.1-.55-.14-.24-.57-.15-.77-.33.05-.34.33-.42.38-.77.21.2.51.29.67.55a8.94,8.94,0,0,1,.86-.77c0-.34-.48-.18-.38.22-.36-.1-.11-.48.19-.44Z"/><path class="cls-4" d="M102.93,164.32c.12-.34.12.31,0,.33.24,0,.3-.21.48,0a.79.79,0,0,1-.67.22v-.33c.16,0,.18-.09.19-.22Z"/><path class="cls-4" d="M107.62,166.18c-.29.08-.35-.11-.57-.11.47,1-1.12.11-1,.87-.94,0-.59-.84-1.34-1.09.12-.33.37.08.48.11s.14-.5-.1-.33c.21-.37.44.14.67.11.16-.36.24-.82.67-.87.32.48-.13.87.19,1.09.29-.21.38-.33.67-.33,0-.51-.31-.14-.67-.33,0-.75.55.11.77-.22a.87.87,0,0,1-.38-.55.49.49,0,0,1,.67.11c-.38-.07-.08,1-.1,1.53Z"/><path class="cls-4" d="M211.64,165.85c0-.28.16.15.38,0,0,.42.1.39-.1.66-.17-.15.08-.54-.29-.66Z"/><path class="cls-4" d="M148.43,167.93c-.28-.31.44.25.48-.11.3.36-.33.35-.48.11Z"/><path class="cls-4" d="M119.12,169.24c.08,0,.09,0,.1.11s0,.1.1.11a.67.67,0,0,1-.29.22c.08.16.14.35.38.33-.08.32-.24-.14-.48,0a2,2,0,0,1,.19-.77Z"/><path class="cls-4" d="M118.06,169.89c-.22.09-.3.63-.58.33.06-.26.36-.24.58-.33Z"/><path class="cls-4" d="M24.1,171.1c.11-.13.34-.12.57-.11-.06-.11-.22-.11-.19-.33.51-.13.64,0,1.05.22,0,.24-.41,0-.58.11,0,.13.17.09.29.11-.25.28-.47.27-.67.77a.42.42,0,0,0-.29-.11c0-.21.44,0,.29-.44-.31.05-.57.4-.77,0-.2,0,.14.29-.1.44a.42.42,0,0,1,.29-.11c0,.29-.27.28-.38.44a19.41,19.41,0,0,0-.86-2c.54.2,1.52.31,1.34,1Z"/><path class="cls-4" d="M116.82,171.21a.67.67,0,0,1,.67-.44c-.19.25-.19.29,0,.55s-.32-.28-.67-.11Z"/><path class="cls-4" d="M118.06,171.75c-.27-.09-.33-.43-.48-.66.17-.22.53.35.77-.11a.5.5,0,0,1,.19.44c-.24,0-.34.2-.48.33Z"/><path class="cls-4" d="M113.27,175c0-.12.1-.06.1,0,.17,0,.2-.13.38-.11a.27.27,0,0,1-.29.22v.33c-.28-.1,0-.4-.19-.44Z"/><path class="cls-4" d="M25,178c.35,0,1,.58,1.34.87-.37.06-.85-.7-1.34-.87Z"/><path class="cls-4" d="M123.43,180.72c-.38-.4-.89-1.56-.67-1-.1-.26-.35.61-.29-.22,0-.11.42-.33.19-.87.49.1.52.72,1,.87a3.45,3.45,0,0,0,0,1.09c-.17.34-.4.18-.57.33-.34-.19.19-.28.38-.22Z"/><path class="cls-4" d="M63.66,179.84a5.54,5.54,0,0,1-.86.44c.14-.31.5-.38.86-.44Z"/><path class="cls-4" d="M27.74,180.06c.38-.07.93.61,1.34.87-.39.08-.88-.67-1.34-.87Z"/><path class="cls-4" d="M123.24,181.26c.17-.1.35.15.77,0-.16.35-.56.17-.77,0Z"/><path class="cls-4" d="M-76.85,184.65c.29-.29.88,0,1.15.11-.28.28-.62-.31-1.15-.11Z"/><path class="cls-4" d="M59.73,185.86c.45-.16,2.32.38.57.22-.09,0-.6,0-.57-.22Z"/><path class="cls-4" d="M25.25,188.59c-.33.36-1,.36-1.44.55-.4,0,1-.49,1.44-.55Z"/><path class="cls-4" d="M109.73,188.92c-.21-.24.47,0,.58.11,0,.51.23.72-.29.87.16-.39.23-.37.1-.87-.15,0-.17.1-.29.11.21.28-.09.62.1.77,0,.09,0,.1-.1.11h-.29c.08-.4.39-1,.19-1.09Z"/><path class="cls-4" d="M129.08,194.06c.3-.3.53.41.57.76-.22.15-.36-.28-.38,0-.15-.1.36-.74-.19-.76Z"/><path class="cls-4" d="M128.6,195.15c.21-.1.64-.24.77-.11s-.17.24-.1.55c-.17-.16-.51-.23-.38,0-.09.26-.29-.24-.29-.44Z"/><path class="cls-4" d="M129,196c.08-.28.5-.15.67-.33,0-.22-.26-.14-.19-.44.16,0,.18-.08.19-.22.24.06.34.27.48.44-.24.13-.35.4-.29.87-.33-.06-.42-.39-.86-.33Z"/><path class="cls-4" d="M-106.25,195.7a1.09,1.09,0,0,1-.67,1,7.44,7.44,0,0,0,.67-1Z"/><path class="cls-4" d="M178.6,196.57c.26,0-.25-.42.19-.33.08.35-.15.34-.19.55-.47,0-.73-.27-1,.22-.15,0,.06-.41-.19-.55,0-.29.54.1.38-.33.24.29.53,0,.77.44Z"/><path class="cls-4" d="M66.44,198.21c.48-.25.72.71,1.15.87-.28,0-.78-.64-1.15-.87Z"/><path class="cls-4" d="M88.08,201.82a.71.71,0,0,1-.86-.44c0-.42.32-.51.29-1,.29.17-.08.48,0,.77s.17.17.19.33c.13,0,.08-.27.1-.44.35.1.57.67.29.87-.11,0-.05-.11,0-.11Z"/><path class="cls-4" d="M73.91,202.37c.1-.24.64-.09.57.22-.24.14-.4-.32-.48,0-.15,0,.08-.19-.1-.22Z"/><path class="cls-4" d="M68.74,203.35c-.43-.21-.43.14-.67,0,0-.18.71-.44.67,0Z"/><path class="cls-4" d="M76.88,203.24c0-.17.17.1.19-.11,2.89,1.78,6.52,3.52,9.29,5.79-3-1.71-6.47-3.68-9.48-5.69Z"/><path class="cls-4" d="M107.91,203.57v-.22a.42.42,0,0,1,.29-.11c0,.25,0,.41.19.44-.07.27-.26-.2-.48-.11Z"/><path class="cls-4" d="M92,207.51c.86.07,1.9.89,2.87,1.2-.88,0-1.91-.88-2.87-1.2Z"/><path class="cls-4" d="M104.65,209.36c.21-.24.62.23,1,.22-.16.18-.76-.08-1-.22Z"/><path class="cls-4" d="M-8,210.24c.24.32-.39.57-.58.77s.47-.51.58-.77Z"/><path class="cls-4" d="M126.78,211.22c.28.06-.15.17-.1.33.31,0,.2-.42.48-.44-.34.07,0-.56.48-.55a6.72,6.72,0,0,1-1.44,1.75c0-.18.42-.76.58-1.09Z"/><path class="cls-4" d="M89.62,210.79a21.14,21.14,0,0,1,5.27,3c.13.13,0,0-.1,0-1.77-.93-3.47-1.95-5.17-3Z"/><path class="cls-4" d="M99.48,211.22c0-.3.71.24,1,.33-.32.32-.56-.38-1-.33Z"/><path class="cls-4" d="M-8.94,211.22c-.09.59-1.12,1-1.53,1.64.09-.59,1.1-1.08,1.53-1.64Z"/><path class="cls-4" d="M143.35,212.53c-.36-.23-.25.16-.67.11.06.11.22.11.19.33-.34,0-.35.33-.67.33,0-.23.64-.35.29-.66.38-.18.8-.33.77-1a.49.49,0,0,0,.38.11v.44c-.31-.09-.06.16-.29.33Z"/><path class="cls-4" d="M101.59,212.43c.52,0,1.31.69,1.92,1-.6.07-1.31-.69-1.92-1Z"/><path class="cls-4" d="M140.38,212.75c.11-.31.74-.5.67.11,0-.14-.58-.14-.29,0-.08.32-.14-.25-.38-.11Z"/><path class="cls-4" d="M-10.76,212.86c0,.48-.92.92-1.25,1.42,0-.56.92-.92,1.25-1.42Z"/><path class="cls-4" d="M140.28,213.63c-.13,0-.08.27-.1.44-.14-.33-.52-.8-.29-1.2,0,.76.79.7,1.15,1.09.08,0,.1-.11.19-.11a2.5,2.5,0,0,1-.38-.44c0-.21.32.13.57,0,.08.6-.25.73-.57.87.17-.63-.54-.26-.57-.66Z"/><path class="cls-4" d="M104.17,214a17.08,17.08,0,0,1,1.92.77,3,3,0,0,1-1.92-.77Z"/><path class="cls-4" d="M239.32,214.72c0-.15.24-.09.38-.11,0,.46-.33.54-.1,1-.48-.1.16-.82-.29-.87Z"/><path class="cls-4" d="M240.57,216.91c-.17-.07,0-.52-.19-.55a.41.41,0,0,1,.38-.22c-.11.45,0,1.14-.57,1.09,0-.22.26-.22.38-.33Z"/><path class="cls-4" d="M112.7,217.35c-.13-.19.74.2,1,.33-.22.2-.68-.24-1-.33Z"/><path class="cls-4" d="M113.75,217.78c.16-.11.8.18,1.05.33-.23.19-.72-.27-1.05-.33Z"/><path class="cls-4" d="M-18.52,219.86c-.83,1.38-2.84,2.37-4,3.72.33-.75,1.21-1.23,1.92-1.86s1.47-1.27,2.11-1.86Z"/><path class="cls-4" d="M145.84,221.17c-.33,0-.29-.33-.48-.44s-.08.27-.1.44c-.61-.77-2.22-.38-3.16-.77,1.21,0,3.27-.16,3.74.77Z"/><path class="cls-4" d="M-42.37,222.48c.15-.27.39.28.38.55-.4.13-.17-.46-.38-.55Z"/><path class="cls-4" d="M-47.25,222.81c.13-.08.68.13.86.11-.18.27-.76.08-.86-.11Z"/><path class="cls-4" d="M-42.37,223.8c0-.13-.17-.09-.29-.11,0-.28.83-.39.77,0-.14,0-.27,0-.29-.11a.5.5,0,0,0-.19.44c0,.41-.24-.32,0-.22Z"/><path class="cls-4" d="M139.71,223.91c.28,0,.33.21.48.33s-.65.09-.48-.33Z"/><path class="cls-4" d="M139.8,224.45c.24-.08,0,.76.29.22.49.24-.2.42-.57.33-.07-.37.39-.14.29-.55Z"/><path class="cls-4" d="M141.15,224.45a.49.49,0,0,0,.38.11c-.21.32-.38.44-.38.76s.26-.16.38.11-.29,0-.29.22c-.18-.47-.44-.17-.57-.66.47,0,.44,0,.48-.55Z"/><path class="cls-4" d="M142.2,224.78c.1.09,0,.89-.38.55-.1.41.24.31.19.66-.31-.06-.3.21-.48,0a5,5,0,0,0,.38-1.09c.14,0,.27,0,.29-.11Z"/><path class="cls-4" d="M173,232.76c0-.31.29-.25.29-.55.12,0,.1.22,0,.22.16.18.46.2.57.44.27.12-.69,0-.86-.11Z"/><path class="cls-4" d="M154,233c0-.12.1-.06.1,0s.09,0,.1-.11a.57.57,0,0,1,.19.55.31.31,0,0,1-.19-.22c-.38.27.07-.12-.19-.22Z"/><path class="cls-4" d="M135.3,235.6c.22.33.61.47.67,1-.18-.38-.58-.51-.67-1Z"/><path class="cls-4" d="M150.34,244.79c-.57.11-1.36-.48-1.92-.77.24-.15,1.3.61,1.92.77Z"/><path class="cls-4" d="M-83.07,248.94c.09.1-.29.58.19.66-.3.4-.16.54-.19.87-.36-.14-.37-.67-.48-1.09.28,0,.36-.25.48-.44Z"/><path class="cls-4" d="M137.51,259.11c0-.42-.28-.48-.57-.33.06-.68.81-.11.77.33-.31-.07-.13.39-.38.11,0-.11.12-.08.19-.11Z"/><path class="cls-4" d="M192.58,258.35c-.08.52.23.3.29.44v.33c-.6-.24-.57.11-1.05.22-.18-.21,0-.27,0-.55-.23-.31-.54.11-.77-.11a.85.85,0,0,0,.29-.87c.22,0,.36-.17.67-.11.1.52.5.11.77.22.13.39.58.43.67.87-.49.08-.59-.27-.86-.44Z"/><path class="cls-4" d="M138.37,276.28c.3.13-.05.32.29.33-.06.26-.42.18-.29.66-.24-.12-.28-.48-.29-.87-.2-.05-.18.16-.19.33-.11.35-.11-.29-.1-.44.43.15.43-.48.67-.22-.15-.18.18-.44.19-.77.35.07.16.64,0,.77.06.33.2-.1.38,0s-.18.16-.19.33c-.17-.1-.28-.35-.48-.11Z"/><path class="cls-4" d="M-76.18,282c-.25,0-.48,0-.38.33-.16-.11-.1-.46-.19-.66.41.14.49,0,.67-.33.26.21,1-.11.86.55-.34-.3-.91-.27-.86.44.26.2-.26,0-.1-.33Z"/><path class="cls-4" d="M149.1,282.84c.27,0,.17.46.19.77-.38-.27-.13.12-.38.33-.32-.38.41-.48.19-1.09Z"/><path class="cls-4" d="M206.75,287c-.31-.14-.07.35-.38.22,0-.72,1.12,0,.77.33-.16-.14-.19-.44-.38-.55Z"/><path class="cls-4" d="M89.62,288.85c.38,0-.07.34.19.44-.09.19-.35.18-.38.44-.12-.07,0-.75.19-.87Z"/><path class="cls-4" d="M87.13,290.16c.09.31.17.94,0,.87-.23-.26,0-.54,0-.87Z"/><path class="cls-4" d="M-4.63,292.35A25.66,25.66,0,0,1-.8,295.63a7,7,0,0,1-2.59-2.3c-.57-.15-.82-.67-1.25-1Z"/><path class="cls-4" d="M5.62,302.08A60.27,60.27,0,0,1,11,307.55a32.85,32.85,0,0,1-5.36-5.47Z"/><path class="cls-4" d="M-12.39,309.84c0-.22.26-.14.19-.44a2.29,2.29,0,0,0,.48.87c-.1.36-.27.64-.67.66,0-.36.11-.53.38-.55-.4-.15.32-.58-.38-.55Z"/><path class="cls-4" d="M-58.27,312.58c.52-.63,2.17.39,3.06.55-.89.11-2-.44-3.06-.55Z"/><path class="cls-4" d="M44,43.94c.08.35-.32.15-.29.44s.52-.25.57.11c-.09.53-.8-.18-.48.55a1.17,1.17,0,0,1-.57-.87c.46.16.4-.27.77-.22Z"/><path class="cls-4" d="M-35.28,89.86c-.25.47.31.37.19,1-.09,0-.17-.1-.19-.22s-.07.13-.1.22c-.35-.1-.06-.32-.1-.66-.3-.08-.18.3-.48.22,0-.1-.08-.2-.19-.22.24-.16.64-.14.86-.33Z"/><path class="cls-4" d="M105.9,161.59h.38c0,.2.12.23.1.44-.33,0-.55,0-.48-.44Z"/><path class="cls-4" d="M107.81,167.27c-.07.52.15.7.1,1.2-.21-.09-.33-.28-.67-.22a.68.68,0,0,0,.1-.44c-.43-.2-.13.43-.48.33v-.87a1.13,1.13,0,0,1,1,0Z"/><path class="cls-4" d="M117.68,167.49c0-.13.17-.09.29-.11.14.47.27.1.57.66-.33.19-.1.39.1.55-.31.35-.17.66-.29,1.09a1.59,1.59,0,0,1-.48-.76c.14,0,.27,0,.29-.11-.5,0,0-1-.48-1.31Z"/><path class="cls-4" d="M68.16,192.2c-.5-.33-1.51.39-2.68.22,0-.43,2.94-1,2.68-.22Z"/><path class="cls-4" d="M199.57,197c.51.06-.34.51.19.55,0,.24-.47,0-.67.11,0-.21.27-.2.19-.55.14,0,.27,0,.29-.11Z"/><path class="cls-4" d="M116.63,238.45c0,.09,0,.1-.1.11.44.33-.16.94,0,1.64-.17,0-.57.21-.29.33-1-.17-.55-2.16-.86-3.39.26-.14.46-.17.29-.55.22.07.26.36.48.44.32-.08.31-.45.67-.22-.22-.37-.2-1-.77-1,0-.63.09-1.14.57-1.2,0,.95.94.82.86,1.86-.3,0,0-.51-.48-.55-.08.69.41,1,.67,1.75-.38.14-.25-.3-.38-.44a1.9,1.9,0,0,0-.19,1.64c-.33,0-.29-.33-.48-.44Z"/></g></mask><pattern id="New_Pattern_2" data-name="New Pattern 2" width="55.27" height="45.7" patternTransform="translate(151.93 -54.73)" patternUnits="userSpaceOnUse" viewBox="0 0 55.27 45.7"><rect class="cls-3" width="55.27" height="45.7"/><polyline class="cls-5" points="0.08 42.5 8.87 34.45 19.49 42.5 27.73 34.45 37.43 42.5 46.22 34.45 55.19 42.5"/><polyline class="cls-5" points="0.08 48.91 8.87 40.85 19.49 48.91 27.73 40.85 37.43 48.91 46.22 40.85 55.19 48.91"/><polyline class="cls-5" points="0.08 19.65 8.87 11.6 19.49 19.65 27.73 11.6 37.43 19.65 46.22 11.6 55.19 19.65"/><polyline class="cls-5" points="0.08 26.06 8.87 18 19.49 26.06 27.73 18 37.43 26.06 46.22 18 55.19 26.06"/><polyline class="cls-5" points="0.08 34.11 8.87 26.06 19.49 34.11 27.73 26.06 37.43 34.11 46.22 26.06 55.19 34.11"/><polyline class="cls-5" points="0.08 3.21 8.87 -4.85 19.49 3.21 27.73 -4.85 37.43 3.21 46.22 -4.85 55.19 3.21"/><polyline class="cls-5" points="0.08 11.26 8.87 3.21 19.49 11.26 27.73 3.21 37.43 11.26 46.22 3.21 55.19 11.26"/></pattern></defs><title>Green_card_1</title><g id="Layer_2" data-name="Layer 2"><g id="Layer_2-2" data-name="Layer 2"><g class="cls-6"><rect class="cls-7" width="245.33" height="232.26"/></g><circle class="cls-8" cx="188.77" cy="52.17" r="25.4"/></g></g></svg>