<svg xmlns="http://www.w3.org/2000/svg" viewBox="0 0 148.14 189.42"><defs><style>.cls-1{fill:#f0eceb;}</style></defs><title>Asset 10</title><g id="Layer_2" data-name="Layer 2"><g id="Layer_8" data-name="Layer 8"><path class="cls-1" d="M96.19,142.55c2.38,3.91,1.52,7.57.24,10.61-5,12-13.24,20.63-26.39,23.74-10.76,2.54-20.53-.9-27-9.77a13.09,13.09,0,0,1-2.07-11c1.45-6.34,3.39-12.57,4.58-18.95.46-2.47-.4-5.25-1-7.8-.15-.61-1.78-1.32-2.65-1.23-5.51.55-11,1.38-16.5,2a28.81,28.81,0,0,1-18-3.68C-.49,122-2.77,108.7,4,102.94c7.24-6.14,15.32-11.29,23-17,7.34-5.45,14.72-10.86,21.8-16.62C50.7,67.8,51.62,65,53,62.83l-.69-1.08c-2.18.28-4.37.44-6.52.86C39.36,63.88,33.3,63.87,27.46,60c-9.15-6-6.23-13.62,1-18.12a122.81,122.81,0,0,1,15-7.52c4.38-2,8.95-3.52,13.45-5.22,3.89-1.47,7-8.48,5.42-12.48C57.88,5.65,49.21,2.23,38.23,6c-5.34,1.82-10,5.57-15,8.47-1.08.63-2.09,1.39-3.14,2.08l-1-.82c1.39-1.92,2.51-4.13,4.22-5.7C30,3.91,37.66.31,46.9,0c6.93-.23,14.47,3.77,16.75,10.17,1.53,4.31,3.18,8.64,1.83,13.54-1.66,6-5.66,9.84-10.8,12.57C47.62,40,40.34,43.4,33.16,46.93c-2.92,1.44-4.92,3.79-5,7-.11,3,2.2,4.94,4.82,5.77a18.13,18.13,0,0,0,7.07.71c3.1-.31,6.11-1.45,9.2-1.9a7.49,7.49,0,0,1,8.59,8.23c-.64,7.16-5.15,12.08-10.43,16.1C36.11,91.44,24.55,99.64,13.12,108c-.84.61-1.57,1.38-2.36,2.06-2.4,2.08-4.18,4.48-3.1,7.84,1.23,3.83,3.28,7.35,7.68,7.68a119.78,119.78,0,0,0,15.14-.18c2.52-.14,5-1,7.5-1.34,8-1.11,14.35,4,13.85,12.12a104,104,0,0,1-3.64,22.19c-2.41,8.39,5.36,16.05,12.54,16.42,13.63.69,23.08-5.89,29.37-17.4,2-3.69,3.07-7.89,4.6-11.85C95,144.71,95.5,143.93,96.19,142.55Z"/><path class="cls-1" d="M69.83,81.74c-1.87,6.66-7.35,9.5-13,12.17-6.26,3-12.83,5.45-18.76,9-3.75,2.23-6.93,5.71-9.75,9.15-2.33,2.85.46,6.37,5,6.3,4.86-.07,9.72-.59,14.58-.84,9.78-.51,20.8,8.18,17.61,20-1.39,5.16-3.94,10-5.94,15-.73,1.83-1.82,3.63-2,5.52-.68,6.22,6.41,10.16,13,7.35,7.52-3.23,12.11-9.15,15-16.54a30.46,30.46,0,0,1,6.56-10l.84.52c-1.07,1.93-2.16,3.85-3.22,5.79-2.69,5-4.76,10.41-8.2,14.77-4.24,5.37-9.92,9-17.45,8.48s-11.46-5.63-8.9-12.65c1.94-5.33,4.52-10.42,6.58-15.71s1.87-10.44-2-14.72A11.87,11.87,0,0,0,53,121.52c-5.23-.55-10.57-.1-15.87-.08-2.9,0-5.8.12-8.69,0-2.55-.14-4.75-1.08-5.74-3.76s.05-4.6,1.45-6.73c5.67-8.63,15.1-11.86,23.48-16.6,5.33-3,10.68-6,15.93-9.17,1-.62,1.53-2,2.49-2.84a17.74,17.74,0,0,1,3.16-1.72Z"/><path class="cls-1" d="M34.66,141a23.44,23.44,0,0,0-4.07.91c-2.57,1.06-5,2.63-7.59,3.45a11.15,11.15,0,0,1-6.35.38,7.85,7.85,0,0,1-4.13-4.12c-.43-1,1-2.85,1.71-4.53.7,2.53.67,5.3,1.9,6.09,1.52,1,4.26.82,6.18.23,2.88-.89,5.41-2.85,8.26-3.85,1.63-.57,4.07-.81,5.34,0,2.07,1.35,1.54,3.56-.13,5.41-2.15,2.38-4.32,4.76-6.22,7.33-8,10.74-2.18,18.81,5.6,24.81,9.22,7.11,20.23,10.27,31.65,10.22,12-.05,22.05-5.1,29-15.39,2.62-3.89,5.33-7.71,8-11.56l.87.54-2,3.81c-.7,1.33-1.34,2.69-2.13,4-6.39,10.3-15,17.54-27.22,20-8.65,1.75-16.85.17-25-2.54a58.34,58.34,0,0,1-16.15-7.86c-10.58-7.68-12.4-19.36-4.06-29.07,2.17-2.53,4.4-5,6.61-7.48Z"/><path class="cls-1" d="M10.16,45.14c-.41-4.54,2.17-7.78,4.76-11,5.79-7.28,14-11.45,21.6-16.3,1.09-.69,3.84-2.12,3.72,1.68l6.54-1.19.34.94c-1.85,1.22-3.69,2.48-5.57,3.66-5.15,3.22-10.4,6.29-15.47,9.62C15.62,39.39,11.63,50.16,15,61.31c1.23,4,4.24,6.11,7.79,7.29,4.75,1.58,9.7,2.45,14.73.94a2.94,2.94,0,0,1,1.34-.12c.27.05.48.44,1.09,1.05a15.11,15.11,0,0,1-2.93,1.19c-1.82.31-3.68.34-5.51.58-8.23,1.06-13.81-3.45-18.64-9.15-1-1.18-1-3.23-1.42-4.9-.31-1.3-.48-2.63-.72-4l.07.16C10.42,37.07,23.5,29.88,35.56,21.93,24.18,26.47,14.28,35.65,10.08,45.19Z"/><path class="cls-1" d="M69.55,160.82c2.72-2.69,5.87-5,8-8,4.45-6.41,8.36-13.19,13.22-19.55a49.17,49.17,0,0,1-2.4,5.06c-3.74,6.07-7.39,12.22-11.47,18.05A12.51,12.51,0,0,1,65.55,162c-2-4.75-1.14-8.87,1.38-13.21a92.26,92.26,0,0,0,7.52-16c2.51-7.26,1.78-13.74-9-14.74-7.33-.68-14.55-2.54-21.46-3.8-.4-7.43,4.17-9.75,8.85-12.35,5.22-2.9,11.33-4.62,14.88-10a36.5,36.5,0,0,1,4-5.45,13.1,13.1,0,0,1-5.54,10c-4,2.77-8.5,4.85-12.69,7.39a21.31,21.31,0,0,0-5.18,4c-2.34,2.72-1.15,5.33,2.41,5.91,6.73,1.09,13.48,2.06,20.18,3.3,6.16,1.14,9.66,9.49,6.69,15.14-3.51,6.66-6.84,13.41-10.19,20.16C66.32,154.73,67,157.83,69.55,160.82Z"/><path class="cls-1" d="M1.17,99.45C2.5,94.72,4.23,90.11,8.08,86.8c3.65-3.14,7.63-5.88,12-9.23-3.5-1.79-6.43-3.28-9.34-4.79C6.39,70.5,6.2,65.56,4,61.88c-.17-.29.69-1.21,1.4-2.37.8,2,1.12,3.49,1.94,4.66,1.8,2.57,3.88,4.76,7.24,5.56A14.78,14.78,0,0,1,20,72.64c4,3.17,3.89,7.75-.13,10.8-2.75,2.09-5.68,4-8.28,6.22C8.07,92.7,4.8,96,1.17,99.45Z"/><path class="cls-1" d="M72.74,150.8c2.81-4.71,5.67-9.39,8.41-14.14,3.86-6.67,5.28-13.34,1.33-20.75-3.26-6.13-11.51-8.63-17-7.42-1.7.37-3.35,1-5.06,1.25-.52.09-1.59-.4-1.62-.71a2.43,2.43,0,0,1,.66-2c3.83-2.72,11.13-2.7,15.15-.17,1.56,1,3.4,1.56,4.83,2.69,2.18,1.73,5.1,3.41,6,5.76,2.07,5.65,3.8,11.93.85,17.64-3.11,6-7.27,11.49-11,17.16a6.58,6.58,0,0,1-1.68,1.29Z"/><path class="cls-1" d="M20.93,141.25c1.7-4.67,7-9.14,9.85-8.41,7,1.81,10.63,2.9,10.55,9.34A18.31,18.31,0,0,1,39,150.09c-4.53,8.58-6,15.69,1.31,22.79.41.4.48,1.14.71,1.72l-.77.63c-1.55-1.64-3.23-3.18-4.62-4.95-5-6.39-3.6-12.81-.06-19.32a75.54,75.54,0,0,0,2.91-7.29c1-2.5.55-4.64-1.57-6.22-2.33-1.73-5-2.7-7.78-1.22C26.5,137.61,24.07,139.3,20.93,141.25Z"/><path class="cls-1" d="M62.63,46.62l-3.11-2.4c7.6,3.55,11.84,10,13.87,17.67,1.49,5.65,1.55,11.56-2.51,16.45l-1.22-.15c.29-2.4.23-4.91.93-7.19C73,63,68.14,51.24,60.5,47.9c-5.1-2.23-9.77.28-14.35,2.27-1.74.75-3.38,1.73-5.76,3C43.09,47.2,53,44.58,62.63,46.62Z"/><path class="cls-1" d="M81.68,79.5c3.76-.71,7.66-.88,11.11-2.22,7.27-2.83,14.3-6.27,21.88-8.84a49.17,49.17,0,0,1-4.82,2.85c-6.49,2.95-13,6-19.6,8.57a12.51,12.51,0,0,1-12.57-1.59c1-5.07,4-8,8.52-10.19A92.26,92.26,0,0,0,101.39,59c6.14-4.62,9.15-10.41.79-17.24-5.7-4.65-10.65-10.23-15.68-15.13,3.82-6.39,8.9-5.76,14.23-5.3,6,.51,12,2.49,17.94,0a36.5,36.5,0,0,1,6.38-2.27,13.1,13.1,0,0,1-10.18,5.2c-4.88.05-9.76-.72-14.65-1a21.31,21.31,0,0,0-6.56.47c-3.46,1-3.93,3.78-1.3,6.25,5,4.66,10,9.24,14.9,14,4.47,4.38,2.72,13.27-2.91,16.29-6.63,3.56-13.17,7.3-19.71,11C82.41,72.64,81.23,75.58,81.68,79.5Z"/><path class="cls-1" d="M89.93,73c5-2.34,9.95-4.62,14.88-7,6.93-3.38,11.83-8.12,12.69-16.47.72-6.91-4.73-13.59-10-15.67-1.62-.64-3.31-1.08-4.9-1.79-.48-.21-1.09-1.22-1-1.49a2.43,2.43,0,0,1,1.64-1.25c4.7-.11,10.74,4,12.66,8.31.75,1.68,2,3.2,2.51,4.93.85,2.65,2.33,5.68,1.73,8.11-1.44,5.85-3.51,12-9.15,15.11C105.13,69,98.62,71.2,92.34,73.81a6.58,6.58,0,0,1-2.11.13Z"/><path class="cls-1" d="M99.27,99.08a23.44,23.44,0,0,0,.85,4.08c1,2.59,2.57,5,3.35,7.64a11.15,11.15,0,0,1,.29,6.36,7.85,7.85,0,0,1-4.17,4.08c-1,.42-2.83-1.05-4.51-1.77,2.54-.67,5.31-.6,6.11-1.82,1-1.51.88-4.25.31-6.18-.85-2.89-2.78-5.44-3.74-8.31-.55-1.64-.75-4.08.1-5.34,1.38-2.05,3.58-1.49,5.41.2,2.35,2.18,4.7,4.38,7.24,6.32,10.64,8.11,18.78,2.43,24.88-5.28C142.64,89.92,145.94,79,146,67.54c.1-12-4.81-22.11-15-29.18-3.85-2.67-7.64-5.43-11.46-8.14l.55-.86,3.78,2.07c1.32.72,2.68,1.37,3.94,2.18,10.22,6.53,17.35,15.2,19.67,27.47,1.64,8.67,0,16.85-2.86,24.92a58.34,58.34,0,0,1-8.07,16c-7.81,10.48-19.52,12.15-29.12,3.68-2.5-2.2-4.93-4.47-7.4-6.71Z"/><path class="cls-1" d="M99.39,112.81c-4.65-1.77-9-7.15-8.28-10,1.9-7,3-10.59,9.47-10.43a18.31,18.31,0,0,1,7.89,2.46c8.52,4.64,15.61,6.16,22.8-1,.4-.4,1.15-.47,1.73-.69l.62.78c-1.66,1.53-3.22,3.19-5,4.55-6.46,4.92-12.86,3.43-19.32-.19a75.54,75.54,0,0,0-7.25-3c-2.48-1.07-4.64-.61-6.24,1.49-1.76,2.3-2.76,5-1.32,7.76C95.83,107.2,97.49,109.65,99.39,112.81Z"/></g></g></svg>