<svg xmlns="http://www.w3.org/2000/svg" viewBox="0 0 119.67 196.24"><defs><style>.cls-1{fill:#f0eceb;}</style></defs><title>Asset 9</title><g id="Layer_2" data-name="Layer 2"><g id="Layer_8" data-name="Layer 8"><path class="cls-1" d="M91.33,133.31c.61,7.83,1.07,15.68,1.86,23.49.74,7.39-2.44,13.39-5.69,19.66-3.13,6-7.7,8.57-14.18,9.15-1.77.16-3.71,1.87-5,3.37-2.29,2.71-4.74,2.78-7.69,1.57-6.89-2.84-14.36-4.74-20.58-8.64C30.29,175.75,25.9,166.26,27,154.35c1.56-17,5.78-33.17,13.63-48.33,4.66-9,9.54-17.88,14.28-26.84,1.26-2.39,3-3.25,4.89-1.05,6.53,7.66,13,15.39,19.28,23.24C87.31,111.62,90.83,120.69,91.33,133.31Zm-33.14-52c-2.77,8.59-4.91,16.91-8.13,24.8-3.8,9.31-9.08,18-12.72,27.39-4,10.32-5.87,21-2,32.15,2.74,7.8,7.24,13.05,15.25,15.93,5,1.79,9.08-1,13.68-.76a14.29,14.29,0,0,0,8.81-2.32,26.29,26.29,0,0,0,9.76-15.31c2-9,2.93-18.18,1.65-27.39a131.69,131.69,0,0,0-3.11-16.87C77.37,104.2,65.89,94.06,58.19,81.3Z"/><path class="cls-1" d="M11.45,161.1c-5.54-.59-11-3.47-11.44-9.21-.33-3.93,5.13-11,9.05-11.45a3.72,3.72,0,0,1,2.76.6c2.69,2.77,5.3,5.64,7.71,8.64,1.45,1.8-.49,8.2-2.87,9.45A36.89,36.89,0,0,1,11.45,161.1ZM9.09,143.4c-3.62,2.77-6.56,5.19-4,9.12.85,1.32,3.59,1.43,6.36,2.4Z"/><path class="cls-1" d="M25.34,120.67c.15,5.91-6.34,11.78-11.28,11.16-3.77-.47-7.91-.84-9.5-5.48-1.06-3.11.58-7.81,3.95-10.81,1.77-1.58,3.2-2.43,5.73-.62,1.88,1.35,5,.87,7.15,2C23.25,117.84,24.55,119.87,25.34,120.67Zm-12.42-2.34c-1.63,3.08-6.13,4.77-3.38,8.52.72,1,5.32.69,6.49-.56C19.38,122.72,15.28,120.93,12.92,118.32Z"/><path class="cls-1" d="M109.74,186.12c.05,5.77-5.25,9.8-13.29,10.11-3.6.14-7.53-4.62-7.52-9.12,0-3.95,5.86-8.43,11-8.42C104.51,178.7,109.71,182.63,109.74,186.12ZM93,186.79c2.68,3.67,7.39,5.1,9.68,2.93,1.87-1.76,2.07-3.83.29-5.92C100.55,180.94,99.26,181.3,93,186.79Z"/><path class="cls-1" d="M25.41,100.74c-.08,5.24-2.7,9.92-5.75,9.1-3.69-1-7.79-2.86-10.15-5.67s-2.64-7.24-.06-11,4.7-3.75,8.93-2.58C24,92.19,25.45,95.72,25.41,100.74Zm-8.07-9.35c-5.32,2.36-6.81,6.74-3.65,10.5.82,1,3.06,1.42,4.38,1.07.94-.25,2.15-2.37,2-3.42A57.78,57.78,0,0,0,17.34,91.39Z"/><path class="cls-1" d="M14.67,177.44c-.95-2.69-1-6.06,3.47-6.82s8.46-.11,11.41,4c1.82,2.52,4.53,4.66,2.38,8.12-1.93,3.09-8,4.64-11.73,3.16C16.79,184.52,14,182.61,14.67,177.44Zm4.26-3.56c-.08,2.88-3.46,6.41,1.65,7.86,1.12.32,3.85-1,3.9-1.63C24.73,176.49,22.09,174.95,18.93,173.88Z"/><path class="cls-1" d="M19.27,64.77c4.11-1.15,7.65,4.31,8.1,10.48.32,4.32-2.92,7.43-8,7.7A9.45,9.45,0,0,1,9.33,73.87C9.11,69.54,13.94,65.12,19.27,64.77Zm-.56,14.44c1.31-1.75,3.53-3.41,3.72-5.28a4.55,4.55,0,0,0-5.33-5.2c-1.72.31-3.81,3.19-4.17,5.2C12.4,76.82,14.86,78.25,18.71,79.21Z"/><path class="cls-1" d="M32.22,51.2c-.09,6.31-3.06,10.28-7.86,9.66-5.19-.67-9.4-2.49-9.14-8.1.17-3.69,3.92-9.39,6.55-9.53C27.94,42.87,32.29,46.2,32.22,51.2Zm-4.3.25C26.32,49.55,25,47.2,23,45.91c-1.5-1-5.48,3.14-4.84,5.68.43,1.71,2.79,3.53,4.66,4.13C25.33,56.52,27.09,54.93,27.92,51.45Z"/><path class="cls-1" d="M105,156.83l-2.73-1.5c4.39-4.81,9.06-4.89,13.14-.57.58.61,1.23,1.17,1.76,1.83,4.73,5.87,2.58,11.38-5,12.76-3.7.68-6.67-1.31-7.16-5.12A61.28,61.28,0,0,1,105,156.83Zm8.25-2c-2,1.65-3.58,2.38-4.18,3.59-.83,1.68-1.59,3.89-1.17,5.58.64,2.56,3.09,2,4.8,1,1.3-.73,3.24-2.26,3.11-3.19C115.48,159.44,114.17,157.18,113.25,154.85Z"/><path class="cls-1" d="M64.5,9.37c.42,5.76-3.35,8-9.58,8.39-4.39.26-6.84-3-6.75-8.2.12-7,1.9-9.6,6.66-9.56A9.45,9.45,0,0,1,64.5,9.37ZM56.69,2.61C53.11,3.4,50,6.31,50.25,9c.28,2.91,1.61,5.49,4.8,6,2.41.39,6.07-4.13,5.62-7.68C60.46,5.63,58.09,4.18,56.69,2.61Z"/><path class="cls-1" d="M22,31.19c0-4.13,3.05-7.34,6.81-7.28,2.79,0,7.53,4.8,7.52,7.54a7.51,7.51,0,0,1-7.74,7.46C25,38.94,22,35.39,22,31.19ZM28.59,27c-3.43,1-4.93,2.81-3.68,5.65a3.19,3.19,0,0,0,5.24,1.07C33.37,30.85,29.18,29.45,28.59,27Z"/><path class="cls-1" d="M89.44,40.2c2.53.66,5.72.53,6.95,2a14.63,14.63,0,0,1,3.2,8.53c0,3.52-4.67,7-7.78,5.75a12.4,12.4,0,0,1-6.07-6.41c-1.31-3.34.82-6.14,4.54-7.58Zm2.27,2.88c-1.68,2.17-3.23,3.5-3.82,5.18-.37,1.05.37,2.94,1.24,3.84a4.66,4.66,0,0,0,3.63.92,3,3,0,0,0,1.68-2.41A66.37,66.37,0,0,0,91.72,43.07Z"/><path class="cls-1" d="M97.49,62.55c-.68.83-1.36,1.66-2.05,2.48-2.6,3.09-2.27,4.7,1.57,6.19,1.15.45,3,.68,3.78.05s1-2.66.57-3.73c-1.26-3.14-3-6.11-4.29-8.77,5.43,1.21,9.41,6.13,8.75,11.64a5.68,5.68,0,0,1-1.17,3.06c-2.57,2.77-5.94,2.13-8.54.63-2-1.14-4.22-3.69-4.36-5.76C91.53,65.47,93.25,62.52,97.49,62.55Z"/><path class="cls-1" d="M111.62,130.8a14.75,14.75,0,0,0-1.65,1.77c-1.08,1.7-3.34,4.12-2.85,5.05,1.24,2.36,3.61,4.24,5.86,5.85.33.24,3.35-1.89,3.65-3.25,1.37-6.26-2.8-11.07-9.71-11.76,3.81-1.63,10.58,1.46,11.53,5.54a33.54,33.54,0,0,1,.85,8.31c-.08,3.88-2.95,5.63-6.62,4.41-6.18-2.06-9.2-6.74-7.59-12C106,131.78,107.77,130,111.62,130.8Z"/><path class="cls-1" d="M43.08,15.59c-.27,3.18-1.07,6.15-5,6.37-4.15.23-7.75-3.59-7.65-7.73.07-3,3.16-5.05,7.43-4.89C41.3,9.47,43.05,11.59,43.08,15.59Zm-4.56-5.8-4.43,6.63c1,.4,2.29,1.43,2.82,1.11C39.17,16.16,40.51,14.17,38.51,9.79Z"/><path class="cls-1" d="M74.3,21.15c-4.09-.66-6.86-1.75-6.42-5.59.32-2.75.62-7.7,4.18-6.64,2.81.83,4.63,5.42,6.45,8.59C78.69,17.81,75.78,19.89,74.3,21.15Z"/><path class="cls-1" d="M101.86,86.1c-.75.83-1.66,1.41-1.92,2.2A58.07,58.07,0,0,0,98.63,94c2,.2,4.18.93,5.94.37.82-.26,1.49-3.24,1.07-4.63-.81-2.66-2.46-5.07-3.82-7.71.8.31,2.56.47,2.83,1.19a71.23,71.23,0,0,1,3.59,12.14c.12.67-2.94,2.49-4.7,2.79-3.09.53-6.46.14-7.72-3.38C94.21,90.31,97.6,85.4,101.86,86.1Z"/><path class="cls-1" d="M113.25,110.83l.23,2.5c.23,2.56,2.06,5.79-2,6.83-4.4,1.12-10.7-2.58-11.36-6.28-.53-3,2.44-8.27,5.09-8.83a5.84,5.84,0,0,1,2.23.49,8.54,8.54,0,0,1-.79,2.12c-.71,1-1.72,1.77-2.41,2.78-1.49,2.2-1.37,4.22,1.2,5.53s4.79.68,6.2-2c.52-1,1.16-2,1.74-3Z"/><path class="cls-1" d="M88,36c-2.72-5.85-2.19-11.56-8.22-13.55l.92-1.11c1.78,1.18,3.79,2.12,5.27,3.6a9.43,9.43,0,0,1,2.62,4.7c.41,2.41.86,6.63-.16,7.13a14.38,14.38,0,0,1-9,1C75.52,36.87,76,30,79.36,27.2c0,2.4-.8,5.65.34,7.95C80.26,36.29,84.35,35.69,88,36Z"/><path class="cls-1" d="M35,48.56c4.5,0,13.88,8.09,14.73,12.59C42.76,59.28,39.48,53.78,35,48.56Z"/><path class="cls-1" d="M69.45,59.76,82,46.78C83.33,51.29,74.92,60,69.45,59.76Z"/><path class="cls-1" d="M43.46,21.56C49.37,23.49,52,28.3,54.07,33.67,49.46,30.62,46.23,26.29,43.46,21.56Z"/><path class="cls-1" d="M50.72,45.19,37.83,32.77C43.26,32.88,49.26,38.72,50.72,45.19Z"/><path class="cls-1" d="M44.68,80.35c-3.7.46-10.53-4.21-13.6-10.1l14.2,9Z"/><path class="cls-1" d="M86.18,65c-.05,4.71-7.09,11.23-12.9,11.85Z"/><path class="cls-1" d="M113.39,110.95c.36-7.23-3.86-9.08-12.75-5.78.72-.81,1.28-1.92,2.18-2.37A9.4,9.4,0,0,1,115.64,108c1,2.63-.35,2.92-2.39,2.78Z"/><path class="cls-1" d="M61.25,35.47c2-3.57,3.82-7.19,5.94-10.65.34-.56,1.79-.45,2.73-.65a6.88,6.88,0,0,1-.56,2.54c-2.24,3.13-4.63,6.16-7,9.22Z"/><path class="cls-1" d="M66.81,44.92,74.72,35C74.84,39.92,72,43.4,66.81,44.92Z"/><path class="cls-1" d="M68.8,174.66c-2.44,3-5.56,2.9-8.69,1.76-10-3.63-17.64-15-8.43-26.48,6.58-8.2,10.88-17.61,11-28.33,0-3.46-1.13-7-2-10.38-.44-1.75-1.57-3.31-2-5.06a3.84,3.84,0,0,1,.86-2.52c.13-.2,1.44,0,1.75.35,7.75,9.44,18.41,17.44,16.6,31.79-.64,5.1-1.3,9.93-5.26,14.33-4.43,4.93-7.51,11.21-10.56,17.21C59.83,171.72,62.24,174.1,68.8,174.66Zm-1.22-58.21L67,117c-.44,5.35-.79,10.71-1.33,16.05-.52,5.13-3.28,9.27-6,13.5a75.82,75.82,0,0,0-6.61,12.47c-1.83,4.55,1.06,10.15,5.84,12.36-.65-7,2.87-12.39,6.41-17.79,5.24-8,11.9-15.67,5.89-26.2-.13-.22,0-.57-.1-.83Q69.38,121.52,67.58,116.45Z"/></g></g></svg>