<svg xmlns="http://www.w3.org/2000/svg" viewBox="0 0 135.28 172.83"><defs><style>.cls-1{fill:#f0eceb;}</style></defs><title>Asset 7</title><g id="Layer_2" data-name="Layer 2"><g id="Layer_8" data-name="Layer 8"><path class="cls-1" d="M23.78,1.49c1.05.94,3.15,2.18,3,2.77-1,3.71,3.91,6.85.9,10.69-.27.35.65,1.84,1.25,2.63,3.83,5,7.72,10.05,11.8,15.33,5.3-4.45,10.77-9,16.17-13.63.73-.63,1.75-1.94,1.53-2.51-2.29-5.93,2.33-9.5,4.79-13.63.74-1.24,3.71-2.07,5.35-1.7a136.49,136.49,0,0,1,14,4.39c3.39,1.17,3.87,4.39,2.93,6.83-3.12,8.12,1.4,14.41,4.32,21.12,1,2.19,2.19,4.26,3.79,7.33,5.14-5.18,10.08-10.06,14.82-15.12.46-.49-.33-2.15-.57-3.27-1.5-7.15.48-11.91,7.29-16.15,4.38-2.73,9.06-4.29,14.42.28l-7.34-1,1,8.52-.67.08-1.91-7.9c-6.42,1-11.85,6.91-11.35,12.32.32,3.44,6.07,8.26,9.66,8.09,5.13-.24,12.4-5.5,12.51-9.32l-5-.51,0-.45,6.21-.85.43-11.92c.61,1,2.34,2.42,2.23,3.72-.47,5.62-1.49,11.2-2.3,16.8-7,2.25-13.32,9.89-22.89,1-4.78,5.83-9.36,11.41-13.94,17-.43.53-.79,1.13-1.29,1.87l8.69,13.3L115.32,50l-1.52-1.54c.35-.24.6-.56.84-.55,7.52.21,17.06,9.29,17.16,16.31s-12.31,14.77-19.65,12c-3.38-1.28-4.87-.74-7,2.31-2.89,4.2-6.77,7.76-10.46,11.36-2.4,2.33-3.57,4.32-1.36,7.55,2.41,3.52,4.31,7.39,6.59,11.39,3.32-8.59,8.53-12.62,15.63-11.89a10.35,10.35,0,0,1,5.91,2.66c6.5,6.58,5.93,14.7-.85,20.89-3,2.73-6.06,3.17-9.49,1.5-2.67-1.29-4.32-.49-6.18,1.64-3.75,4.3-7.89,8.26-11.7,12.5-.74.82-1.38,2.73-.93,3.43a98.22,98.22,0,0,0,7.31,10c.47.57,2.26.62,3.1.21,7.34-3.58,13.75-1.28,18.06,6.37L119.54,149c4.63,6.13,5,13,.55,19.32-3.28,4.6-8.44,4.3-13.53,3.16-10.24-2.3-12.81-7.36-9-17.48a5,5,0,0,0-.84-3.94c-2.11-2.92-4.56-5.6-7.4-9-5.51,5.29-13.13,8.52-14.29,17.69a17.3,17.3,0,0,1-3.24,7.86c-4.64,6.16-8.16,7.25-14.45,5.35s-11.83-8-12.44-13.83a16.41,16.41,0,0,1,8.35-15.93,15.63,15.63,0,0,1,18.85,3.7c.89,1.07,1.86,2.06,2.71,3a5.57,5.57,0,0,0,1.2-.63c3.31-3.54,8.71-6.79,9.28-10.74.54-3.71-4-8.17-6.34-12.29-1.09-1.93-2.21-3.83-3.46-6-5.93,6-12.67,7.19-20.33,2.05L42,133.09l7.07,9.59L47.49,144l-7.84-8.21a38.24,38.24,0,0,0-3.58,2.53c-3.47,3.06-6.68,6-5.06,11.62,1.75,6.1-2.31,10.64-6.21,14.36-1.54,1.47-5.3,1.15-7.94.81C8.36,164,1.93,151.69,5.64,144c2.32-4.8,6.66-7.3,11.36-4.82,8.8,4.64,14.11.11,19.37-5.76a5.6,5.6,0,0,0,.55-1.23l-12.05-17c-6.71,3.45-16.22.8-19.73-5.4-2.3-4.05-.28-7.63,1.87-10.9,2.64-4,6.61-5.76,11.44-5.47,1.62.1,3.79.78,4.76,0a64.58,64.58,0,0,0,8-8c.35-.4-.2-2-.72-2.71-3.31-4.75-6.73-9.43-10.4-14.54-5.63,2.71-10.83,1.18-15.61-3.28C-1.84,59-1.58,54,6,48.32c4.39-3.32,9.81-3.65,15.35-2.17A7.49,7.49,0,0,0,27,45c4-3,7.54-6.51,11.77-10.26L25.68,17C14.8,24.61,6,19.37,3.83,9.92,2.7,5,5.31,1.12,11.1,0,4,5.8,3.44,8.84,8.71,13.37a18.82,18.82,0,0,1,1.47-2c.58-.62,1.3-1.11,3.15-2.65l-3,7.26C21,17.27,27.28,10.23,23.78,1.49ZM59,21.16c-4.89,4-9.61,7.74-14.05,11.76-1.13,1-2.35,3.62-1.83,4.49,3.11,5.29,6.72,10.29,10.15,15.37,11.79-7.6,15.62-7.25,27.17,2.35,3-3.31,6.07-6.6,9-10,.72-.84,1.72-2.28,1.45-3-2.48-6.51-5.23-12.91-8-19.55C73.64,30.61,67.9,30.21,59,21.16ZM86.87,91.63,77.93,73.75c-5,1.75-9.54,4.76-13.74,4.37S56.07,74,51.51,71.38c-3.4,3.29-7.88,7.34-11.95,11.77-.94,1-1.32,4-.55,4.93,3.79,4.38,8,8.34,12.13,12.46,11.28-11.39,23.28-11.3,27.11.6Zm-52.62-9.1c5.39-4.7,10.39-8.95,15.24-13.34,2-1.8,3.28-12.77,1.87-14.84-3.2-4.69-6.39-9.4-9.83-13.92-.57-.75-2.82-1.21-3.53-.71a81.59,81.59,0,0,0-9.14,7.48,8.64,8.64,0,0,0-2.28,4.35c-.59,2.92,0,6.24-1.16,8.87-2.76,6.37-.25,11.07,3.65,15.68C30.81,78.18,32.47,80.33,34.24,82.53Zm55,8,16.22-16.73L104,73.35c-.8-3-2.59-6.12-2.21-9,1.16-8.65-5.22-12.91-9.4-19.32-5.16,6.93-14.12,10.65-11.7,21,.22.92-1,2.11-1.28,3.25s-.65,2.54-.18,3.41C82.32,78.45,85.6,84.05,89.27,90.5ZM27.32,94.21c-.93,6.3,3.07,11.59.09,17.37-.5,1,.2,3,1,4.09,3.55,5,7.32,9.79,11.23,14.94l11.46-10.08c-.58-6.49-.87-11.38-1.53-16.22a7.26,7.26,0,0,0-2.25-3.83c-4.38-4.17-8.91-8.18-13.44-12.29Zm62.14,3.08c-2.23,1.37-4.16,2.41-5.93,3.68-5.09,3.65-8.22,12.89-5.61,17.55,3.16,5.65,6.79,11,10.4,16.81L104.21,120Zm-25-47.21c-6,.32-11.16,7-10.8,13.94s5.71,12.7,11.54,12.09C71.32,75.47,78,69.44,77.58,62,77.2,55.77,70.59,49.76,64.48,50.09ZM56.39,162.55l-1.78,5.25c7.21,3.12,13,1.39,16.25-4.63,4-7.5,2.26-13.07-5.76-18.16-4.55-2.89-10.37-2.52-12.88,1.33-4.38,6.73-7.28,14.16.31,19.18Zm15-44.57,2.15-.21c.36-5,.85-9.95,1-14.93A7,7,0,0,0,65.68,96,34.9,34.9,0,0,0,59,98.66c-5.12,2.67-8,12-5.13,16.73,3,5,9.33,9.64,16.2,4l-3.77-5.56.73-.51ZM60.56,14.33c-.08,6.83,3.49,11.56,8.88,11.77,5.72.22,12-5.95,12-11.79,0-5.15-6.81-11.06-12.62-10.94C65.06,3.46,60.62,9.34,60.56,14.33ZM116.82,53c-6.55.58-13.55,6.38-13.1,10.84.53,5.16,6.07,9.57,11.36,9,6-.61,11.07-7,10.36-13.18A7.83,7.83,0,0,0,116.82,53Zm-9.15,61c-2.08,4.24,1.25,4.9,3.38,4.68,4-.41,8.25-1.52,9.81-5.94,1.41-4,2-8.33-1.87-11.42s-8.11-.51-11.4,1.19c-5.11,2.63-5.84,9.35-2.27,13.44Zm9.11,44.54c-.19-5.12-3.51-8-8.8-7.7-5.9.35-9.33,4.5-9,10.85.24,4.37,3.35,6.43,9.36,6.21C113.87,167.7,117,164.22,116.78,158.54ZM17.47,159a8.83,8.83,0,0,0,8.36-9.2c-.11-3.39-6.57-8.53-10.57-8.4-4.41.14-8.33,3.85-7.94,7.49C8,154.9,12.31,159.23,17.47,159Zm0-63.92L17,101.9l-.69-.07-.44-5.76c-5,1.37-8.36,3.8-8.06,9.38.22,4,2,4.58,4.42,2.33.52,1.31.77,3.31,1.49,3.5,1.85.48,4.86,1,5.71,0,3.21-3.72,8-7.07,5.59-13.62ZM14,62.7l1.08.86,6.61-5.68-4.89-2.54,4.95-6.93c-5.12-2.75-14.71-.5-17.31,5.35-.73,1.65,1.19,4.48,1.89,6.77L9.7,59.31l-.78,4.07,3.91-.49.38-5.73,1.46.22Z"/><path class="cls-1" d="M56.08,149.8c.4,2.8,1.85,6.08.86,8.25-.84,1.84-4.32,1.72-6.64-1.92l6.56.19-3.14-5.75Z"/></g></g></svg>