<svg xmlns="http://www.w3.org/2000/svg" viewBox="0 0 145.48 148.88"><defs><style>.cls-1{fill:none;stroke:#1b2b3c;stroke-miterlimit:10;}.cls-2{fill:#9aaf87;}</style></defs><title>Energy_Illustration</title><g id="Layer_2" data-name="Layer 2"><g id="Layer_2-2" data-name="Layer 2"><path class="cls-1" d="M140,71.9a68.5,68.5,0,0,1-.64,8.87,68.07,68.07,0,0,1-1.52,8.77,67.45,67.45,0,0,1-3.07,8.35,67.55,67.55,0,0,1-4,7.95,67.65,67.65,0,0,1-5.16,7.2c-1.81,2.35-3.37,4.92-5.46,7a68.5,68.5,0,0,1-6.87,5.65,68.13,68.13,0,0,1-7.23,5.18,68,68,0,0,1-8,3.84,67.57,67.57,0,0,1-8.39,3A68.23,68.23,0,0,1,80.91,139a68.23,68.23,0,0,1-8.84.45,68.74,68.74,0,0,1-8.86-.28,67.06,67.06,0,0,1-8.65-2,66.73,66.73,0,0,1-8.35-2.9,67.78,67.78,0,0,1-8.13-3.57,68.06,68.06,0,0,1-7.34-5A68.42,68.42,0,0,1,24,120a68.48,68.48,0,0,1-5.83-6.72,68.07,68.07,0,0,1-4.77-7.49,67.32,67.32,0,0,1-3.77-8,67.22,67.22,0,0,1-3.34-8.24,68.22,68.22,0,0,1-1.37-8.79,68.28,68.28,0,0,1-.5-8.85A68.66,68.66,0,0,1,4.76,63a67.61,67.61,0,0,1,1.69-8.72,67.27,67.27,0,0,1,2.93-8.38,67.66,67.66,0,0,1,3.85-8,69.66,69.66,0,0,1,25-24.57A67.22,67.22,0,0,1,46.1,9.2a67.31,67.31,0,0,1,8.38-3,67.74,67.74,0,0,1,8.74-1.57,68.29,68.29,0,0,1,8.85-.81A69.17,69.17,0,0,1,81,4.3a65.85,65.85,0,0,1,25,8.87A68.11,68.11,0,0,1,113.46,18,68.29,68.29,0,0,1,120,24a68.43,68.43,0,0,1,6.09,6.48A68.33,68.33,0,0,1,131,37.89a67.77,67.77,0,0,1,3.77,8,67.39,67.39,0,0,1,3.15,8.32A68,68,0,0,1,139.51,63,68.81,68.81,0,0,1,140,71.9Z"/><path class="cls-2" d="M30.79,34.33a14.9,14.9,0,0,1-2.48,7.4,15,15,0,0,1-5.26,5.7,14.91,14.91,0,0,1-7.57,1.76A14.71,14.71,0,0,1,8,47.31,15.28,15.28,0,0,1,2.25,42,15.21,15.21,0,0,1,.5,34.33a14.86,14.86,0,0,1,2-7.51,14.8,14.8,0,0,1,5.62-5.29,14.76,14.76,0,0,1,7.39-2.39,15.32,15.32,0,0,1,7.64,2,15.39,15.39,0,0,1,5.47,5.67A15.23,15.23,0,0,1,30.79,34.33Z"/><path class="cls-1" d="M30.79,34.33a14.9,14.9,0,0,1-2.48,7.4,15,15,0,0,1-5.26,5.7,14.91,14.91,0,0,1-7.57,1.76A14.71,14.71,0,0,1,8,47.31,15.28,15.28,0,0,1,2.25,42,15.21,15.21,0,0,1,.5,34.33a14.86,14.86,0,0,1,2-7.51,14.8,14.8,0,0,1,5.62-5.29,14.76,14.76,0,0,1,7.39-2.39,15.32,15.32,0,0,1,7.64,2,15.39,15.39,0,0,1,5.47,5.67A15.23,15.23,0,0,1,30.79,34.33Z"/><path class="cls-2" d="M78.09,138.84a9.74,9.74,0,0,1-3,6.88,9.44,9.44,0,0,1-6.88,2.65,9.27,9.27,0,0,1-9.53-9.54c0-2.72.6-5.37,2.38-7.15a10.2,10.2,0,0,1,7.15-2.82A9.64,9.64,0,0,1,75,132.08,9.57,9.57,0,0,1,78.09,138.84Z"/><path class="cls-1" d="M78.09,138.84a9.74,9.74,0,0,1-3,6.88,9.44,9.44,0,0,1-6.88,2.65,9.27,9.27,0,0,1-9.53-9.54c0-2.72.6-5.37,2.38-7.15a10.2,10.2,0,0,1,7.15-2.82A9.64,9.64,0,0,1,75,132.08,9.57,9.57,0,0,1,78.09,138.84Z"/><path class="cls-2" d="M145,71.9c0,2.58-2.43,4.53-5,4.53a4.3,4.3,0,0,1-4.36-4.53A4.56,4.56,0,0,1,140,67.06,5.11,5.11,0,0,1,145,71.9Z"/><path class="cls-1" d="M145,71.9c0,2.58-2.43,4.53-5,4.53a4.3,4.3,0,0,1-4.36-4.53A4.56,4.56,0,0,1,140,67.06,5.11,5.11,0,0,1,145,71.9Z"/><path class="cls-2" d="M36.47,125.49a4.38,4.38,0,0,1-4.58,4.42,4.59,4.59,0,0,1-4.82-4.42,5.08,5.08,0,0,1,4.82-5A4.87,4.87,0,0,1,36.47,125.49Z"/><path class="cls-1" d="M36.47,125.49a4.38,4.38,0,0,1-4.58,4.42,4.59,4.59,0,0,1-4.82-4.42,5.08,5.08,0,0,1,4.82-5A4.87,4.87,0,0,1,36.47,125.49Z"/><path class="cls-2" d="M59.84,10.22a9.58,9.58,0,0,1-2.52,7,10,10,0,0,1-13.91-.06,10.1,10.1,0,0,1-3.28-6.93,10.25,10.25,0,0,1,3.17-7,9.82,9.82,0,0,1,7-2.68,9.53,9.53,0,0,1,6.85,2.87A9.36,9.36,0,0,1,59.84,10.22Z"/><path class="cls-1" d="M59.84,10.22a9.58,9.58,0,0,1-2.52,7,10,10,0,0,1-13.91-.06,10.1,10.1,0,0,1-3.28-6.93,10.25,10.25,0,0,1,3.17-7,9.82,9.82,0,0,1,7-2.68,9.53,9.53,0,0,1,6.85,2.87A9.36,9.36,0,0,1,59.84,10.22Z"/><path class="cls-1" d="M43.58,70.9A3.67,3.67,0,0,0,47,72.57c9-.93,43.27-6.12,43.39-30.84C90.56,13.85,24.1,41,43.58,70.9Z"/><path class="cls-1" d="M100.68,52.32a4.54,4.54,0,0,0-4.84,0C87.49,57.6,60.3,76.83,70.73,98.67,82.67,123.69,130.24,71.05,100.68,52.32Z"/><path class="cls-1" d="M71.61,48a5.33,5.33,0,0,1,3.47,3c4.37,9.71,19.89,47.86-1.21,57C50.14,118.28,34.86,38.51,71.61,48Z"/></g></g></svg>